<svg width="50" height="50" viewBox="0 0 50 50" fill="none" xmlns="http://www.w3.org/2000/svg">
<path d="M33.7312 4.16406C40.1667 4.16406 43.75 7.8724 43.75 14.2266V35.7474C43.75 42.2057 40.1667 45.8307 33.7312 45.8307H16.2708C9.9375 45.8307 6.25 42.2057 6.25 35.7474V14.2266C6.25 7.8724 9.9375 4.16406 16.2708 4.16406H33.7312ZM16.8333 32.7891C16.2083 32.7266 15.6042 33.0182 15.2708 33.5599C14.9375 34.0807 14.9375 34.7682 15.2708 35.3099C15.6042 35.8307 16.2083 36.1432 16.8333 36.0599H33.1667C33.9979 35.9766 34.625 35.2661 34.625 34.4349C34.625 33.5807 33.9979 32.8724 33.1667 32.7891H16.8333ZM33.1667 23.287H16.8333C15.9354 23.287 15.2083 24.0182 15.2083 24.9141C15.2083 25.8099 15.9354 26.5391 16.8333 26.5391H33.1667C34.0625 26.5391 34.7917 25.8099 34.7917 24.9141C34.7917 24.0182 34.0625 23.287 33.1667 23.287ZM23.0604 13.8516H16.8333V13.8724C15.9354 13.8724 15.2083 14.6016 15.2083 15.4974C15.2083 16.3932 15.9354 17.1224 16.8333 17.1224H23.0604C23.9583 17.1224 24.6875 16.3932 24.6875 15.4745C24.6875 14.5807 23.9583 13.8516 23.0604 13.8516Z" fill="url(#paint0_linear_3679_86096)"/>
<defs>
<linearGradient id="paint0_linear_3679_86096" x1="6.25" y1="24.9974" x2="43.75" y2="24.9974" gradientUnits="userSpaceOnUse">
<stop stop-color="#FF512F"/>
<stop offset="1" stop-color="#F09819"/>
</linearGradient>
</defs>
</svg>
