<svg width="22" height="22" viewBox="0 0 22 22" fill="none" xmlns="http://www.w3.org/2000/svg">
<path d="M8.28835 3.00013C8.81886 3.01626 9.33254 3.10889 9.83022 3.27815H9.8799C9.91358 3.29415 9.93885 3.31184 9.95569 3.32784C10.1418 3.38763 10.3178 3.45499 10.4862 3.54762L10.8062 3.69078C10.9325 3.75815 11.0841 3.88362 11.1683 3.93499C11.2525 3.98467 11.3451 4.03604 11.4209 4.09414C12.3565 3.37921 13.4925 2.99184 14.663 3.00013C15.1943 3.00013 15.7249 3.07521 16.2293 3.24447C19.3374 4.25498 20.4574 7.66545 19.5218 10.6465C18.9913 12.1698 18.124 13.5601 16.988 14.6961C15.3619 16.2708 13.5775 17.6687 11.6567 18.8728L11.4462 19L11.2272 18.8644C9.2997 17.6687 7.5052 16.2708 5.86397 14.6877C4.73556 13.5517 3.86737 12.1698 3.32843 10.6465C2.37687 7.66545 3.49685 4.25498 6.63869 3.22679C6.8829 3.14258 7.13468 3.08363 7.38731 3.05079H7.48836C7.72499 3.01626 7.95993 3.00013 8.19572 3.00013H8.28835ZM15.7914 5.66127C15.4461 5.54254 15.0672 5.72864 14.9409 6.08232C14.823 6.436 15.0082 6.82336 15.3619 6.94883C15.9017 7.15093 16.263 7.68229 16.263 8.27091V8.29702C16.247 8.48986 16.3051 8.67596 16.4229 8.81912C16.5408 8.96227 16.7177 9.04564 16.9029 9.06332C17.2482 9.05406 17.5429 8.77701 17.5682 8.42249V8.32228C17.5935 7.14251 16.8785 6.0739 15.7914 5.66127Z" fill="url(#paint0_linear_16_5155)"/>
<defs>
<linearGradient id="paint0_linear_16_5155" x1="3" y1="11" x2="19.842" y2="11" gradientUnits="userSpaceOnUse">
<stop stop-color="#FF512F"/>
<stop offset="1" stop-color="#F09819"/>
</linearGradient>
</defs>
</svg>
