<svg width="50" height="50" viewBox="0 0 50 50" fill="none" xmlns="http://www.w3.org/2000/svg">
<path d="M24.784 7.95312C30.2887 7.95312 34.1319 11.7464 34.1319 17.1825V32.8147C34.1319 38.2508 30.2887 42.044 24.784 42.044H11.6203C6.11568 42.044 2.27246 38.2508 2.27246 32.8147V17.1825C2.27246 11.7464 6.11568 7.95312 11.6203 7.95312H24.784ZM43.086 13.3599C44.0838 12.8523 45.2543 12.9054 46.2065 13.5053C47.1588 14.1029 47.727 15.1412 47.727 16.2764V33.7222C47.727 34.8597 47.1588 35.8957 46.2065 36.4933C45.6861 36.8186 45.1043 36.9847 44.5179 36.9847C44.0292 36.9847 43.5406 36.8694 43.0838 36.6363L39.7178 34.9381C38.4724 34.3059 37.6996 33.0369 37.6996 31.6271V18.3691C37.6996 16.957 38.4724 15.688 39.7178 15.0604L43.086 13.3599Z" fill="url(#paint0_linear_3679_86116)"/>
<defs>
<linearGradient id="paint0_linear_3679_86116" x1="2.27246" y1="24.9986" x2="47.727" y2="24.9986" gradientUnits="userSpaceOnUse">
<stop stop-color="#FF512F"/>
<stop offset="1" stop-color="#F09819"/>
</linearGradient>
</defs>
</svg>
