<svg width="16" height="16" viewBox="0 0 16 16" fill="none" xmlns="http://www.w3.org/2000/svg">
<path d="M7.93974 4.08055H6.72873L6.72868 2.25239H15.2724L15.2725 4.08054H13.7627V13.0907H11.7968V4.08054H9.91622L9.9163 13.0907H7.95039V9.29339C7.57816 9.39677 7.18247 9.3858 6.81674 9.26202C6.77406 11.0745 5.54436 12.3307 3.79456 12.3307C2.58599 12.3327 1.46016 11.7298 0.809714 10.7324L0.727051 10.6097L2.10088 9.08714L2.23425 9.32739C2.36762 9.58855 2.87437 10.372 3.80267 10.372C4.60819 10.372 4.89629 9.77661 4.89629 9.21772C4.89629 8.53608 4.50147 8.19134 3.71992 8.19134H2.79161V6.24825L3.4371 6.24817C4.3654 6.24817 4.50407 5.52478 4.50407 5.09384C4.50407 4.49841 4.18131 4.12757 3.6665 4.12757C3.45211 4.12868 3.24286 4.19202 3.06529 4.30968C2.88763 4.42724 2.74975 4.59388 2.66891 4.7883L2.53823 5.03382L1.23655 3.61052L1.31123 3.48775C1.8171 2.66515 2.73134 2.1679 3.7119 2.18193V2.18184C5.31235 2.18184 6.37932 3.28396 6.37932 4.92669C6.40415 5.67353 6.10469 6.39574 5.55505 6.91415C5.72038 6.99492 5.8745 7.09584 6.01386 7.21452C6.3161 7.39848 6.66369 7.49863 7.01944 7.50441C7.33861 7.51146 7.65468 7.4415 7.93974 7.30071V4.08055Z" fill="url(#paint0_linear_16_5544)"/>
<defs>
<linearGradient id="paint0_linear_16_5544" x1="0.727051" y1="7.63619" x2="15.2725" y2="7.63619" gradientUnits="userSpaceOnUse">
<stop stop-color="#FF512F"/>
<stop offset="1" stop-color="#F09819"/>
</linearGradient>
</defs>
</svg>
