<svg width="38" height="386" viewBox="0 0 38 386" fill="none" xmlns="http://www.w3.org/2000/svg">
<path fill-rule="evenodd" clip-rule="evenodd" d="M33.1895 12.66L37.388 0.660516L35.5003 0H33.3814L29.414 11.339L33.1895 12.66ZM16.8885 386C16.8921 385.985 16.8956 385.97 16.8992 385.955L18.9038 377.459L15.0107 376.541L13.0061 385.036C12.9303 385.357 12.8559 385.679 12.7829 386H16.8885ZM20.594 48.6585L24.7925 36.659L21.017 35.338L16.8185 47.3375C15.8199 50.1915 14.8668 53.0574 13.9594 55.9343L17.7741 57.1376C18.6691 54.3001 19.6091 51.4734 20.594 48.6585ZM9.1637 91.8005C10.2368 85.9496 11.4926 80.125 12.9308 74.3354L9.04876 73.3711C7.5906 79.2412 6.31738 85.1467 5.22933 91.0789L9.1637 91.8005ZM4.91186 127.264C5.2526 121.319 5.77782 115.384 6.48729 109.466L2.51573 108.99C1.79641 114.99 1.26389 121.008 0.918411 127.035L4.91186 127.264ZM5.08346 162.981C4.68522 157.034 4.47192 151.079 4.44331 145.125L0.443359 145.144C0.472359 151.181 0.688626 157.219 1.09239 163.248L5.08346 162.981ZM9.67619 198.401C8.54354 192.544 7.59488 186.662 6.82997 180.762L2.86318 181.277C3.63871 187.258 4.60056 193.222 5.74895 199.16L9.67619 198.401ZM15.9827 224.444C15.1467 221.582 14.3562 218.71 13.6112 215.829L9.73863 216.831C10.494 219.751 11.2954 222.663 12.143 225.566L13.6791 230.826L17.5187 229.704L15.9827 224.444ZM22.1269 245.485L20.5909 240.225L16.7512 241.346L18.2873 246.606C19.1111 249.427 19.873 252.262 20.573 255.108L24.4573 254.153C23.7436 251.251 22.9668 248.361 22.1269 245.485ZM29.9991 289.583C29.5857 283.617 28.916 277.667 27.9902 271.748L24.0382 272.367C24.9463 278.172 25.6032 284.008 26.0087 289.859L29.9991 289.583ZM29.3972 325.438C30.0117 319.479 30.3689 313.502 30.4693 307.523L26.4698 307.456C26.3714 313.32 26.021 319.183 25.4183 325.028L29.3972 325.438ZM24.9176 351.973C25.6057 349.057 26.2301 346.13 26.7907 343.195L22.8618 342.444C22.3118 345.323 21.6994 348.194 21.0245 351.054L19.0199 359.55L22.913 360.468L24.9176 351.973Z" fill="url(#paint0_linear_35_4672)"/>
<defs>
<linearGradient id="paint0_linear_35_4672" x1="0.443359" y1="193" x2="37.388" y2="193" gradientUnits="userSpaceOnUse">
<stop stop-color="#FF512F"/>
<stop offset="1" stop-color="#F09819"/>
</linearGradient>
</defs>
</svg>
