<svg width="39" height="44" viewBox="0 0 39 44" fill="none" xmlns="http://www.w3.org/2000/svg">
<path fill-rule="evenodd" clip-rule="evenodd" d="M7.95389 6.94708C1.98731 9.72931 -0.594083 16.8216 2.1882 22.7882L2.83132 24.1673C5.61359 30.1339 12.706 32.7153 18.6725 29.9331L33.1102 23.2008L33.4332 23.8935C35.1499 27.5751 33.5571 31.9512 29.8756 33.6679L19.8938 38.3226C16.2123 40.0394 11.8363 38.4466 10.1196 34.7651L9.58366 33.6158C9.0509 32.4732 7.6928 31.9789 6.55027 32.5117C5.40774 33.0445 4.91343 34.4026 5.44619 35.5451L5.98211 36.6945C8.76432 42.661 15.8566 45.2424 21.8231 42.4601L31.8049 37.8054C37.7715 35.0231 40.3529 27.9308 37.5707 21.9642L36.9276 20.585C34.1454 14.6184 27.0531 12.037 21.0865 14.8193L6.64885 21.5519L6.32569 20.8589C4.60896 17.1774 6.20174 12.8013 9.88324 11.0846L19.8651 6.43C23.5466 4.7133 27.9227 6.30608 29.6394 9.98758L30.1754 11.1369C30.7082 12.2794 32.0663 12.7737 33.2088 12.241C34.3513 11.7082 34.8456 10.3501 34.3129 9.20755L33.7769 8.05825C30.9947 2.09169 23.9023 -0.489718 17.9357 2.29252L7.95389 6.94708ZM9.5401 25.2408C11.6072 26.6229 14.325 26.9232 16.7432 25.7956L30.2191 19.5117C28.152 18.1295 25.4341 17.8292 23.0158 18.9568L9.5401 25.2408Z" fill="white"/>
<path d="M2.1882 22.7882L1.96162 22.8938L2.1882 22.7882ZM7.95389 6.94708L7.84824 6.7205L7.95389 6.94708ZM2.83132 24.1673L3.05789 24.0617L2.83132 24.1673ZM18.6725 29.9331L18.5669 29.7065L18.6725 29.9331ZM33.1102 23.2008L33.3367 23.0951L33.2311 22.8685L33.0045 22.9742L33.1102 23.2008ZM33.4332 23.8935L33.2066 23.9992L33.4332 23.8935ZM29.8756 33.6679L29.77 33.4414L29.8756 33.6679ZM19.8938 38.3226L19.9995 38.5492L19.9995 38.5492L19.8938 38.3226ZM10.1196 34.7651L10.3462 34.6594L10.1196 34.7651ZM9.58366 33.6158L9.35708 33.7214L9.58366 33.6158ZM6.55027 32.5117L6.65593 32.7383L6.55027 32.5117ZM5.44619 35.5451L5.21961 35.6508L5.44619 35.5451ZM5.98211 36.6945L6.20869 36.5888L5.98211 36.6945ZM21.8231 42.4601L21.7175 42.2335L21.8231 42.4601ZM31.8049 37.8054L31.6993 37.5789L31.8049 37.8054ZM37.5707 21.9642L37.3441 22.0698L37.5707 21.9642ZM36.9276 20.585L37.1542 20.4793L36.9276 20.585ZM21.0865 14.8193L20.9809 14.5928L21.0865 14.8193ZM6.64885 21.5519L6.42228 21.6575L6.52793 21.8841L6.75451 21.7784L6.64885 21.5519ZM6.32569 20.8589L6.09911 20.9645L6.32569 20.8589ZM9.88324 11.0846L9.77759 10.858L9.88324 11.0846ZM19.8651 6.43L19.9707 6.65658L19.8651 6.43ZM29.6394 9.98758L29.4129 10.0932L29.4129 10.0932L29.6394 9.98758ZM30.1754 11.1369L29.9488 11.2425L30.1754 11.1369ZM33.2088 12.241L33.3144 12.4675L33.2088 12.241ZM34.3129 9.20755L34.5394 9.10189L34.5394 9.10189L34.3129 9.20755ZM33.7769 8.05825L33.5504 8.16391L33.7769 8.05825ZM17.9357 2.29252L18.0414 2.5191L17.9357 2.29252ZM9.5401 25.2408L9.43444 25.0142L9.03208 25.2019L9.40114 25.4486L9.5401 25.2408ZM16.7432 25.7956L16.6375 25.569L16.7432 25.7956ZM30.2191 19.5117L30.3247 19.7383L30.7271 19.5507L30.3581 19.3039L30.2191 19.5117ZM23.0158 18.9568L23.1215 19.1834L23.0158 18.9568ZM2.41477 22.6825C-0.309155 16.8411 2.21809 9.89754 8.05954 7.17365L7.84824 6.7205C1.75652 9.56109 -0.879012 16.8021 1.96162 22.8938L2.41477 22.6825ZM3.05789 24.0617L2.41477 22.6825L1.96162 22.8938L2.60474 24.273L3.05789 24.0617ZM18.5669 29.7065C12.7254 32.4304 5.78182 29.9031 3.05789 24.0617L2.60474 24.273C5.44537 30.3647 12.6865 33.0002 18.7782 30.1596L18.5669 29.7065ZM33.0045 22.9742L18.5669 29.7065L18.7782 30.1596L33.2158 23.4273L33.0045 22.9742ZM33.6598 23.7879L33.3367 23.0951L32.8836 23.3064L33.2066 23.9992L33.6598 23.7879ZM29.9813 33.8945C33.7879 32.1194 35.4348 27.5945 33.6598 23.7879L33.2066 23.9992C34.865 27.5556 33.3263 31.783 29.77 33.4414L29.9813 33.8945ZM19.9995 38.5492L29.9813 33.8945L29.77 33.4414L19.7882 38.096L19.9995 38.5492ZM9.893 34.8707C11.668 38.6774 16.1929 40.3243 19.9995 38.5492L19.7882 38.096C16.2318 39.7544 12.0045 38.2158 10.3462 34.6594L9.893 34.8707ZM9.35708 33.7214L9.893 34.8707L10.3462 34.6594L9.81024 33.5101L9.35708 33.7214ZM6.65593 32.7383C7.67332 32.2639 8.88267 32.704 9.35708 33.7214L9.81024 33.5101C9.21912 32.2424 7.71228 31.694 6.44462 32.2851L6.65593 32.7383ZM5.67277 35.4395C5.19835 34.4221 5.63853 33.2127 6.65593 32.7383L6.44462 32.2851C5.17695 32.8763 4.6285 34.3831 5.21961 35.6508L5.67277 35.4395ZM6.20869 36.5888L5.67277 35.4395L5.21961 35.6508L5.75553 36.8001L6.20869 36.5888ZM21.7175 42.2335C15.8761 44.9575 8.93255 42.4303 6.20869 36.5888L5.75553 36.8001C8.5961 42.8918 15.8371 45.5274 21.9288 42.6867L21.7175 42.2335ZM31.6993 37.5789L21.7175 42.2335L21.9288 42.6867L31.9106 38.032L31.6993 37.5789ZM37.3441 22.0698C40.068 27.9113 37.5407 34.8549 31.6993 37.5789L31.9106 38.032C38.0023 35.1914 40.6378 27.9502 37.7973 21.8585L37.3441 22.0698ZM36.701 20.6906L37.3441 22.0698L37.7973 21.8585L37.1542 20.4793L36.701 20.6906ZM21.1922 15.0459C27.0336 12.322 33.9771 14.8492 36.701 20.6906L37.1542 20.4793C34.3136 14.3876 27.0726 11.7521 20.9809 14.5928L21.1922 15.0459ZM6.75451 21.7784L21.1922 15.0459L20.9809 14.5928L6.5432 21.3253L6.75451 21.7784ZM6.09911 20.9645L6.42228 21.6575L6.87543 21.4462L6.55227 20.7532L6.09911 20.9645ZM9.77759 10.858C5.97095 12.633 4.32404 17.1579 6.09911 20.9645L6.55227 20.7532C4.89389 17.1968 6.43253 12.9695 9.9889 11.3111L9.77759 10.858ZM19.7594 6.20342L9.77759 10.858L9.9889 11.3111L19.9707 6.65658L19.7594 6.20342ZM29.866 9.88192C28.0909 6.07529 23.5661 4.42837 19.7594 6.20342L19.9707 6.65658C23.5271 4.99823 27.7545 6.53687 29.4129 10.0932L29.866 9.88192ZM30.4019 11.0312L29.866 9.88192L29.4129 10.0932L29.9488 11.2425L30.4019 11.0312ZM33.1031 12.0144C32.0857 12.4888 30.8764 12.0486 30.4019 11.0312L29.9488 11.2425C30.5399 12.5102 32.0468 13.0587 33.3144 12.4675L33.1031 12.0144ZM34.0863 9.3132C34.5607 10.3306 34.1205 11.54 33.1031 12.0144L33.3144 12.4675C34.5821 11.8764 35.1306 10.3696 34.5394 9.10189L34.0863 9.3132ZM33.5504 8.16391L34.0863 9.31321L34.5394 9.10189L34.0035 7.95259L33.5504 8.16391ZM18.0414 2.5191C23.8828 -0.20479 30.8264 2.32248 33.5504 8.16391L34.0035 7.95259C31.1629 1.8609 23.9218 -0.774646 17.8301 2.06594L18.0414 2.5191ZM8.05954 7.17365L18.0414 2.5191L17.8301 2.06594L7.84824 6.7205L8.05954 7.17365ZM9.40114 25.4486C11.5378 26.8773 14.3482 27.1882 16.8488 26.0222L16.6375 25.569C14.3018 26.6582 11.6765 26.3686 9.67906 25.033L9.40114 25.4486ZM16.8488 26.0222L30.3247 19.7383L30.1134 19.2851L16.6375 25.569L16.8488 26.0222ZM30.3581 19.3039C28.2214 17.8751 25.4109 17.5641 22.9102 18.7303L23.1215 19.1834C25.4573 18.0942 28.0827 18.3838 30.0801 19.7195L30.3581 19.3039ZM22.9102 18.7303L9.43444 25.0142L9.64575 25.4674L23.1215 19.1834L22.9102 18.7303Z" fill="white"/>
</svg>
