<svg width="140" height="40" viewBox="0 0 140 40" fill="none" xmlns="http://www.w3.org/2000/svg">
<path d="M44.3015 25.1774C44.0861 24.8759 43.9892 24.4882 44.0107 24.0143C44.0323 23.5405 44.3123 23.1313 44.8507 22.7867C45.1953 22.5713 45.5615 22.4851 45.9492 22.5282C46.3368 22.5498 46.7138 22.7436 47.0799 23.1097C47.7045 23.7343 48.3614 24.2189 49.0506 24.5635C49.7398 24.9082 50.6014 25.0805 51.6352 25.0805C51.9582 25.0589 52.3136 25.0158 52.7013 24.9512C53.089 24.8651 53.4228 24.6928 53.7028 24.4343C54.0043 24.1543 54.1551 23.7343 54.1551 23.1744C54.1551 22.7005 53.9936 22.3236 53.6705 22.0436C53.3474 21.7636 52.9167 21.5267 52.3782 21.3329C51.8613 21.139 51.2798 20.9559 50.6337 20.7836C49.966 20.5898 49.2768 20.3744 48.566 20.1375C47.8768 19.9006 47.2414 19.5991 46.6599 19.2329C46.0784 18.8452 45.6046 18.3391 45.2384 17.7145C44.8723 17.0899 44.6892 16.3038 44.6892 15.3561C44.6892 14.2792 44.9907 13.3638 45.5938 12.61C46.1968 11.8562 46.9722 11.2747 47.9199 10.8654C48.8891 10.4562 49.9014 10.2516 50.9567 10.2516C51.6244 10.2516 52.3244 10.3378 53.0567 10.5101C53.789 10.6608 54.489 10.9193 55.1566 11.2854C55.8243 11.63 56.3843 12.0931 56.8366 12.6746C57.0735 12.9977 57.2135 13.3854 57.2566 13.8377C57.2997 14.29 57.095 14.6992 56.6427 15.0653C56.3197 15.3238 55.9428 15.4422 55.512 15.4207C55.0812 15.3776 54.7259 15.2269 54.4459 14.9684C54.0797 14.4946 53.5844 14.1177 52.9598 13.8377C52.3567 13.5577 51.6567 13.4177 50.8598 13.4177C50.5367 13.4177 50.1814 13.4607 49.7937 13.5469C49.4275 13.6115 49.1045 13.773 48.8245 14.0315C48.5445 14.2684 48.4045 14.6561 48.4045 15.1946C48.4045 15.6899 48.566 16.0884 48.8891 16.3899C49.2122 16.6699 49.6429 16.9068 50.1814 17.1007C50.7414 17.273 51.3336 17.4453 51.9582 17.6176C52.6044 17.7899 53.2613 17.9945 53.929 18.2314C54.5966 18.4683 55.2105 18.7806 55.7705 19.1683C56.3304 19.556 56.7827 20.0621 57.1273 20.6867C57.472 21.2898 57.6443 22.0652 57.6443 23.0128C57.6443 24.1113 57.3212 25.0482 56.675 25.8235C56.0289 26.5989 55.2212 27.1912 54.252 27.6004C53.2828 27.9881 52.2921 28.1819 51.2798 28.1819C50.0091 28.1819 48.7383 27.9665 47.4676 27.5358C46.1968 27.0835 45.1415 26.2974 44.3015 25.1774Z" fill="white"/>
<path d="M69.8376 10.2516C71.3452 10.2516 72.6914 10.6393 73.8759 11.4146C75.0821 12.1685 76.0297 13.2131 76.7189 14.5484C77.4297 15.8838 77.7851 17.4345 77.7851 19.2006C77.7851 20.9667 77.4297 22.5282 76.7189 23.8851C76.0297 25.2205 75.0928 26.2758 73.9083 27.0512C72.7452 27.805 71.4314 28.1819 69.9668 28.1819C69.1053 28.1819 68.2976 28.0419 67.5438 27.7619C66.79 27.4819 66.1223 27.1266 65.5408 26.6958C64.9808 26.265 64.5393 25.8343 64.2162 25.4035C63.9147 24.9512 63.7639 24.5743 63.7639 24.2728L64.7654 23.8528V32.3495C64.7654 32.9095 64.5823 33.3726 64.2162 33.7387C63.85 34.1264 63.387 34.3202 62.827 34.3202C62.267 34.3202 61.8039 34.1372 61.4378 33.771C61.0716 33.4049 60.8886 32.931 60.8886 32.3495V12.5454C60.8886 11.9854 61.0716 11.5223 61.4378 11.1562C61.8039 10.7685 62.267 10.5747 62.827 10.5747C63.387 10.5747 63.85 10.7685 64.2162 11.1562C64.5823 11.5223 64.7654 11.9854 64.7654 12.5454V14.1284L64.2162 13.8377C64.2162 13.5577 64.367 13.2238 64.6685 12.8361C64.97 12.4269 65.3792 12.0285 65.8961 11.6408C66.4131 11.2316 67.0053 10.8977 67.673 10.6393C68.3622 10.3808 69.0838 10.2516 69.8376 10.2516ZM69.353 13.8054C68.4053 13.8054 67.5761 14.0423 66.8653 14.5161C66.1546 14.9899 65.5946 15.6361 65.1854 16.4545C64.7977 17.2514 64.6039 18.1668 64.6039 19.2006C64.6039 20.2129 64.7977 21.139 65.1854 21.979C65.5946 22.7974 66.1546 23.4436 66.8653 23.9174C67.5761 24.3912 68.4053 24.6282 69.353 24.6282C70.3006 24.6282 71.1191 24.3912 71.8083 23.9174C72.5191 23.4436 73.0683 22.7974 73.456 21.979C73.8652 21.139 74.0698 20.2129 74.0698 19.2006C74.0698 18.1668 73.8652 17.2514 73.456 16.4545C73.0683 15.6361 72.5191 14.9899 71.8083 14.5161C71.1191 14.0423 70.3006 13.8054 69.353 13.8054Z" fill="white"/>
<path d="M83.1134 27.8589C82.5535 27.8589 82.0904 27.6758 81.7242 27.3096C81.3581 26.922 81.175 26.4481 81.175 25.8881V12.5454C81.175 11.9854 81.3581 11.5223 81.7242 11.1562C82.0904 10.7685 82.5535 10.5747 83.1134 10.5747C83.6734 10.5747 84.1365 10.7685 84.5026 11.1562C84.8688 11.5223 85.0519 11.9854 85.0519 12.5454V15.5822L84.8257 13.4177C85.0626 12.9008 85.3642 12.4485 85.7303 12.0608C86.118 11.6516 86.5487 11.3177 87.0226 11.0593C87.4964 10.7793 88.0026 10.5747 88.541 10.4454C89.0794 10.3162 89.6179 10.2516 90.1563 10.2516C90.8025 10.2516 91.3409 10.4347 91.7717 10.8008C92.224 11.167 92.4501 11.5977 92.4501 12.0931C92.4501 12.8038 92.2671 13.3208 91.9009 13.6438C91.5348 13.9454 91.1363 14.0961 90.7056 14.0961C90.2963 14.0961 89.9194 14.0207 89.5748 13.87C89.2518 13.7192 88.8748 13.6438 88.4441 13.6438C88.0564 13.6438 87.6579 13.7407 87.2487 13.9346C86.861 14.1069 86.4949 14.3869 86.1503 14.7746C85.8272 15.1622 85.558 15.6468 85.3426 16.2284C85.1488 16.7884 85.0519 17.456 85.0519 18.2314V25.8881C85.0519 26.4481 84.8688 26.922 84.5026 27.3096C84.1365 27.6758 83.6734 27.8589 83.1134 27.8589Z" fill="white"/>
<path d="M102.599 28.1819C100.768 28.1819 99.1743 27.805 97.8174 27.0512C96.482 26.2758 95.4482 25.2312 94.7159 23.9174C94.0052 22.6036 93.6498 21.1175 93.6498 19.4591C93.6498 17.5206 94.0375 15.873 94.8128 14.5161C95.6097 13.1377 96.6436 12.0823 97.9143 11.35C99.185 10.6177 100.531 10.2516 101.953 10.2516C103.051 10.2516 104.085 10.4777 105.054 10.93C106.045 11.3823 106.917 12.0069 107.671 12.8038C108.425 13.5792 109.017 14.4838 109.448 15.5176C109.9 16.5514 110.126 17.6499 110.126 18.8129C110.105 19.3298 109.9 19.7498 109.512 20.0729C109.125 20.396 108.672 20.5575 108.156 20.5575H95.8143L94.8451 17.3268H106.702L105.991 17.9729V17.1007C105.948 16.4761 105.722 15.9161 105.313 15.4207C104.925 14.9253 104.43 14.5376 103.826 14.2577C103.245 13.9561 102.62 13.8054 101.953 13.8054C101.307 13.8054 100.703 13.8915 100.143 14.0638C99.5835 14.2361 99.0989 14.5269 98.6897 14.9361C98.2804 15.3453 97.9574 15.8945 97.7204 16.5837C97.4835 17.273 97.3651 18.1452 97.3651 19.2006C97.3651 20.3637 97.602 21.3544 98.0758 22.1728C98.5712 22.9697 99.1958 23.5836 99.9496 24.0143C100.725 24.4236 101.543 24.6282 102.405 24.6282C103.202 24.6282 103.837 24.5635 104.311 24.4343C104.785 24.3051 105.162 24.1543 105.442 23.982C105.743 23.7882 106.013 23.6266 106.249 23.4974C106.637 23.3036 107.003 23.2067 107.348 23.2067C107.822 23.2067 108.209 23.3682 108.511 23.6913C108.834 24.0143 108.996 24.3912 108.996 24.822C108.996 25.4035 108.694 25.9312 108.091 26.405C107.531 26.8789 106.745 27.2989 105.733 27.665C104.72 28.0096 103.676 28.1819 102.599 28.1819Z" fill="white"/>
<path d="M121.203 10.2516C122.43 10.2516 123.496 10.3808 124.401 10.6393C125.327 10.8977 126.038 11.2639 126.533 11.7377C127.05 12.19 127.309 12.7392 127.309 13.3854C127.309 13.8161 127.179 14.2253 126.921 14.613C126.662 14.9792 126.285 15.1622 125.79 15.1622C125.445 15.1622 125.155 15.1192 124.918 15.033C124.702 14.9253 124.509 14.7961 124.336 14.6453C124.164 14.4946 123.959 14.3546 123.722 14.2253C123.507 14.0961 123.173 13.9992 122.721 13.9346C122.29 13.8484 121.967 13.8054 121.752 13.8054C120.653 13.8054 119.716 14.0423 118.941 14.5161C118.187 14.9899 117.606 15.6361 117.196 16.4545C116.787 17.2514 116.583 18.1776 116.583 19.2329C116.583 20.2667 116.787 21.1929 117.196 22.0113C117.627 22.8082 118.209 23.4436 118.941 23.9174C119.695 24.3912 120.556 24.6282 121.526 24.6282C122.064 24.6282 122.527 24.5959 122.915 24.5312C123.302 24.4666 123.626 24.3697 123.884 24.2405C124.186 24.0682 124.455 23.8851 124.692 23.6913C124.929 23.4974 125.284 23.4005 125.758 23.4005C126.318 23.4005 126.749 23.5836 127.05 23.9497C127.352 24.2943 127.502 24.7251 127.502 25.242C127.502 25.7804 127.201 26.2758 126.598 26.7281C125.995 27.1589 125.198 27.5142 124.207 27.7942C123.238 28.0527 122.182 28.1819 121.041 28.1819C119.339 28.1819 117.864 27.7942 116.615 27.0189C115.366 26.222 114.397 25.1451 113.707 23.7882C113.04 22.4313 112.706 20.9129 112.706 19.2329C112.706 17.4668 113.061 15.9161 113.772 14.5807C114.504 13.2238 115.506 12.1685 116.776 11.4146C118.069 10.6393 119.544 10.2516 121.203 10.2516Z" fill="white"/>
<path d="M130.492 10.8977H138.148C138.665 10.8977 139.096 11.07 139.441 11.4146C139.785 11.7593 139.958 12.19 139.958 12.7069C139.958 13.2023 139.785 13.6223 139.441 13.9669C139.096 14.29 138.665 14.4515 138.148 14.4515H130.492C129.975 14.4515 129.544 14.2792 129.199 13.9346C128.855 13.59 128.683 13.1592 128.683 12.6423C128.683 12.1469 128.855 11.7377 129.199 11.4146C129.544 11.07 129.975 10.8977 130.492 10.8977ZM133.949 6.85938C134.509 6.85938 134.961 7.05322 135.305 7.4409C135.672 7.80705 135.855 8.27011 135.855 8.8301V23.2067C135.855 23.5082 135.909 23.7559 136.016 23.9497C136.145 24.1436 136.307 24.2836 136.501 24.3697C136.716 24.4559 136.942 24.4989 137.179 24.4989C137.438 24.4989 137.675 24.4559 137.89 24.3697C138.105 24.262 138.353 24.2082 138.633 24.2082C138.935 24.2082 139.204 24.3482 139.441 24.6282C139.699 24.9082 139.828 25.2958 139.828 25.7912C139.828 26.3943 139.495 26.8896 138.827 27.2773C138.181 27.665 137.481 27.8589 136.727 27.8589C136.275 27.8589 135.769 27.8265 135.209 27.7619C134.67 27.6758 134.153 27.4927 133.658 27.2127C133.184 26.9112 132.786 26.4589 132.462 25.8558C132.139 25.2528 131.978 24.4236 131.978 23.3682V8.8301C131.978 8.27011 132.161 7.80705 132.527 7.4409C132.915 7.05322 133.389 6.85938 133.949 6.85938Z" fill="white"/>
<path fill-rule="evenodd" clip-rule="evenodd" d="M10.3617 7.71512C5.61153 9.93018 3.55639 15.5766 5.77144 20.3268L6.28345 21.4248C8.4985 26.175 14.145 28.2302 18.8951 26.0151L30.3883 20.6558L30.6454 21.2071C32.0121 24.138 30.744 27.622 27.8131 28.9888L19.8662 32.6944C16.9352 34.0612 13.4512 32.7931 12.0845 29.8621L11.6578 28.9471C11.2337 28.0375 10.1524 27.644 9.24282 28.0682C8.3332 28.4923 7.93967 29.5735 8.36383 30.4832L8.7905 31.3982C11.0056 36.1484 16.652 38.2035 21.4022 35.9884L29.3491 32.2828C34.0993 30.0677 36.1544 24.4213 33.9394 19.6711L33.4273 18.5731C31.2123 13.8229 25.5658 11.7677 20.8156 13.9828L9.32251 19.3421L9.06544 18.7908C7.6987 15.8598 8.96677 12.3759 11.8977 11.0091L19.8446 7.30344C22.7756 5.9367 26.2596 7.20477 27.6263 10.1357L28.053 11.0507C28.4771 11.9603 29.5584 12.3539 30.468 11.9297C31.3776 11.5056 31.7711 10.4243 31.347 9.51472L30.9203 8.59972C28.7052 3.84952 23.0588 1.79438 18.3086 4.00944L10.3617 7.71512ZM11.6241 22.2791C13.2698 23.3798 15.4338 23.6189 17.3591 22.7211L28.0867 17.7188C26.441 16.6181 24.277 16.379 22.3517 17.2768L11.6241 22.2791Z" fill="url(#paint0_linear_3325_114381)"/>
<path d="M10.3617 7.71512L10.2561 7.48855L10.3617 7.71512ZM18.8951 26.0151L18.7895 25.7885L18.8951 26.0151ZM30.3883 20.6558L30.6149 20.5501L30.5092 20.3235L30.2826 20.4292L30.3883 20.6558ZM21.4022 35.9884L21.5079 36.215L21.4022 35.9884ZM29.3491 32.2828L29.2434 32.0562L29.3491 32.2828ZM20.8156 13.9828L20.9213 14.2093L20.8156 13.9828ZM9.32251 19.3421L9.09593 19.4478L9.20159 19.6743L9.42817 19.5687L9.32251 19.3421ZM9.06544 18.7908L8.83886 18.8965L9.06544 18.7908ZM11.8977 11.0091L12.0034 11.2357L11.8977 11.0091ZM19.8446 7.30344L19.739 7.07686L19.8446 7.30344ZM18.3086 4.00944L18.4142 4.23601L18.3086 4.00944ZM11.6241 22.2791L11.5184 22.0526L11.1161 22.2402L11.4851 22.4869L11.6241 22.2791ZM17.3591 22.7211L17.2535 22.4945L17.3591 22.7211ZM28.0867 17.7188L28.1924 17.9453L28.5947 17.7577L28.2257 17.5109L28.0867 17.7188ZM22.3517 17.2768L22.246 17.0502L22.3517 17.2768ZM5.99802 20.2212C3.84132 15.5961 5.84232 10.0984 10.4674 7.9417L10.2561 7.48855C5.38074 9.76195 3.27146 15.5571 5.54486 20.4325L5.99802 20.2212ZM6.51002 21.3192L5.99802 20.2212L5.54486 20.4325L6.05687 21.5305L6.51002 21.3192ZM18.7895 25.7885C14.1644 27.9452 8.66673 25.9442 6.51002 21.3192L6.05687 21.5305C8.33027 26.4058 14.1255 28.5151 19.0008 26.2417L18.7895 25.7885ZM30.2826 20.4292L18.7895 25.7885L19.0008 26.2417L30.4939 20.8824L30.2826 20.4292ZM30.8719 21.1014L30.6149 20.5501L30.1617 20.7614L30.4188 21.3127L30.8719 21.1014ZM27.9187 29.2153C30.9748 27.7902 32.297 24.1575 30.8719 21.1014L30.4188 21.3127C31.7272 24.1186 30.5132 27.4538 27.7074 28.7622L27.9187 29.2153ZM19.9718 32.921L27.9187 29.2153L27.7074 28.7622L19.7605 32.4679L19.9718 32.921ZM11.8579 29.9678C13.283 33.0239 16.9157 34.3461 19.9718 32.921L19.7605 32.4679C16.9547 33.7763 13.6195 32.5623 12.3111 29.7565L11.8579 29.9678ZM11.4312 29.0528L11.8579 29.9678L12.3111 29.7565L11.8844 28.8415L11.4312 29.0528ZM9.34847 28.2947C10.1329 27.9289 11.0654 28.2683 11.4312 29.0528L11.8844 28.8415C11.4019 27.8067 10.1719 27.3591 9.13716 27.8416L9.34847 28.2947ZM8.5904 30.3775C8.2246 29.593 8.56399 28.6605 9.34847 28.2947L9.13716 27.8416C8.10241 28.3241 7.65474 29.5541 8.13725 30.5888L8.5904 30.3775ZM9.01707 31.2925L8.5904 30.3775L8.13725 30.5888L8.56392 31.5038L9.01707 31.2925ZM21.2965 35.7619C16.6715 37.9186 11.1738 35.9176 9.01707 31.2925L8.56392 31.5038C10.8373 36.3791 16.6325 38.4884 21.5079 36.215L21.2965 35.7619ZM29.2434 32.0562L21.2965 35.7619L21.5079 36.215L29.4547 32.5093L29.2434 32.0562ZM33.7128 19.7767C35.8695 24.4018 33.8685 29.8995 29.2434 32.0562L29.4547 32.5093C34.3301 30.2359 36.4393 24.4407 34.1659 19.5654L33.7128 19.7767ZM33.2008 18.6787L33.7128 19.7767L34.1659 19.5654L33.6539 18.4674L33.2008 18.6787ZM20.9213 14.2093C25.5464 12.0526 31.0441 14.0536 33.2008 18.6787L33.6539 18.4674C31.3805 13.5921 25.5853 11.4828 20.71 13.7562L20.9213 14.2093ZM9.42817 19.5687L20.9213 14.2093L20.71 13.7562L9.21686 19.1155L9.42817 19.5687ZM8.83886 18.8965L9.09593 19.4478L9.54909 19.2365L9.29202 18.6852L8.83886 18.8965ZM11.7921 10.7825C8.73598 12.2076 7.41377 15.8404 8.83886 18.8965L9.29202 18.6852C7.98363 15.8793 9.19756 12.5441 12.0034 11.2357L11.7921 10.7825ZM19.739 7.07686L11.7921 10.7825L12.0034 11.2357L19.9503 7.53001L19.739 7.07686ZM27.8529 10.0301C26.4278 6.97398 22.7951 5.65177 19.739 7.07686L19.9503 7.53001C22.7561 6.22163 26.0913 7.43555 27.3997 10.2414L27.8529 10.0301ZM28.2795 10.9451L27.8529 10.0301L27.3997 10.2414L27.8264 11.1564L28.2795 10.9451ZM30.3623 11.7032C29.5778 12.069 28.6454 11.7296 28.2795 10.9451L27.8264 11.1564C28.3089 12.1911 29.5389 12.6388 30.5736 12.1563L30.3623 11.7032ZM31.1204 9.62038C31.4862 10.4049 31.1468 11.3373 30.3623 11.7032L30.5736 12.1563C31.6084 11.6738 32.0561 10.4438 31.5735 9.40907L31.1204 9.62038ZM30.6937 8.70538L31.1204 9.62038L31.5735 9.40907L31.1469 8.49407L30.6937 8.70538ZM18.4142 4.23601C23.0393 2.07931 28.537 4.08031 30.6937 8.70538L31.1469 8.49407C28.8735 3.61873 23.0783 1.50946 18.2029 3.78286L18.4142 4.23601ZM10.4674 7.9417L18.4142 4.23601L18.2029 3.78286L10.2561 7.48855L10.4674 7.9417ZM11.4851 22.4869C13.2004 23.6341 15.457 23.884 17.4648 22.9477L17.2535 22.4945C15.4106 23.3539 13.3391 23.1254 11.763 22.0713L11.4851 22.4869ZM17.4648 22.9477L28.1924 17.9453L27.9811 17.4922L17.2535 22.4945L17.4648 22.9477ZM28.2257 17.5109C26.5104 16.3637 24.2538 16.1139 22.246 17.0502L22.4573 17.5033C24.3002 16.644 26.3717 16.8725 27.9478 17.9266L28.2257 17.5109ZM22.246 17.0502L11.5184 22.0526L11.7297 22.5057L22.4573 17.5033L22.246 17.0502Z" fill="url(#paint1_linear_3325_114381)"/>
<defs>
<linearGradient id="paint0_linear_3325_114381" x1="6.4006" y1="26.273" x2="33.3102" y2="13.7249" gradientUnits="userSpaceOnUse">
<stop stop-color="#FF512F"/>
<stop offset="1" stop-color="#F09819"/>
</linearGradient>
<linearGradient id="paint1_linear_3325_114381" x1="6.4006" y1="26.273" x2="33.3102" y2="13.7249" gradientUnits="userSpaceOnUse">
<stop stop-color="#FF512F"/>
<stop offset="1" stop-color="#F09819"/>
</linearGradient>
</defs>
</svg>
