<svg width="50" height="50" viewBox="0 0 50 50" fill="none" xmlns="http://www.w3.org/2000/svg">
<path d="M42.8883 44.1032L9.61049 4.42957C8.57147 3.22844 8.5393 3.19574 7.27293 4.26743C6.0718 5.27384 6.0391 5.24123 7.07817 6.50759L9.22093 9.07253H4.70791C3.0846 9.07253 2.27295 9.88418 2.27295 11.5075V15.5658H14.675L18.7659 20.4357H2.27306V39.1037C2.27306 40.727 3.08472 41.5387 4.70802 41.5387H36.4924L40.3885 46.1812C41.4275 47.4476 41.4275 47.415 42.6614 46.4086C43.9599 45.3695 43.9278 45.3695 42.8888 44.1036L42.8883 44.1032ZM45.2906 9.07223H17.7594L23.1814 15.5655H47.7258V11.5072C47.7258 9.88388 46.9142 9.07223 45.2909 9.07223H45.2906ZM44.9659 41.5383H45.258C46.6865 41.5383 47.7256 40.4993 47.7256 39.0708V20.4353H27.2719L44.9659 41.5383Z" fill="url(#paint0_linear_16_4357)"/>
<defs>
<linearGradient id="paint0_linear_16_4357" x1="2.27295" y1="25.3217" x2="47.7258" y2="25.3217" gradientUnits="userSpaceOnUse">
<stop stop-color="#FF512F"/>
<stop offset="1" stop-color="#F09819"/>
</linearGradient>
</defs>
</svg>
