<svg width="50" height="50" viewBox="0 0 50 50" fill="none" xmlns="http://www.w3.org/2000/svg">
<path d="M28.66 15.7716C28.4687 15.9527 25.3489 18.8586 21.4925 22.4499C22.107 23.2296 22.8272 24.0675 23.6787 24.955C24.7645 26.0818 25.7753 26.9942 26.6889 27.7328C30.4091 23.3983 33.4669 19.8375 33.6239 19.6563C34.041 19.1784 34.3752 19.324 34.5562 19.3776C37.6161 20.2798 41.0688 19.4849 42.6444 16.0627C44.0994 12.9009 42.9098 10.4628 41.9398 8.77852C41.7073 8.36947 41.3337 8.6149 41.236 8.82936C41.1331 9.04659 39.3862 12.8449 39.3862 12.8449C38.9194 13.8622 37.7763 14.6239 35.4894 13.4837C33.2028 12.3411 33.0626 10.9356 33.5312 9.92107C33.5312 9.92107 35.1628 6.37833 35.3811 5.90596C35.5976 5.43036 35.2666 5.31019 35.0678 5.33838C33.1953 5.59352 30.615 6.15879 29.1578 9.3253C28.321 11.1403 28.3716 12.9189 28.9883 14.4806C29.0793 14.7159 29.1845 15.2858 28.66 15.7716ZM14.7066 34.3015C13.7876 33.3429 12.886 32.3307 12.0127 31.2806C8.66216 34.4014 6.14313 36.7479 6.14313 36.7479C6.01356 36.87 5.88577 37.0035 5.76552 37.1385C4.00127 39.1962 4.17166 42.3498 6.14313 44.1856C8.11505 46.0229 11.1417 45.8444 12.9046 43.7914C12.9046 43.7914 15.1658 41.1564 18.1925 37.6289C16.9762 36.5584 15.8021 35.4418 14.7066 34.3015ZM8.28899 4.70702C4.73963 8.467 4.54616 13.2258 4.54616 13.2258C5.43317 17.8417 10.3834 26.2528 16.4087 32.5253C22.4314 38.8029 30.5045 43.9601 34.9391 44.8798C34.9391 44.8798 39.5086 44.6829 43.1152 40.9821L43.1183 40.9872L45.2447 38.7742C45.5251 38.4826 45.5251 37.9996 45.2447 37.7079L36.2282 28.3156C35.9451 28.024 35.484 28.024 35.2045 28.3156L33.079 30.5309L33.0844 30.5392L31.0863 33.1178C31.0863 33.1178 27.2977 32.2669 21.9779 26.7256C16.6563 21.1848 15.839 17.2386 15.839 17.2386L18.3163 15.1531L18.3225 15.1633L18.3939 15.0889L18.3948 15.0861L20.4497 12.9494C20.7306 12.6527 20.7306 12.1752 20.4497 11.8808L11.4337 2.49356C11.1528 2.20006 10.6931 2.20006 10.4131 2.49356L8.28677 4.70702H8.28899Z" fill="url(#paint0_linear_3679_86129)"/>
<defs>
<linearGradient id="paint0_linear_3679_86129" x1="4.5459" y1="23.8643" x2="45.455" y2="23.8643" gradientUnits="userSpaceOnUse">
<stop stop-color="#FF512F"/>
<stop offset="1" stop-color="#F09819"/>
</linearGradient>
</defs>
</svg>
