<svg width="410" height="298" fill="none" xmlns="http://www.w3.org/2000/svg"><path d="M366.744 263.02s-18.164-20.899-25.016-41.797c-6.852-20.898-3.597-18.5-3.597-18.5s9.25 20.309 16.273 30.114 19.569 24.187 19.569 24.187l-7.229 5.996Z" fill="url(#a)"/><path d="M370.362 205.937a1.053 1.053 0 0 0-1.274-.493 1.06 1.06 0 0 0-.563.462 1.06 1.06 0 0 0-.129.716c1.103 7.345 3.501 24.578 3.425 35.753-.123 14.519 0 20.131 0 20.131h7.537s-1.37-30.011-3.049-39.166c-1.192-6.399-3.706-13.525-5.947-17.403Z" fill="url(#b)"/><path d="M374.487 260.067a80.174 80.174 0 0 0 6.222-22.57c.623-5.345-.494-12.567-2.145-22.207a60.073 60.073 0 0 1-.952-10.682 1.8 1.8 0 0 1 2.525-1.639c.366.161.669.438.86.789.911 1.631 3.556 7.194 4.227 10.675 1.83 9.517 3.899 14.279 2.316 23.297-1.583 9.017-7.441 22.94-7.441 22.94l-5.612-.603Z" fill="url(#c)"/><path d="M381.291 260.69s19.946-42.858 21.33-49.217c1.384-6.358 6.077-21.008 6.632-20.178.555.829 1.371 8.571-2.213 17.417-3.583 8.846-18.938 53.28-18.938 53.28h-6.811" fill="url(#d)"/><path d="M372.301 258.771a4.758 4.758 0 0 1-.562-.383c-.349-.268-.89-.645-1.541-1.179a68.982 68.982 0 0 1-5.358-4.735 89.725 89.725 0 0 1-14.471-18.568 121.316 121.316 0 0 1-9.874-21.392c-1-2.843-1.734-5.173-2.206-6.797-.247-.801-.418-1.439-.535-1.863a3.574 3.574 0 0 1-.15-.686c.094.206.172.419.232.638l.61 1.843a190.539 190.539 0 0 0 2.33 6.742 129.811 129.811 0 0 0 9.963 21.282 93.496 93.496 0 0 0 14.327 18.589 76.748 76.748 0 0 0 5.248 4.796c.637.555 1.158.953 1.494 1.241.177.143.342.301.493.472ZM374.481 238.209a7.684 7.684 0 0 1-.179-1.254c-.095-.891-.219-2.055-.363-3.426a225.702 225.702 0 0 0-1.514-11.292 226.116 226.116 0 0 0-2.103-11.195c-.295-1.371-.542-2.508-.727-3.378a7.634 7.634 0 0 1-.226-1.254c.163.392.291.798.384 1.212.226.788.521 1.933.863 3.351.685 2.837 1.521 6.79 2.227 11.196s1.151 8.414 1.37 11.326c.124 1.46.199 2.638.233 3.426.057.427.068.859.035 1.288ZM379.153 203.436c.095.175.173.358.233.548.158.404.356.932.603 1.589.247.658.562 1.542.857 2.556.294 1.014.685 2.138.966 3.426l.493 2.014c.171.686.288 1.446.438 2.207.329 1.521.528 3.172.768 4.906a73.056 73.056 0 0 1-.809 22.652c-.363 1.713-.685 3.344-1.117 4.837-.205.747-.376 1.48-.596 2.165-.219.686-.431 1.371-.637 1.981-.384 1.267-.843 2.37-1.213 3.35-.37.98-.726 1.816-1.034 2.487l-.685 1.542a3.037 3.037 0 0 1-.274.528 3 3 0 0 1 .198-.562l.631-1.576c.287-.685.63-1.514.966-2.501.335-.987.788-2.097 1.151-3.364.192-.631.397-1.288.61-1.974.212-.685.37-1.418.568-2.165.418-1.493.685-3.117 1.076-4.796a75.845 75.845 0 0 0 .809-22.536c-.233-1.726-.418-3.371-.727-4.885-.15-.761-.26-1.501-.418-2.2-.157-.699-.315-1.37-.466-2.014-.267-1.288-.63-2.426-.904-3.426s-.541-1.864-.781-2.563c-.24-.698-.391-1.206-.521-1.617a3.08 3.08 0 0 1-.185-.609ZM409.021 192.158a.516.516 0 0 1 0 .192c0 .151-.055.336-.089.555-.089.487-.199 1.213-.391 2.138a78.087 78.087 0 0 1-2.055 7.715 191.68 191.68 0 0 1-3.968 11.141c-1.617 4.152-3.48 8.668-5.248 13.478-1.768 4.81-3.186 9.496-4.488 13.745-1.302 4.248-2.508 8.085-3.693 11.237a72.56 72.56 0 0 1-3.145 7.331c-.411.85-.781 1.48-1.014 1.919l-.281.486a.73.73 0 0 1-.11.165.749.749 0 0 1 .069-.185l.246-.508c.213-.452.555-1.096.939-1.952a82.413 82.413 0 0 0 3.015-7.359c1.13-3.166 2.329-6.982 3.604-11.244 1.274-4.262 2.652-8.962 4.454-13.779 1.802-4.817 3.658-9.339 5.289-13.478 1.631-4.138 3.022-7.893 4.043-11.093 1.021-3.2 1.72-5.831 2.151-7.66.22-.912.357-1.631.473-2.111.055-.219.096-.397.13-.548a.617.617 0 0 1 .069-.185Z" fill="#263238"/><path d="M347.532 182.689a1.718 1.718 0 0 0-2.798.642 1.716 1.716 0 0 0-.032 1.112 48.885 48.885 0 0 0 2.508 6.44c2.741 5.831 10.799 26.723 14.567 38.213 3.769 11.491 9.079 32.889 9.079 32.889l8.051-1.302s-7.366-35.184-14.526-47.894c-5.817-10.162-11.6-24.879-16.849-30.1Z" fill="url(#e)"/><path d="M363.977 236.277c.175.305.315.629.418.966.239.63.561 1.548.925 2.7.74 2.295 1.651 5.481 2.562 9.065a345.56 345.56 0 0 1 2.2 9.161c.246 1.11.445 2.055.609 2.788.089.339.144.685.165 1.035a4.91 4.91 0 0 1-.329-.994c-.192-.733-.439-1.658-.733-2.74l-2.323-9.154a337.34 337.34 0 0 0-2.439-9.086l-.795-2.741a5.161 5.161 0 0 1-.26-1ZM374.899 261.341a1.028 1.028 0 0 1-.041-.213c0-.171-.055-.377-.096-.637-.082-.555-.157-1.37-.329-2.439-.294-2.111-.822-5.16-1.685-8.873a128.542 128.542 0 0 0-3.769-12.861c-1.651-4.797-3.72-9.922-6.071-15.259-4.734-10.655-9.462-20.104-12.573-27.086-1.569-3.487-2.788-6.331-3.59-8.318-.411-.987-.685-1.761-.904-2.288-.09-.247-.165-.439-.227-.603a.787.787 0 0 1-.061-.206s.041.062.102.192c.062.13.158.349.268.582l.973 2.261c.849 1.96 2.11 4.797 3.713 8.223 3.173 6.954 7.949 16.376 12.69 27.044 2.35 5.344 4.413 10.511 6.05 15.3 1.467 4.244 2.7 8.565 3.693 12.943a90.459 90.459 0 0 1 1.556 8.908c.144 1.062.192 1.891.253 2.453 0 .26.035.466.048.637.011.08.011.16 0 .24ZM378.906 260.69a9.385 9.385 0 0 1-.274-1.37c-.158-.946-.37-2.193-.623-3.7-.555-3.118-1.371-7.414-2.618-12.087-1.247-4.673-2.569-8.846-3.611-11.833l-1.233-3.522a8.11 8.11 0 0 1-.425-1.316c.226.403.421.822.582 1.254.343.816.83 2.008 1.371 3.495a116.488 116.488 0 0 1 3.741 11.826 123.523 123.523 0 0 1 2.501 12.148c.233 1.569.404 2.844.493 3.728.067.456.099.916.096 1.377Z" fill="#263238"/><path d="M395.427 259.532h-31.422v38.281h31.422v-38.281Z" fill="#FF725E"/><path opacity=".3" d="M395.427 259.532h-31.422v38.281h31.422v-38.281Z" fill="url(#f)"/><path d="M385.403 259.532h-27.874v38.281h27.874v-38.281Z" fill="url(#g)"/><path fill-rule="evenodd" clip-rule="evenodd" d="M49.443 23.712c-14.087 6.569-20.182 23.313-13.613 37.4l1.518 3.256c6.57 14.087 23.314 20.181 37.4 13.613l34.083-15.893.762 1.633c4.053 8.692.293 19.023-8.399 23.076l-23.567 10.99c-8.691 4.053-19.023.292-23.076-8.4l-1.266-2.713a5.39 5.39 0 0 0-9.768 4.555l1.265 2.713c6.57 14.087 23.314 20.182 37.4 13.613l23.567-10.99c14.087-6.568 20.181-23.313 13.612-37.4l-1.518-3.255c-6.569-14.087-23.313-20.182-37.4-13.613L46.36 58.19l-.762-1.633c-4.053-8.692-.292-19.024 8.4-23.077l23.566-10.989c8.692-4.053 19.024-.292 23.077 8.4l1.265 2.713a5.39 5.39 0 0 0 9.768-4.555l-1.265-2.714c-6.569-14.086-23.313-20.18-37.4-13.612L49.443 23.712ZM53.184 66.9c4.88 3.265 11.299 3.975 17.01 1.312l31.813-14.835c-4.88-3.265-11.299-3.974-17.009-1.312L53.184 66.9Z" fill="url(#h)"/><path d="m35.83 61.112-.227.106.227-.106Zm13.613-37.4.105.227-.105-.227ZM37.348 64.368l.227-.105-.227.105Zm37.4 13.613-.105-.227.105.227Zm34.083-15.893.227-.106-.106-.227-.226.106.105.227Zm-7.637 24.71.105.226-.105-.227ZM77.627 97.786l-.105-.227.105.227ZM46.36 58.19l-.227.106.106.227.227-.106-.106-.227Zm-.762-1.633.227-.106-.227.106Zm8.4-23.077.105.227-.105-.227Zm23.566-10.989-.106-.226.106.226Zm23.077 8.4.226-.106-.226.105Zm1.265 2.713-.227.105.227-.105Zm7.162 2.607.105.226-.105-.226Zm1.341-9.876-.227.106.227-.106Zm-37.4-13.612-.106-.227.106.227ZM53.184 66.9l-.105-.226-.403.188.37.246.138-.208Zm17.01 1.312.105.227-.106-.227Zm31.813-14.835.106.227.402-.188-.369-.246-.139.207Zm-65.95 7.63c-6.51-13.962-.47-30.558 13.491-37.068l-.211-.454c-14.212 6.628-20.36 23.52-13.734 37.733l.454-.212Zm1.518 3.256-1.518-3.257-.454.212 1.519 3.256.453-.212Zm37.068 13.491c-13.962 6.51-30.558.47-37.068-13.492l-.453.212c6.627 14.212 23.52 20.36 37.732 13.733l-.211-.453Zm34.083-15.893L74.643 77.754l.211.453 34.083-15.893-.211-.453Zm1.094 1.754-.762-1.633-.453.211.761 1.634.454-.212Zm-8.521 23.409c8.817-4.111 12.632-14.592 8.521-23.409l-.454.212c3.995 8.566.289 18.75-8.278 22.744l.211.453Zm-23.566 10.99 23.566-10.99-.211-.453L77.522 97.56l.211.453Zm-23.409-8.521c4.112 8.817 14.592 12.632 23.409 8.52l-.211-.453c-8.567 3.995-18.75.288-22.745-8.278l-.453.211ZM53.06 86.78l1.265 2.713.453-.211-1.265-2.714-.453.212Zm-6.83-2.486a5.14 5.14 0 0 1 6.83 2.486l.453-.212a5.64 5.64 0 0 0-7.494-2.727l.211.453Zm-2.485 6.83a5.139 5.139 0 0 1 2.485-6.83l-.21-.453a5.64 5.64 0 0 0-2.728 7.494l.453-.212Zm1.265 2.713-1.265-2.714-.453.212 1.265 2.713.453-.211Zm37.068 13.491c-13.962 6.511-30.558.47-37.068-13.491l-.453.211c6.627 14.212 23.52 20.361 37.732 13.734l-.211-.454Zm23.566-10.989-23.566 10.989.211.454 23.567-10.99-.212-.453Zm13.492-37.067c6.51 13.961.47 30.557-13.492 37.067l.212.453c14.211-6.627 20.36-23.52 13.733-37.732l-.453.212Zm-1.519-3.257 1.519 3.257.453-.212-1.518-3.256-.454.211ZM80.549 42.524c13.961-6.51 30.557-.47 37.067 13.491l.454-.211c-6.628-14.212-23.52-20.36-37.733-13.733l.212.453ZM46.466 58.417l34.083-15.893-.212-.453-34.083 15.893.212.453Zm-1.094-1.754.761 1.633.454-.211-.762-1.634-.453.212Zm8.52-23.41c-8.817 4.112-12.632 14.593-8.52 23.41l.453-.212c-3.995-8.566-.288-18.75 8.278-22.744l-.211-.453Zm23.566-10.988L53.892 33.254l.211.453 23.567-10.99-.212-.452Zm23.409 8.52c-4.111-8.817-14.592-12.632-23.409-8.52l.212.453c8.566-3.995 18.75-.289 22.744 8.278l.453-.211Zm1.266 2.713-1.266-2.713-.453.211 1.265 2.713.454-.21Zm6.829 2.486a5.139 5.139 0 0 1-6.829-2.486l-.454.212a5.64 5.64 0 0 0 7.494 2.727l-.211-.453Zm2.486-6.83a5.14 5.14 0 0 1-2.486 6.83l.211.453a5.639 5.639 0 0 0 2.728-7.494l-.453.211Zm-1.266-2.713 1.266 2.713.453-.21-1.265-2.714-.454.211ZM73.115 12.949c13.961-6.51 30.557-.47 37.067 13.492l.454-.211c-6.628-14.212-23.52-20.36-37.733-13.734l.212.453ZM49.548 23.94l23.567-10.99-.212-.453-23.566 10.99.211.453Zm3.497 43.17c4.95 3.31 11.461 4.031 17.254 1.33l-.211-.453c-5.628 2.624-11.954 1.925-16.765-1.293l-.278.415Zm17.254 1.33 31.814-14.835-.212-.453-31.813 14.835.211.453Zm31.847-15.27c-4.95-3.31-11.46-4.031-17.254-1.33l.212.453c5.627-2.624 11.953-1.925 16.764 1.293l.278-.416Zm-17.254-1.33L53.08 66.674l.211.453 31.814-14.835-.212-.453Z" fill="url(#i)"/><path d="M319.124 82.446H20.438c-5.513 0-9.983 4.47-9.983 9.983v190.756c0 5.513 4.47 9.983 9.983 9.983h298.686c5.514 0 9.984-4.47 9.984-9.983V92.429c0-5.514-4.47-9.983-9.984-9.983Z" fill="url(#j)"/><path d="M.027 279.554h345.231v6.242a12.198 12.198 0 0 1-12.196 12.196H12.196A12.197 12.197 0 0 1 0 285.796v-6.242h.027Z" fill="url(#k)"/><path d="m138.373 277.58 4.282 6.818h60.283l3.974-6.818h-68.539Z" fill="#507689"/><path d="M326.367 277.58c0 .117-70.725.206-157.942.206-87.218 0-157.97-.089-157.97-.206 0-.116 70.711-.205 157.97-.205 87.258 0 157.942.089 157.942.205Z" fill="#263238"/><path d="M316.494 94.56H21.823a2.24 2.24 0 0 0-2.241 2.24V269.77a2.24 2.24 0 0 0 2.24 2.24h294.672a2.24 2.24 0 0 0 2.24-2.24V96.801a2.24 2.24 0 0 0-2.24-2.24Z" fill="#EBEBEB"/><path d="M318.413 272.27H19.261l.322-164.445h298.83V272.27Z" fill="#fff"/><path d="M44.12 101.419a2.393 2.393 0 0 1-4.075 1.718 2.386 2.386 0 0 1-.528-2.608 2.392 2.392 0 0 1 4.602.89ZM29.64 101.419a2.39 2.39 0 1 1-2.37-2.371 2.385 2.385 0 0 1 2.37 2.371ZM36.588 101.419a2.39 2.39 0 0 1-2.858 2.345 2.392 2.392 0 1 1 2.858-2.345ZM318.735 256.387H19.261v15.882h299.474v-15.882Z" fill="#263238"/><path d="M30.58 266.165v.507h-2.385v-.398l1.28-1.219c.316-.302.37-.493.37-.685 0-.295-.205-.466-.602-.466a.906.906 0 0 0-.754.335l-.425-.322a1.514 1.514 0 0 1 1.234-.534c.685 0 1.158.349 1.158.925a1.29 1.29 0 0 1-.541 1.021l-.864.822 1.528.014ZM30.902 264.561a.381.381 0 0 1 .238-.355.377.377 0 0 1 .223-.02.38.38 0 0 1 .275.527.388.388 0 0 1-.63.121.358.358 0 0 1-.106-.273Zm0 1.761a.381.381 0 0 1 .221-.4.379.379 0 0 1 .448.097.378.378 0 0 1 .091.303.384.384 0 1 1-.76 0ZM33.163 263.438v3.234h-.596v-2.741h-.685v-.507l1.281.014ZM36.691 265.938h-.575v.733h-.583v-.733H33.76v-.39l1.596-2.056H36l-1.507 1.994h1.062v-.651h.562v.651h.575v.452ZM287.436 264.644H41.975v1.116h245.461v-1.116Z" fill="#fff"/><path d="M118.496 263.444H41.789v2.988h76.707v-2.988Z" fill="url(#l)"/><path d="M120.976 265.205a3.736 3.736 0 0 1-2.305 3.45 3.722 3.722 0 0 1-2.157.212 3.725 3.725 0 0 1-1.912-1.022 3.725 3.725 0 0 1-1.022-1.912 3.737 3.737 0 0 1 3.662-4.462c.99 0 1.94.393 2.641 1.093a3.738 3.738 0 0 1 1.093 2.641Z" fill="url(#m)"/><path d="M293.616 265.171a1.074 1.074 0 0 1-.739 1.012 1.074 1.074 0 0 1-.44.05c-.883 0-1.37-.569-1.37-1.61a1.527 1.527 0 0 1 .396-1.229 1.527 1.527 0 0 1 1.194-.491c.297-.008.59.066.849.212l-.226.452a1.072 1.072 0 0 0-.61-.157c-.609 0-.993.377-.993 1.11a1.094 1.094 0 0 1 .863-.336 1.017 1.017 0 0 1 .75.263 1.013 1.013 0 0 1 .326.724Zm-.582 0c0-.336-.254-.548-.645-.548a.589.589 0 0 0-.685.555c0 .301.24.541.685.541a.55.55 0 0 0 .585-.297.561.561 0 0 0 .06-.224v-.027ZM293.911 264.061a.38.38 0 0 1 .38-.435.38.38 0 0 1 .289.132.381.381 0 0 1 .091.303.384.384 0 0 1-.748.162.384.384 0 0 1-.012-.162Zm0 1.761a.387.387 0 0 1 .012-.162.386.386 0 0 1 .657-.141.387.387 0 0 1 .091.303.386.386 0 0 1-.38.435.389.389 0 0 1-.368-.273.385.385 0 0 1-.012-.162ZM295.055 264.555c0-1.062.582-1.665 1.37-1.665.788 0 1.37.603 1.37 1.665s-.582 1.665-1.37 1.665c-.788 0-1.37-.603-1.37-1.665Zm2.096 0c0-.781-.301-1.138-.747-1.138-.445 0-.746.357-.746 1.138 0 .781.308 1.144.746 1.144.439 0 .747-.363.747-1.144ZM298.159 264.555c0-1.062.583-1.665 1.371-1.665s1.37.603 1.37 1.665-.582 1.665-1.37 1.665c-.788 0-1.371-.603-1.371-1.665Zm2.104 0c0-.781-.309-1.138-.754-1.138s-.74.357-.74 1.138c0 .781.301 1.144.74 1.144s.754-.363.754-1.144ZM306.092 264.356h-1.123v-3.228h3.227v1.117h-2.104v2.111ZM308.196 268.563h-3.227v-3.221h1.117v2.104h2.11v1.117ZM313.335 268.563h-3.221v-1.117h2.097v-2.111h1.124v3.228ZM313.336 264.349h-1.117v-2.104h-2.111v-1.117h3.228v3.221Z" fill="#fff"/><path d="M60.29 117.603H42.653l-8.811 15.272 8.811 15.266H60.29l8.812-15.266-8.812-15.272Z" fill="#EBEBEB"/><path d="M44.092 135.863a15.55 15.55 0 0 1-2.152-2.782 5.324 5.324 0 0 1-.733-3.385c.185-.66.334-1.33.445-2.007.069-.946-.329-1.932 0-2.816.521-1.371 2.378-1.597 3.508-2.549.878-.747 1.31-1.953 2.275-2.576a4.28 4.28 0 0 1 2.926-.398c.981.226 1.989.314 2.994.26.695-.148 1.38-.333 2.056-.555a2.818 2.818 0 0 1 2.055.144 1.373 1.373 0 0 1 .562 1.83c1.158-.535 2.625.37 2.94 1.596a3.426 3.426 0 0 1-1.295 3.378 7.533 7.533 0 0 1-3.495 1.425c-3.542.686-7.38.295-10.428-1.623" fill="#263238"/><path d="M60.44 139.631c-.116-2.185-.726-6.666-1.33-10.716a8.452 8.452 0 0 0-8.907-7.194h-.438c-4.687.589-6.804 4.899-6.085 9.592l1.37 16.822h11.443s-.274-2.954-.274-2.981c0-.027 4.468-1 4.221-5.523Z" fill="#FFBE9D"/><path d="M56.212 145.099a10.596 10.596 0 0 1-6.009-1.281s1.617 3.159 6.098 2.453l-.089-1.172Z" fill="#EB996E"/><path d="M57.651 132.794a.637.637 0 0 1-.576.685.606.606 0 0 1-.454-.124.62.62 0 0 1-.23-.411.646.646 0 0 1 1.03-.561.621.621 0 0 1 .23.411ZM58.289 131.19c-.076.089-.59-.24-1.288-.192-.7.048-1.179.432-1.261.35-.082-.082 0-.192.246-.37a1.793 1.793 0 0 1 1-.384 1.68 1.68 0 0 1 1.029.261c.226.15.308.294.274.335ZM51.087 133.266a.688.688 0 0 1-.576.685.622.622 0 0 1-.685-.541.688.688 0 0 1 .576-.685.621.621 0 0 1 .685.541ZM51.464 131.779c-.076.089-.59-.24-1.289-.192-.698.048-1.178.425-1.26.35-.083-.076 0-.192.246-.37a1.783 1.783 0 0 1 2.056-.13c.199.15.28.301.247.342ZM54.328 136.733a4.533 4.533 0 0 1 1.117-.281c.178 0 .342-.075.363-.199a.903.903 0 0 0-.15-.513l-.618-1.316a23.731 23.731 0 0 1-1.418-3.426 23.114 23.114 0 0 1 1.693 3.337c.205.459.404.904.596 1.322.12.207.167.448.137.685a.463.463 0 0 1-.274.281 1.35 1.35 0 0 1-.302.062 4.476 4.476 0 0 1-1.144.048ZM51.458 129.039c-.055.191-.754.15-1.563.308-.808.157-1.452.418-1.576.253-.123-.164.055-.26.309-.466.337-.25.73-.417 1.144-.486.412-.081.838-.06 1.24.062.308.102.473.239.446.329ZM57.898 129.196c-.116.164-.603.034-1.178.062-.576.027-1.055.178-1.179 0-.123-.178 0-.24.213-.405.27-.203.6-.316.938-.322.339-.015.673.074.96.254.212.171.294.329.246.411Z" fill="#263238"/><path d="M44.263 134.678c-.083 0-3.173-.685-2.864 2.377.308 3.063 3.652 2.056 3.645 1.987-.007-.068-.781-4.364-.781-4.364Z" fill="#FFBE9D"/><path d="M43.674 138.001s-.048.041-.13.089a.542.542 0 0 1-.404.048 1.329 1.329 0 0 1-.733-1.131c-.036-.262-.01-.53.075-.781a.613.613 0 0 1 .363-.459.28.28 0 0 1 .329.117c.055.082.041.15.055.15.014 0 .062-.055 0-.185a.35.35 0 0 0-.286-.234.407.407 0 0 0-.16.008.77.77 0 0 0-.514.535c-.102.28-.135.581-.095.877a1.372 1.372 0 0 0 .91 1.254.59.59 0 0 0 .487-.131c.144-.054.144-.157.103-.157Z" fill="#EB996E"/><path d="M58.885 124.687c-.213 1.227-2.707 2.358-4.797 2.296-1.905-.055-2.85-1.001-4.227-1.672-.877-.425-.877-.425-2.056-.233-.96.158-1.46 1.288-1.994 2.104 1.028 2.24.61 4.844.171 7.269a1.208 1.208 0 0 1-.308.734.987.987 0 0 1-1.254-.185 3.856 3.856 0 0 1-.973-1.96 12.808 12.808 0 0 1-.301-5.023 8.654 8.654 0 0 1 2.055-4.529 8.221 8.221 0 0 1 5.612-2.555 10.098 10.098 0 0 1 5.982 1.692 6.02 6.02 0 0 1 2.055 2.056" fill="#263238"/><path d="m54.787 138.322-1.576-.733a.526.526 0 0 0-.287-.068.43.43 0 0 0-.268.185 1.45 1.45 0 0 0-.178 1.603 1.226 1.226 0 0 0 1.48.541 1.678 1.678 0 0 0 .87-1.48l-.04-.048Z" fill="#EB996E"/><path d="M53.992 139.967s-.329.254-.925.082a1.464 1.464 0 0 1-.815-.685 1.5 1.5 0 0 1-.103-1.288c.084-.218.215-.415.384-.576.081-.075.171-.142.267-.198a.434.434 0 0 1 .411 0c.363.198.603.37.843.52.459.309.733.521.685.562-.048.041-.343-.089-.836-.342l-.843-.439h-.123a1.26 1.26 0 0 0-.425 1.61c.134.259.351.464.617.583.514.219.863.109.863.171ZM53.506 132.869s0-.281-.164-.768a3.22 3.22 0 0 0-1.185-1.692 3.072 3.072 0 0 0-4.445.852 3.068 3.068 0 0 0 2.88 4.669 3.063 3.063 0 0 0 1.565-.595 3.217 3.217 0 0 0 1.185-1.692c.137-.486.13-.774.164-.774.035 0 0 .075 0 .212.005.201-.016.401-.061.596a3.177 3.177 0 0 1-1.158 1.857 3.352 3.352 0 0 1-4.808-.714 3.378 3.378 0 0 1 1.628-5.13 3.354 3.354 0 0 1 3.18.52 3.183 3.183 0 0 1 1.158 1.857c.045.195.066.396.061.596.02.137.014.206 0 .206ZM61.202 132.567c-.035 0 0-.274-.165-.747a3.116 3.116 0 0 0-1.151-1.644 2.982 2.982 0 0 0-3.124-.271 2.99 2.99 0 0 0-1.645 2.669 2.986 2.986 0 0 0 4.769 2.398c.554-.406.96-.985 1.151-1.645.137-.472.13-.753.165-.753.034 0 0 .068 0 .205.003.196-.015.391-.055.583a3.126 3.126 0 0 1-1.13 1.809 3.28 3.28 0 0 1-3.105.507 3.298 3.298 0 0 1 0-6.208 3.268 3.268 0 0 1 3.104.507 3.138 3.138 0 0 1 1.13 1.816c.041.191.06.386.056.582.02.123.013.192 0 .192Z" fill="#263238"/><path d="M54.924 131.861c-.068.062-.377-.137-.788-.123-.41.014-.685.212-.78.151-.097-.062.19-.494.773-.507.583-.014.884.424.795.479ZM47.257 132.417c.062.075-.541.623-1.336 1.219-.45.41-.976.727-1.548.932-.062-.075.54-.624 1.336-1.22a4.528 4.528 0 0 1 1.548-.931ZM110.863 132.718c0 .096-7.928.178-17.706.178-9.777 0-17.705-.082-17.705-.178 0-.096 7.928-.178 17.705-.178 9.778 0 17.706.082 17.706.178ZM94.481 136.425c0 .096-4.207.178-9.4.178-5.194 0-9.401-.082-9.401-.178 0-.096 4.207-.185 9.4-.185 5.194 0 9.401.082 9.401.185Z" fill="#263238"/><path d="M251.002 135.77a33.78 33.78 0 0 1 15.925 20.592c4.144 14.826 16.816 53.436 16.816 53.436s7.242 8.52 8.014 14.826c.772 6.307-.772 21.57-3.106 24.419a6.55 6.55 0 0 1-5.646 2.377l-30.484-2.892-12.012-80.377 10.493-32.381Z" fill="#507689"/><path d="M150.204 134.372s-21.802 6.864-27.233 12.784l17.846 83.02-.317 26.203h103.371c0-1.296.927-86.984.927-86.984l6.203-33.625-36.714-6.461-7.241-5.697-40.867 2.077-6.211 6.203-9.764 2.48Z" fill="#507689"/><path opacity=".3" d="M158.517 206.401c-.318-.704-.781-1.467-1.536-1.622-1.244-.257-2.077 1.21-2.497 2.411a109.473 109.473 0 0 1-13.573 26.504l-.266 12.75c6.006-5.071 11.96-10.502 15.804-17.375 3.844-6.872 5.277-15.495 2.068-22.668Z" fill="#000"/><path d="M122.971 147.156s-7.182 9.79-10.159 16.182c-2.977 6.392-27.696 60.06-29.172 65.611-1.476 5.551-5.32 23.003 5.963 27.053h23.226l23.303-47.13 1.193-54.697-14.354-7.019Z" fill="#507689"/><path d="M114.296 221.956s-.514-.455-1.587-1.064a18.016 18.016 0 0 0-4.873-1.768 23.631 23.631 0 0 0-3.552-.498 14.186 14.186 0 0 0-4.11.292 15.159 15.159 0 0 0-7.817 4.908 21.312 21.312 0 0 0-4.427 8.228 41.054 41.054 0 0 0-1.39 7.593c-.223 2.197-.3 3.99-.377 5.217 0 .583-.069 1.055-.086 1.424a1.8 1.8 0 0 1-.069.498 3.728 3.728 0 0 1 0-.498v-1.424c0-1.244.052-3.029.232-5.242a39.61 39.61 0 0 1 1.313-7.722 21.353 21.353 0 0 1 4.487-8.409 15.442 15.442 0 0 1 8.065-5.01 14.014 14.014 0 0 1 4.187-.232c1.212.089 2.414.275 3.595.558 1.72.382 3.37 1.031 4.891 1.922.409.253.797.54 1.158.858.133.109.254.233.36.369ZM103.287 212.57c.254-.074.516-.115.781-.12a13.817 13.817 0 0 1 2.153 0c1.068.062 2.127.22 3.166.471a18.888 18.888 0 0 1 7.045 3.364c.85.647 1.64 1.371 2.359 2.162.488.536.932 1.11 1.33 1.716.162.21.295.441.395.686-.069.052-.704-.858-1.957-2.162a20.974 20.974 0 0 0-2.376-2.05 21.46 21.46 0 0 0-3.295-1.974 22.529 22.529 0 0 0-3.603-1.321 20.627 20.627 0 0 0-3.089-.549c-1.785-.232-2.909-.138-2.909-.223ZM124.275 209.987a4.769 4.769 0 0 1-1.073-.077 61.702 61.702 0 0 0-2.908-.283 49.708 49.708 0 0 0-18.988 2.274 52.045 52.045 0 0 0-2.763.961 5.39 5.39 0 0 1-1.02.334 4.28 4.28 0 0 1 .952-.497c.626-.301 1.561-.678 2.728-1.099a43.832 43.832 0 0 1 19.125-2.282c1.227.129 2.222.275 2.9.421.356.049.707.132 1.047.248ZM190.418 164.127a1.226 1.226 0 0 1-.24-.283l-.635-.858-2.334-3.227a7353.287 7353.287 0 0 0-8.082-11.411l.36-.051a4314.53 4314.53 0 0 0-4.084 12.012l-.095.266-.24-.155-.48-.309a24.663 24.663 0 0 1-5.054-4.29 30.044 30.044 0 0 1-3.612-4.993 42.124 42.124 0 0 1-3.973-9.584 67 67 0 0 1-1.501-6.864c-.137-.772-.24-1.399-.326-1.871a2.933 2.933 0 0 0-.112-.471c0-.103-.06-.155-.051-.163.008-.009.352.858.661 2.479a67.341 67.341 0 0 0 1.638 6.778 42.401 42.401 0 0 0 4.024 9.49 30.691 30.691 0 0 0 3.578 4.908 24.386 24.386 0 0 0 4.959 4.187l.472.308-.326.121c1.467-4.29 2.857-8.314 4.127-12.012l.129-.378.232.326c3.226 4.676 6.006 8.657 7.953 11.506.935 1.39 1.716 2.497 2.24 3.303l.574.858c.079.119.145.245.198.378Z" fill="#263238"/><path opacity=".3" d="M217.318 203.758a47.039 47.039 0 0 0 6.006 27.851c4.805 8.357 11.857 15.813 20.635 19.811.283-8.52-.129-18.558.154-27.078l-26.795-20.584Z" fill="#000"/><path d="M216.347 192.544s-3.758 1.038-.944 8.734c2.814 7.697 3.758 7.225 5.637 14.415 1.879 7.19 4.067 13.728 7.345 17.829 3.277 4.101 15.486 12.355 15.486 12.355l10.948-10.296s-1.801-7.722-1.372-12.921c.429-5.2 1.527-18.018 1.372-20.24-.154-2.223-2.505-7.508-2.505-7.508v-3.638l-5.628-17.314s-3.132-1.407-4.222 3.595l-1.879-5.311s-2.968-.472-3.749 5.628c-.781 6.101.626 14.543.626 14.543l-1.57 10.631-2.342 7.199-2.034.308s-3.063-.858-4.736-6.598c-1.673-5.74-6.212-12.664-10.433-11.411Z" fill="#FFBE9D"/><path d="M251.181 219.777s0-.128-.051-.386c-.052-.257-.052-.678-.078-1.15-.06-1.046-.137-2.496-.231-4.29-.172-3.732-.404-8.931-.678-14.997l.043.128a2.21 2.21 0 0 0-2.214-.583 3.245 3.245 0 0 0-2.025 1.493c-.961 1.536-1.012 3.543-1.312 5.474-.593 4.384-1.159 8.58-1.674 12.364-.257 1.904-.532 3.706-.9 5.379a34.067 34.067 0 0 1-1.365 4.565c-.48 1.364-.909 2.574-1.175 3.715-.237.94-.356 1.905-.352 2.874.03.834.175 1.66.429 2.454a3.737 3.737 0 0 1-.257-.6 6.45 6.45 0 0 1-.344-1.845c-.04-.995.055-1.991.284-2.96.3-1.274.676-2.529 1.124-3.758.53-1.483.96-2.999 1.287-4.539.351-1.656.617-3.432.858-5.354.497-3.81 1.055-7.979 1.638-12.372.138-.97.241-1.939.412-2.9a7.655 7.655 0 0 1 .961-2.755 3.694 3.694 0 0 1 2.308-1.664 2.58 2.58 0 0 1 1.421-.018c.465.128.886.384 1.213.739l.043.06v.068c.215 6.066.395 11.266.523 15.007 0 1.81.078 3.26.112 4.29v1.149c.015.137.015.275 0 .412Z" fill="#EB996E"/><path d="M245.176 200.043a4.273 4.273 0 0 1-.463-.978 25.97 25.97 0 0 1-.918-2.797 28.684 28.684 0 0 1-.781-4.29 12.514 12.514 0 0 1-.052-2.574c.08-.959.405-1.881.944-2.677a3.84 3.84 0 0 1 2.008-1.51l.163-.043.086.146a433.988 433.988 0 0 1 3.929 7.044l1.124 2.102c.154.246.275.512.361.789a3.905 3.905 0 0 1-.498-.712l-1.236-2.033a431.353 431.353 0 0 1-4.058-6.967l.249.103c-.718.24-1.336.71-1.759 1.338a5.142 5.142 0 0 0-.858 2.471 12.369 12.369 0 0 0 0 2.523 32.23 32.23 0 0 0 .678 4.29c.274 1.201.575 2.162.772 2.823.134.306.238.625.309.952Z" fill="#EB996E"/><path d="M242.55 201.45a4.035 4.035 0 0 1-.103-1.004c0-.738-.068-1.647-.111-2.72a517.747 517.747 0 0 1-.189-8.983c-.128-3-.082-6.005.137-9 .108-.909.303-1.806.584-2.677.083-.329.219-.642.403-.927a25.089 25.089 0 0 0-.678 3.638c-.214 2.274 0 5.448 0 8.958 0 3.509.069 6.683.06 8.983v2.728c.003.338-.032.674-.103 1.004ZM233.291 230.287c-.06-.051.626-.858 1.467-2.325.493-.856.92-1.748 1.278-2.668.421-1.132.749-2.298.978-3.484a21.64 21.64 0 0 0 .301-3.603 19.875 19.875 0 0 0-.258-2.943c-.283-1.673-.643-2.668-.566-2.694.135.21.239.438.309.678.242.635.432 1.289.566 1.956.21.985.331 1.987.361 2.994a17.719 17.719 0 0 1-1.313 7.25 16.814 16.814 0 0 1-1.381 2.677 12.428 12.428 0 0 1-1.21 1.631c-.318.36-.506.549-.532.531Z" fill="#EB996E"/><path d="m252.511 224.925 9.498 3.295s9.078-4.694 15.333 0c6.254 4.693 11.685 17.056 9.969 22.059 0 0-4.289 5.336-7.601 6.117-3.312.781-16.053-2.316-21.364-3.432-5.311-1.115-14.475-7.07-14.475-7.07l8.64-20.969Z" fill="#FFBE9D"/><path d="M253.678 238.902a3.872 3.872 0 0 1-.103-.858c0-.644-.077-1.407-.128-2.3a195.396 195.396 0 0 1-.275-7.584c-.043-2.969.043-5.655.215-7.594.085-.969.197-1.716.291-2.291.021-.294.088-.583.198-.858.068 0-.078 1.202-.172 3.141-.094 1.939-.129 4.607-.086 7.567.043 2.96.103 5.517.137 7.576v2.3c.023.302-.003.607-.077.901Z" fill="#EB996E"/><path d="M285.004 227.825a30.342 30.342 0 0 0-3.157-2.849 17.392 17.392 0 0 0-19.254-1.055 30.932 30.932 0 0 0-3.432 2.48 5.09 5.09 0 0 1 .781-.858 15.683 15.683 0 0 1 2.514-1.905 17.08 17.08 0 0 1 19.614 1.09 15.066 15.066 0 0 1 2.282 2.17c.253.283.472.594.652.927Z" fill="#263238"/><path d="M283.784 219.906a18.984 18.984 0 0 0-3.955-2.18 17.451 17.451 0 0 0-10.691-.317 25.044 25.044 0 0 0-5.534 2.299 26.307 26.307 0 0 0-4.007 2.832c-1.064.909-1.879 1.716-2.436 2.256-.274.313-.576.6-.901.858.223-.346.482-.668.772-.961a29.712 29.712 0 0 1 2.359-2.376 24.611 24.611 0 0 1 4.007-2.943 23.788 23.788 0 0 1 5.62-2.377 17.094 17.094 0 0 1 10.931.455c1.044.417 2.028.971 2.926 1.647.317.232.532.455.695.592.163.138.214.206.214.215ZM283.863 213.041c0 .086-1.716-.42-4.445-.789a34.862 34.862 0 0 0-4.865-.309c-1.993.022-3.981.2-5.946.532-1.961.36-3.891.871-5.774 1.527a34.322 34.322 0 0 0-4.47 1.956c-2.463 1.287-3.853 2.334-3.904 2.257.291-.283.61-.536.952-.755.374-.294.767-.564 1.176-.807.472-.3 1.004-.652 1.621-.978a33.066 33.066 0 0 1 4.488-2.059 35.364 35.364 0 0 1 5.834-1.579 36.2 36.2 0 0 1 6.006-.506c1.647.008 3.29.143 4.916.403.695.086 1.313.249 1.854.361.469.095.933.215 1.39.36.399.095.79.224 1.167.386ZM211.078 129.027c.356.799.576 1.651.652 2.522a24.284 24.284 0 0 1-.36 7.371 42.291 42.291 0 0 1-1.227 5.148 38.976 38.976 0 0 1-2.488 5.705c-2.051 3.947-4.625 8.246-7.611 12.87l-.343.541v-10.168l.335.163-8.057 6.427.069-.103a84.309 84.309 0 0 0-3.501 19.262c-.789 10.442-.154 20.429.335 29.489.489 9.061.704 17.238.987 24.102.283 6.863.514 12.406.72 16.241.12 1.905.206 3.381.266 4.411 0 .489.06.858.078 1.149.017.292 0 .395 0 .395s0-.129-.061-.386c-.06-.258-.068-.661-.12-1.15a175.368 175.368 0 0 1-.343-4.41c-.257-3.827-.558-9.378-.858-16.242-.3-6.864-.669-15.023-1.081-24.092-.412-9.07-1.158-19.065-.369-29.541a83.924 83.924 0 0 1 3.595-19.365v-.06h.052l8.031-6.444.334-.275v9.953l-.352-.111c5.895-9.138 10.691-17.083 11.429-23.509.51-2.402.666-4.864.463-7.311a12.967 12.967 0 0 0-.352-1.904c-.171-.464-.223-.678-.223-.678Z" fill="#263238"/><path d="M195.686 239.699h-.274a2.412 2.412 0 1 0 1.832 4.138 2.412 2.412 0 0 0-1.523-4.138h-.035ZM195.686 206.632h-.275a2.405 2.405 0 0 0-2.247 2.475 2.402 2.402 0 1 0 2.556-2.475h-.034ZM195.411 177.049a2.422 2.422 0 0 0 1.979-4.011 2.422 2.422 0 0 0-1.662-.82h-.317a2.419 2.419 0 1 0 0 4.839v-.008Z" fill="#fff"/><path d="M158.321 90.28c-3.003-3.338-6.006-6.702-8.228-10.614-2.222-3.913-3.501-8.486-2.78-12.87.429-2.574 1.527-5.062 1.716-7.722.24-3.604-1.27-7.37 0-10.742 1.99-5.285 9.103-6.1 13.41-9.747 3.355-2.84 4.985-7.448 8.675-9.833 3.226-2.093 7.37-2.042 11.154-1.51 3.783.532 7.627 1.502 11.437.987 2.711-.36 5.268-1.459 7.919-2.12 2.651-.66 5.629-.857 7.988.55 2.36 1.407 3.698 4.727 2.145 6.984 4.41-2.034 10.013 1.407 11.223 6.109 1.209 4.702-1.21 9.79-4.951 12.87-3.741 3.08-8.58 4.547-13.342 5.448-13.505 2.574-28.168 1.107-39.811-6.203" fill="#263238"/><path d="M205.828 135.694c-.661-5.148-1.202-9.378-1.236-9.91 0 0 17.091-3.844 16.148-21.124-.455-8.357-2.789-25.482-5.088-40.952a32.227 32.227 0 0 0-34.046-27.456l-1.716.103c-17.889 2.256-25.98 18.713-23.234 36.542l9.661 59.777s4.118 13.221 12.93 15.512l11.154 15.89 1.836-6.864 8.288-7.224a32.7 32.7 0 0 0 4.093-6.083 13.356 13.356 0 0 0 1.21-8.211Z" fill="#FFBE9D"/><path d="M204.6 125.543s-10.854 1.613-22.943-4.899c0 0 6.161 12.072 23.286 9.369l-.343-4.47Z" fill="#EB996E"/><path d="M210.101 78.567a2.481 2.481 0 0 1-2.214 2.651 2.356 2.356 0 0 1-2.393-1.168 2.36 2.36 0 0 1-.292-.89 2.461 2.461 0 0 1 2.222-2.67 2.36 2.36 0 0 1 2.677 2.077ZM212.512 72.442c-.283.343-2.248-.919-4.899-.73-2.651.189-4.479 1.639-4.822 1.347-.146-.128.129-.729.936-1.407a6.748 6.748 0 0 1 3.826-1.467 6.47 6.47 0 0 1 3.93.987c.858.549 1.167 1.115 1.029 1.27ZM185.029 80.36a2.463 2.463 0 0 1-2.213 2.643 2.35 2.35 0 0 1-2.686-2.05 2.483 2.483 0 0 1 2.205-2.652 2.366 2.366 0 0 1 2.694 2.06ZM186.462 74.681c-.291.344-2.248-.918-4.899-.729-2.651.189-4.513 1.639-4.822 1.33-.154-.129.12-.73.927-1.407a6.803 6.803 0 0 1 3.835-1.467 6.461 6.461 0 0 1 3.921.986c.858.567 1.176 1.133 1.038 1.287ZM197.401 93.72c0-.155 1.613-.55 4.29-1.073.67-.111 1.305-.292 1.39-.755a3.47 3.47 0 0 0-.592-1.982l-2.351-5.028c-3.269-7.156-5.688-13.067-5.396-13.196.291-.129 3.174 5.569 6.452 12.733l2.265 5.062c.48.789.668 1.72.532 2.634a1.719 1.719 0 0 1-1.047 1.064 4.617 4.617 0 0 1-1.141.24c-2.711.326-4.376.447-4.402.3ZM186.446 64.23c-.215.747-2.883.575-6.006 1.159-3.123.583-5.551 1.604-6.006.987-.206-.3.189-1.004 1.158-1.776a10.632 10.632 0 0 1 9.121-1.63c1.21.386 1.827.917 1.733 1.26ZM211.018 64.823c-.42.635-2.291.137-4.496.248-2.205.112-4.032.678-4.504.078-.206-.292.051-.918.858-1.545a6.538 6.538 0 0 1 7.25-.257c.789.566 1.081 1.132.892 1.476Z" fill="#263238"/><path d="M158.963 85.638c-.3-.103-12.098-2.712-10.931 9.069 1.167 11.78 13.917 7.936 13.917 7.602 0-.335-2.986-16.671-2.986-16.671Z" fill="#FFBE9D"/><path d="M156.733 98.438c-.06 0-.189.163-.524.352a2.042 2.042 0 0 1-1.527.189c-1.296-.335-2.574-2.205-2.806-4.29a6.861 6.861 0 0 1 .284-2.994 2.395 2.395 0 0 1 1.389-1.716 1.058 1.058 0 0 1 1.27.446c.189.317.138.557.198.566.06.009.231-.215.094-.695a1.338 1.338 0 0 0-.541-.695 1.59 1.59 0 0 0-1.201-.24 2.905 2.905 0 0 0-1.956 2.042 6.958 6.958 0 0 0-.386 3.355c.309 2.368 1.716 4.47 3.492 4.787a2.207 2.207 0 0 0 1.853-.497c.369-.326.429-.592.361-.61Z" fill="#EB996E"/><path d="M214.785 47.62c-.806 4.693-10.295 8.991-18.206 8.76-7.267-.215-10.862-3.818-16.139-6.384-3.346-1.621-3.346-1.621-7.885-.858-3.664.592-5.569 4.925-7.628 8.014 3.921 8.58 2.334 18.498.669 27.765a4.68 4.68 0 0 1-1.192 2.814c-1.321 1.167-3.432.472-4.771-.72-2.085-1.914-3.037-4.745-3.715-7.491a48.477 48.477 0 0 1-1.167-19.16 33.205 33.205 0 0 1 7.963-17.33 31.453 31.453 0 0 1 21.45-9.773 38.608 38.608 0 0 1 22.839 6.486c3.124 2.05 6.006 4.582 7.808 7.868" fill="#263238"/><path d="m199.143 99.657-6.006-2.797a1.983 1.983 0 0 0-1.09-.275 1.717 1.717 0 0 0-1.038.704 5.567 5.567 0 0 0-.669 6.134 4.704 4.704 0 0 0 5.637 2.077c2.128-.858 3.157-3.355 3.329-5.654l-.163-.19Z" fill="#EB996E"/><path d="M196.166 105.947c0 .051-.283.223-.858.352a5.207 5.207 0 0 1-2.574-.189 5.36 5.36 0 0 1-2.977-2.48 5.512 5.512 0 0 1-.369-4.736 5.72 5.72 0 0 1 1.39-2.102 5.47 5.47 0 0 1 .978-.738c.211-.126.449-.2.695-.214a1.6 1.6 0 0 1 .695.128c.32.162.632.34.935.532l.815.507 1.467.909c1.776 1.133 2.849 1.888 2.789 1.99-.06.104-1.244-.446-3.106-1.44l-1.519-.859-.858-.472c-.292-.146-.601-.343-.858-.446a.635.635 0 0 0-.661.069c-.285.18-.549.39-.789.626a5.15 5.15 0 0 0-1.167 1.785 4.828 4.828 0 0 0 .258 4.024 4.956 4.956 0 0 0 2.479 2.282 6.072 6.072 0 0 0 2.325.438c.567.025.884-.026.91.034ZM194.271 78.868a21.064 21.064 0 0 0-.472-2.986 12.165 12.165 0 0 0-15.951-8.383 11.581 11.581 0 0 0-3.063 1.656 11.17 11.17 0 0 0-2.574 2.574 12.013 12.013 0 0 0 0 14.286 11.171 11.171 0 0 0 2.574 2.574 11.585 11.585 0 0 0 3.063 1.656 12.206 12.206 0 0 0 13.7-3.883 12.22 12.22 0 0 0 2.251-4.5c.227-.98.385-1.975.472-2.977a.724.724 0 0 1 0 .197v.584c.007.319-.016.637-.069.952a9.521 9.521 0 0 1-.232 1.287 11.752 11.752 0 0 1-1.33 3.32 12.412 12.412 0 0 1-14.937 5.406 11.793 11.793 0 0 1-3.166-1.716 11.62 11.62 0 0 1-2.66-2.651 12.44 12.44 0 0 1 0-14.8 11.43 11.43 0 0 1 2.651-2.652 11.79 11.79 0 0 1 3.166-1.716 12.502 12.502 0 0 1 6.564-.515 12.404 12.404 0 0 1 8.374 5.92 11.812 11.812 0 0 1 1.33 3.32c.106.424.183.854.231 1.288.054.314.077.633.069.952v.583a.76.76 0 0 1 .009.224ZM223.648 77.71a21.323 21.323 0 0 0-.454-2.91 11.957 11.957 0 0 0-4.376-6.494 11.628 11.628 0 0 0-4.977-2.188 11.828 11.828 0 0 0-9.172 2.128 11.31 11.31 0 0 0-2.488 2.505 11.746 11.746 0 0 0 0 13.917c.691.96 1.531 1.802 2.488 2.497.906.684 1.91 1.227 2.978 1.613 1.982.72 4.12.9 6.194.523a11.628 11.628 0 0 0 4.977-2.188 11.957 11.957 0 0 0 4.376-6.495c.218-.958.37-1.93.454-2.909.021.255.021.51 0 .764a5.74 5.74 0 0 1-.068.935c-.046.422-.121.841-.223 1.253a12.092 12.092 0 0 1-9.438 9.009c-2.141.404-4.351.23-6.401-.506a12.317 12.317 0 0 1-5.68-4.239 12.14 12.14 0 0 1 0-14.431 12.316 12.316 0 0 1 5.68-4.239c2.05-.735 4.26-.91 6.401-.506a12.089 12.089 0 0 1 9.438 9.009c.102.412.177.83.223 1.253.048.309.071.622.068.935.021.254.021.51 0 .763Z" fill="#263238"/><path d="M199.701 74.998c-.051.043-.334-.189-.858-.438a4.86 4.86 0 0 0-2.162-.472 4.692 4.692 0 0 0-2.136.55c-.515.265-.789.514-.858.463-.069-.052.154-.378.669-.738a4.204 4.204 0 0 1 4.616-.077c.524.343.729.677.729.712ZM170.4 77.118a54.06 54.06 0 0 1-5.371 4.29 54.879 54.879 0 0 1-5.645 3.938 51.751 51.751 0 0 1 5.379-4.29 53.484 53.484 0 0 1 5.637-3.938Z" fill="#263238"/><path opacity=".3" d="M160.234 132.957c-1.193 11.643 3.234 23.938 12.578 30.99.729.558 1.647 1.107 2.514.79a2.746 2.746 0 0 0 1.304-1.339 22.754 22.754 0 0 0 2.78-14.963c-1.476 3.895-2.746 7.722-4.239 11.789-8.125-4.942-13.221-15.444-14.937-27.267ZM191.868 159.433l6.864-2.505 1.133 11.592s7.396-13.48 10.459-19.623c3.063-6.143 1.484-17.005 1.484-17.005s1.09 9.438-6.315 21.51l-5.594 9.094v-9.523l-8.031 6.46ZM112.185 218.344a18.291 18.291 0 0 0-9.927-1.244 19.103 19.103 0 0 0-9.884 3.741c-2.78 2.239-4.659 5.774-4.29 9.326l.343.043c2.394-6.469 7.148-11.154 13.282-11.746 6.135-.592 12.115 2.154 16.302 6.658-.455-3.363-2.805-5.345-5.826-6.778ZM285.449 224.924a15.68 15.68 0 0 0-8.854-4.556 19.848 19.848 0 0 0-16.508 4.78l1.304-1.064a20.843 20.843 0 0 1 11-2.986 15.88 15.88 0 0 1 10.476 4.187c2.574 2.437 4.11 5.74 5.577 8.957a11.234 11.234 0 0 0-.427-5.003 11.227 11.227 0 0 0-2.568-4.315Z" fill="#000"/><path d="M241.271 171.128c.07-.322.174-.635.309-.935.266-.678.592-1.51.97-2.497.858-2.102 1.973-5.002 3.174-8.237a468.005 468.005 0 0 0 2.986-8.305l.858-2.531c.092-.316.219-.621.378-.91a3.56 3.56 0 0 1-.215.961c-.163.618-.42 1.493-.755 2.574a160.16 160.16 0 0 1-2.865 8.366c-1.202 3.217-2.394 6.134-3.304 8.202-.446 1.038-.858 1.871-1.107 2.446-.106.305-.25.596-.429.866ZM133.103 171.969c-.12 0-1.055-4.058-2.085-9.12-1.029-5.062-1.767-9.138-1.673-9.207.094-.068 1.047 4.059 2.076 9.121 1.03 5.062 1.802 9.181 1.682 9.206Z" fill="#263238"/><path d="M131.481 223.012c.275.137-3.14-26.735-3.14-26.735s2.153-20.395 3.363-21.339v-7.198s3.338-2.017 4.23 1.244c0 0 2.96-2.574 3.432 3.543.472 6.118.626 12.364.626 12.364l6.581 16.456 1.081.549s1.416-12.87 2.24-14.791c.823-1.922 1.39-6.513 4.504-5.818 3.115.695 3.381 3.269 2.823 7.473-.558 4.205-1.261 8.58-.995 11.275.266 2.694 1.493 8.691 1.115 13.444-.377 4.754-2.986 9.764-5.714 13.282-2.729 3.518-7.954 10.802-10.785 12.99-.918.772-9.361-16.739-9.361-16.739Z" fill="#FFBE9D"/><path d="M134.811 201.142a5.142 5.142 0 0 1 0-1.15c.052-.858.129-1.871.215-3.123.197-2.634.506-6.272.858-10.296.188-1.999.369-3.904.532-5.654.097-.807.097-1.622 0-2.429a3.443 3.443 0 0 0-.858-1.853 3.67 3.67 0 0 0-2.686-1.175 7.453 7.453 0 0 0-1.124.137 1.04 1.04 0 0 1 .275-.137c.275-.103.564-.164.858-.18a3.774 3.774 0 0 1 2.925 1.141 3.67 3.67 0 0 1 .953 2.016 9.885 9.885 0 0 1 0 2.514c-.155 1.716-.326 3.664-.498 5.663a740.016 740.016 0 0 1-1.012 10.296l-.352 3.114c.003.374-.025.747-.086 1.116ZM138.346 190.15a9.294 9.294 0 0 0-1.167 2.119c-.523 1.9-.888 3.84-1.09 5.8-.36 2.3-.703 4.376-.978 5.878-.1.818-.278 1.626-.532 2.411.003-.826.078-1.65.223-2.463.189-1.51.489-3.595.858-5.894.369-2.3.609-4.402 1.244-5.843.226-.565.542-1.09.935-1.553.284-.344.49-.472.507-.455Z" fill="#EB996E"/><path d="M135.927 168.631c.119.273.197.562.231.858.121.549.266 1.347.429 2.342.326 1.982.687 4.736.918 7.799a87.21 87.21 0 0 1 .241 7.851c0 1.004-.043 1.819-.086 2.377.007.289-.028.578-.103.858a28.797 28.797 0 0 1-.129-3.244c-.043-2.007-.146-4.77-.369-7.816-.223-3.046-.532-5.8-.78-7.79a27.25 27.25 0 0 1-.352-3.235ZM154.915 193.822a2.371 2.371 0 0 1-2.214.189c-1.261-.377-1.844-1.347-1.716-1.39.591.375 1.214.697 1.862.961.682.137 1.373.218 2.068.24Z" fill="#EB996E"/><path d="m131.851 219.666-17.383 7.31h-10.364s-10.245 3.2-11.823 12.81c-1.58 9.609-1.802 14.543 2.702 15.735 4.505 1.193 17.229 1.322 23.535-.772 6.306-2.093 22.831-15.444 22.831-15.444l1.588-9.644-11.086-9.995Z" fill="#FFBE9D"/><path d="M135.926 230.287s-.198-.146-.498-.455c-.414-.448-.79-.93-1.124-1.441a19.547 19.547 0 0 1-2.428-5.5 32.573 32.573 0 0 1-1.072-5.903 11.133 11.133 0 0 1-.069-2.488 16.7 16.7 0 0 1 .377 2.445 43.798 43.798 0 0 0 1.193 5.826 23.046 23.046 0 0 0 2.265 5.457c.781 1.296 1.416 1.999 1.356 2.059ZM143.503 233.333a18.1 18.1 0 0 0 .986-3.724 12.01 12.01 0 0 0-2.334-8.734c-1.055-1.476-2.247-2.763-3.251-4.015a18.98 18.98 0 0 1-2.351-3.553 9.35 9.35 0 0 1-.858-2.745 3.467 3.467 0 0 1 0-1.047c.201 1.27.6 2.501 1.184 3.647a20 20 0 0 0 2.394 3.432c1.003 1.218 2.205 2.505 3.286 4.015a12.494 12.494 0 0 1 2.17 4.762c.293 1.412.331 2.865.112 4.29a11.265 11.265 0 0 1-.789 2.763c-.138.309-.266.54-.352.695-.086.154-.189.223-.197.214Z" fill="#EB996E"/><path d="M116.689 191.463a87.358 87.358 0 0 1-4.238-7.722c-2.231-4.29-3.947-7.86-3.844-7.92a86.96 86.96 0 0 1 4.238 7.722 85.884 85.884 0 0 1 3.844 7.92ZM144.789 160.154a53.496 53.496 0 0 1 2.617-6.435 55.305 55.305 0 0 1 3.029-6.246 55.055 55.055 0 0 1-2.617 6.435 54.308 54.308 0 0 1-3.029 6.246ZM172.356 180.473a39.702 39.702 0 0 1-3.947-4.411 40.11 40.11 0 0 1-3.595-4.693 38.235 38.235 0 0 1 3.939 4.41 39.59 39.59 0 0 1 3.603 4.694ZM166.017 208.417a34.17 34.17 0 0 1 2.968-4.479 32.89 32.89 0 0 1 3.338-4.213 33.488 33.488 0 0 1-2.969 4.479 31.368 31.368 0 0 1-3.337 4.213ZM157.487 247.894a8.574 8.574 0 0 1-1.004-1.716 70.52 70.52 0 0 1-2.033-4.359 60.322 60.322 0 0 1-1.716-4.487 8.648 8.648 0 0 1-.549-1.922c.353.569.641 1.176.858 1.81l1.844 4.419c.712 1.639 1.347 3.123 1.905 4.401.3.59.533 1.212.695 1.854ZM181.682 231.111a31.817 31.817 0 0 1-5.208-.781 31.047 31.047 0 0 1-5.148-1.218 62.165 62.165 0 0 1 10.296 1.999h.06ZM200.559 194.226a62.524 62.524 0 0 1 4.959-5.68 64.342 64.342 0 0 1 5.302-5.388 64.376 64.376 0 0 1-4.968 5.688 65.704 65.704 0 0 1-5.293 5.38ZM219.435 243.415c-.095.086-2.866-3.132-6.195-7.164-3.329-4.033-5.946-7.379-5.852-7.456.095-.077 2.866 3.131 6.195 7.164 3.329 4.033 5.929 7.379 5.852 7.456ZM102.062 222.454c.06.12-2.47 1.407-5.233 3.526-2.763 2.119-4.685 4.213-4.788 4.118a6.1 6.1 0 0 1 1.167-1.458 26.362 26.362 0 0 1 3.346-3.012 26.77 26.77 0 0 1 3.792-2.419 6.476 6.476 0 0 1 1.716-.755ZM109.131 203.475a18.295 18.295 0 0 1-2.016 3.432 18.086 18.086 0 0 1-2.394 3.191 18.437 18.437 0 0 1 2.016-3.432 17.785 17.785 0 0 1 2.394-3.191ZM125.056 222.11a11.335 11.335 0 0 1-1.665-7.336c.129 0 .172 1.716.644 3.716.472 1.999 1.141 3.56 1.021 3.62ZM127.415 162.977a13.182 13.182 0 0 1-3.303.695 12.683 12.683 0 0 1-3.372.249 13.304 13.304 0 0 1 3.312-.695 13.091 13.091 0 0 1 3.363-.249ZM139.376 141.759a26.26 26.26 0 0 1-6.006 3.329c.878-.744 1.85-1.37 2.892-1.862a13.618 13.618 0 0 1 3.114-1.467ZM173.018 150.725a31.222 31.222 0 0 1-3.312-3.981 30.926 30.926 0 0 1-2.951-4.247 59.852 59.852 0 0 1 6.263 8.228ZM215.719 172.055a21.014 21.014 0 0 1-5.191-8.34c.129-.051 1.047 1.948 2.489 4.239 1.441 2.291 2.805 4.015 2.702 4.101ZM232.022 177.426a49.94 49.94 0 0 1-3.947 8.691 26.633 26.633 0 0 1 1.776-4.436 25.141 25.141 0 0 1 2.171-4.255ZM234.304 155.178a46.078 46.078 0 0 1-4.342-4.856 47.495 47.495 0 0 1-3.989-5.148 95.186 95.186 0 0 1 8.331 10.004ZM209.407 137.108a20.091 20.091 0 0 1-.386-4.152c-.13-1.391-.11-2.792.06-4.179.271 1.368.401 2.759.386 4.153a18.95 18.95 0 0 1-.06 4.178ZM229.732 135.985a32.99 32.99 0 0 1-5.303.935 32.471 32.471 0 0 1-5.354.489 32.99 32.99 0 0 1 5.303-.935 32.353 32.353 0 0 1 5.354-.489ZM261.676 159.468a53.952 53.952 0 0 1-3.192-6.074 53.227 53.227 0 0 1-2.78-6.272 53.27 53.27 0 0 1 3.2 6.074 53.342 53.342 0 0 1 2.772 6.272ZM256.328 179.76a55.77 55.77 0 0 1 1.939-9.678 27.773 27.773 0 0 1-.746 4.882 27.106 27.106 0 0 1-1.193 4.796ZM271.121 195.753a54.2 54.2 0 0 1-2.574-6.589 54.86 54.86 0 0 1-2.119-6.744 56.826 56.826 0 0 1 2.574 6.598 56.068 56.068 0 0 1 2.119 6.735ZM269.052 205.114a11.926 11.926 0 0 1-4.333-1.553 11.496 11.496 0 0 1-3.663-2.78c.085-.103 1.664 1.201 3.878 2.385 2.213 1.184 4.161 1.819 4.118 1.948ZM288.076 226.443a24.487 24.487 0 0 1-2.669-6.005 24.524 24.524 0 0 1 2.669 6.005ZM175.858 256.199a17.09 17.09 0 0 1-.67-3.801 17.378 17.378 0 0 1-.223-3.852c.392 1.245.631 2.533.712 3.835.206 1.262.266 2.543.181 3.818ZM234.143 254.723c.039-1.256.226-2.503.557-3.715.194-1.242.53-2.457 1.004-3.621a15.668 15.668 0 0 1-.566 3.715 15.95 15.95 0 0 1-.995 3.621Z" fill="#fff"/><path d="m245.312 84.591 7.585-13.247a35.576 35.576 0 0 1 8.869-47.171 35.572 35.572 0 1 1-.349 56.609l-16.105 3.81Z" fill="#FAFAFA"/><path d="m245.311 84.59 16.105-3.671h.163l-.103-.138-.155.146a36.673 36.673 0 0 0 7.31 4.41 35.58 35.58 0 0 0 9.747 2.78c1.864.26 3.748.355 5.629.283.969-.051 1.947-.077 2.943-.154l3.003-.455a35.847 35.847 0 0 0 22.213-14.26 35.493 35.493 0 0 0 6.006-13.728 36.405 36.405 0 0 0-.42-15.813 35.123 35.123 0 0 0-7.619-14.586l-1.468-1.673c-.48-.54-1.046-.978-1.561-1.475-.515-.498-1.03-.996-1.613-1.407l-1.716-1.27c-.56-.432-1.15-.822-1.768-1.167l-1.801-1.098-1.888-.919a17.953 17.953 0 0 0-1.905-.857 36.432 36.432 0 0 0-15.933-2.446 35.01 35.01 0 0 0-14.586 4.29A36.04 36.04 0 0 0 249 42.172a38.258 38.258 0 0 0-1.544 11.557 35.191 35.191 0 0 0 1.716 9.978c.885 2.681 2.08 5.25 3.561 7.654v-.112a7125.542 7125.542 0 0 1-7.448 13.333c.378-.643 2.763-4.779 7.628-13.23V71.25a35.668 35.668 0 0 1-3.449-7.629 35.08 35.08 0 0 1-1.716-9.91 38.38 38.38 0 0 1 1.57-11.445 35.789 35.789 0 0 1 16.739-20.506 34.588 34.588 0 0 1 14.458-4.29 35.922 35.922 0 0 1 15.735 2.428c.643.248 1.27.535 1.879.858l1.871.91 1.801 1.115c.598.343 1.172.727 1.716 1.15l1.716 1.26c.575.413 1.056.927 1.588 1.39.532.464 1.072.927 1.544 1.46l1.433 1.57a34.807 34.807 0 0 1 7.533 14.44 35.77 35.77 0 0 1 .421 15.615c-.981 4.898-3 9.53-5.921 13.582a35.51 35.51 0 0 1-21.947 14.149l-2.969.463c-.987.077-1.956.111-2.917.163a32.173 32.173 0 0 1-5.577-.257 35.454 35.454 0 0 1-9.695-2.695 36.329 36.329 0 0 1-7.285-4.341l-.66-.506.506.66.06-.171-16.036 3.878Z" fill="#263238"/><path d="M292.707 51.223a3.432 3.432 0 1 0 6.863-.088 3.432 3.432 0 0 0-6.863.088ZM278.817 51.223a3.43 3.43 0 0 0 4.127 3.318 3.43 3.43 0 0 0 2.674-2.706 3.432 3.432 0 1 0-6.801-.612ZM264.96 49.49a3.426 3.426 0 0 0 .278 3.789 3.433 3.433 0 1 0-.278-3.789Z" fill="#263238"/><defs><linearGradient id="g" x1="357.529" y1="278.672" x2="385.403" y2="278.672" gradientUnits="userSpaceOnUse"><stop stop-color="#FF512F"/><stop offset="1" stop-color="#F09819"/></linearGradient><linearGradient id="a" x1="337.358" y1="263.02" x2="380.829" y2="261.411" gradientUnits="userSpaceOnUse"><stop stop-color="#16222A"/><stop offset="1" stop-color="#3A6073"/></linearGradient><linearGradient id="c" x1="374.487" y1="260.67" x2="390.672" y2="260.437" gradientUnits="userSpaceOnUse"><stop stop-color="#16222A"/><stop offset="1" stop-color="#3A6073"/></linearGradient><linearGradient id="d" x1="381.291" y1="261.992" x2="415.1" y2="261.162" gradientUnits="userSpaceOnUse"><stop stop-color="#16222A"/><stop offset="1" stop-color="#3A6073"/></linearGradient><linearGradient id="e" x1="344.625" y1="261.985" x2="385.354" y2="260.917" gradientUnits="userSpaceOnUse"><stop stop-color="#16222A"/><stop offset="1" stop-color="#3A6073"/></linearGradient><linearGradient id="f" x1="364.005" y1="278.672" x2="395.427" y2="278.672" gradientUnits="userSpaceOnUse"><stop stop-color="#FF512F"/><stop offset="1" stop-color="#F09819"/></linearGradient><linearGradient id="b" x1="368.38" y1="262.506" x2="381.43" y2="262.353" gradientUnits="userSpaceOnUse"><stop stop-color="#16222A"/><stop offset="1" stop-color="#3A6073"/></linearGradient><linearGradient id="h" x1="37.696" y1="78.745" x2="117.496" y2="41.533" gradientUnits="userSpaceOnUse"><stop stop-color="#FF512F"/><stop offset="1" stop-color="#F09819"/></linearGradient><linearGradient id="i" x1="37.696" y1="78.745" x2="117.496" y2="41.533" gradientUnits="userSpaceOnUse"><stop stop-color="#FF512F"/><stop offset="1" stop-color="#F09819"/></linearGradient><linearGradient id="j" x1="10.455" y1="293.168" x2="386.093" y2="258.504" gradientUnits="userSpaceOnUse"><stop stop-color="#16222A"/><stop offset="1" stop-color="#3A6073"/></linearGradient><linearGradient id="k" x1="0" y1="297.992" x2="178.024" y2="94.57" gradientUnits="userSpaceOnUse"><stop stop-color="#16222A"/><stop offset="1" stop-color="#3A6073"/></linearGradient><linearGradient id="l" x1="41.789" y1="264.938" x2="118.496" y2="264.938" gradientUnits="userSpaceOnUse"><stop stop-color="#FF512F"/><stop offset="1" stop-color="#F09819"/></linearGradient><linearGradient id="m" x1="113.508" y1="265.205" x2="120.976" y2="265.205" gradientUnits="userSpaceOnUse"><stop stop-color="#FF512F"/><stop offset="1" stop-color="#F09819"/></linearGradient></defs></svg>