<svg width="337" height="341" fill="none" xmlns="http://www.w3.org/2000/svg"><path d="m267.975 19.64-7.874-4.091a2.496 2.496 0 0 0-3.366 1.064l-15.277 29.408a2.495 2.495 0 0 0 1.064 3.365l7.875 4.091a2.495 2.495 0 0 0 3.365-1.064l15.278-29.407a2.496 2.496 0 0 0-1.065-3.366Z" fill="#EBEBEB"/><path d="m260.658 20.354-2.188 4.212-.768-.398 1.845-3.551-.891-.463.341-.656 1.661.856ZM262.953 25.293c-.369.709-1.227 1.044-2.358.457a3.004 3.004 0 0 1-1.329-1.309l.644-.409c.208.457.566.83 1.014 1.055.586.305 1.019.217 1.222-.176.204-.392.051-.77-.588-1.102l-.381-.197.277-.534 1.546-.64-1.916-.995.341-.657 2.871 1.492-.271.521-1.659.686a1.311 1.311 0 0 1 .677.78 1.326 1.326 0 0 1-.09 1.028ZM328.78 43.569c-.046.088-15.53-7.874-34.584-17.773-19.055-9.899-34.478-17.993-34.432-18.081.045-.088 15.524 7.871 34.59 17.776 19.066 9.905 34.469 17.996 34.426 18.078ZM313.166 25.852c-.042.082-6.782-3.33-15.043-7.622-8.262-4.292-14.934-7.847-14.892-7.93.043-.081 6.777 3.328 15.05 7.626s14.931 7.838 14.885 7.926ZM262.474 29.306a45.708 45.708 0 0 1-7.154-3.716 47.368 47.368 0 0 1 7.154 3.716Z" fill="#17282F"/><path d="M319.857 46.596 275.73 23.673a3.883 3.883 0 0 0-5.235 1.655l-13.999 26.947a3.883 3.883 0 0 0 1.656 5.235l44.126 22.924a3.882 3.882 0 0 0 5.235-1.656l13.999-26.947a3.883 3.883 0 0 0-1.655-5.235Z" fill="url(#a)"/><path d="M291.647 41.486c-.046.088-3.964-1.866-8.751-4.353-4.787-2.487-8.644-4.573-8.598-4.66.045-.088 3.964 1.865 8.757 4.355 4.792 2.49 8.635 4.576 8.592 4.658ZM284.044 41.424a113.57 113.57 0 0 1-11.08-5.756 113.593 113.593 0 0 1 11.08 5.756Z" fill="#fff"/><path d="m248.1 57.89-7.874-4.091a2.497 2.497 0 0 0-3.366 1.064l-9.433 18.158a2.496 2.496 0 0 0 1.064 3.366l7.875 4.09a2.497 2.497 0 0 0 3.366-1.064l9.433-18.157a2.496 2.496 0 0 0-1.065-3.366Z" fill="#EBEBEB"/><path d="m240.78 58.62-2.185 4.206-.768-.398 1.848-3.557-.891-.463.338-.65 1.658.861ZM244.791 60.702l-.271.521-3.555 2.833-.832-.432 3.423-2.723-1.658-.862-.371.715-.727-.377.716-1.377 3.275 1.702ZM242.581 67.603a47.415 47.415 0 0 1-7.154-3.716 47.415 47.415 0 0 1 7.154 3.716ZM299.983 84.846l-44.127-22.923a3.883 3.883 0 0 0-5.235 1.655l-7.494 14.426a3.883 3.883 0 0 0 1.656 5.235l44.126 22.923a3.881 3.881 0 0 0 5.235-1.655l7.494-14.426a3.883 3.883 0 0 0-1.655-5.235Z" fill="#17282F"/><path d="M271.768 79.751c-.042.082-3.964-1.866-8.751-4.352-4.787-2.487-8.641-4.579-8.598-4.66.043-.083 3.964 1.865 8.757 4.355 4.793 2.49 8.638 4.57 8.592 4.657ZM264.166 79.682a113.57 113.57 0 0 1-11.08-5.756 113.593 113.593 0 0 1 11.08 5.756Z" fill="#fff"/><path d="M272.302 168.671c1.283 8.514-4.595 16.459-13.128 17.746-8.535 1.286-16.493-4.573-17.776-13.088-1.284-8.514 4.594-16.46 13.128-17.746 8.534-1.286 16.493 4.574 17.776 13.088Z" fill="#C1CCD1"/><path d="M268.567 169.177c.978 6.489-3.501 12.543-10.005 13.524-6.503.98-12.568-3.486-13.546-9.973-.978-6.489 3.501-12.544 10.004-13.524 6.504-.98 12.569 3.485 13.547 9.973Z" fill="#9AABB5"/><path d="M268.532 168.612c-.071.013-.199-.496-.525-1.37a12.658 12.658 0 0 0-1.902-3.404 12.212 12.212 0 0 0-1.882-1.905 11.936 11.936 0 0 0-2.61-1.595 11.105 11.105 0 0 0-1.555-.565 11.001 11.001 0 0 0-1.688-.349 11.523 11.523 0 0 0-1.781-.095c-.605.017-1.216.079-1.828.187a12.74 12.74 0 0 0-1.777.472 11.59 11.59 0 0 0-3.088 1.644 11.92 11.92 0 0 0-3.13 3.496 12.275 12.275 0 0 0-1.085 2.448 12.657 12.657 0 0 0-.572 3.856c.005.932.066 1.454-.005 1.466-.053.011-.234-.491-.349-1.445-.11-.948-.136-2.371.306-4.055a12.08 12.08 0 0 1 1.045-2.64 12.143 12.143 0 0 1 6.575-5.623 13.033 13.033 0 0 1 1.915-.515c.66-.116 1.321-.182 1.973-.197a12.095 12.095 0 0 1 5.396 1.153c1.05.49 1.965 1.113 2.744 1.778a12.098 12.098 0 0 1 1.913 2.098 11.023 11.023 0 0 1 1.725 3.685c.229.933.238 1.466.185 1.475Z" fill="#DADBD8"/><path d="m188.787 60.113-2.444 7.856-.809-.252 2.222-7.137-1.852-.576.225-.719 2.658.828ZM194.644 69.758l-.223.719-5.51-1.715.178-.573 4.261-2.182c1.159-.598 1.492-1.074 1.659-1.612.284-.91-.182-1.67-1.382-2.043-.92-.286-1.715-.226-2.416.208l-.418-.672c.83-.53 1.931-.63 3.132-.256 1.593.496 2.352 1.619 1.943 2.931-.234.752-.679 1.352-2.056 2.056l-3.488 1.795 4.32 1.344ZM203.333 70.987l-1.571-.489-.642 2.064-.808-.25.642-2.066-4.433-1.38.183-.583 5.784-3.91.898.279-5.597 3.821 3.412 1.062.565-1.817.785.244-.566 1.817 1.572.49-.224.718ZM215.371 74.736l-1.57-.489-.643 2.066-.808-.252.643-2.065-4.432-1.38.181-.584 5.784-3.91.897.28-5.596 3.82 3.411 1.062.566-1.817.786.244-.566 1.818 1.57.489-.223.718ZM222.314 76.629c-.416 1.336-1.673 2.09-3.592 1.492-1.134-.353-2.088-1.081-2.502-1.888l.592-.516c.341.684 1.12 1.344 2.13 1.66 1.335.415 2.244-.016 2.542-.97.314-1.01-.12-1.834-2.117-2.456l-1.672-.52 1.631-3.813 4.298 1.338-.225.719-3.591-1.119-1.047 2.42 1.01.313c2.367.737 2.975 1.948 2.543 3.34ZM229.285 78.784c.321-1.032-.236-1.93-1.448-2.308-1.201-.374-2.25.111-2.554 1.087-.269.865.194 1.907 1.552 2.33 1.135.353 2.126-.065 2.45-1.109Zm.804.226c-.457 1.47-1.906 2.053-3.433 1.578-2.087-.65-2.77-2.45-1.998-4.93.831-2.67 2.723-3.608 4.855-2.945.707.22 1.331.55 1.73 1.007l-.529.549c-.319-.394-.826-.663-1.409-.844-1.694-.528-3.123.222-3.786 2.354-.057.18-.115.407-.165.65.661-.742 1.731-.938 2.821-.6 1.559.486 2.361 1.745 1.914 3.181ZM240.808 82.44c-.408 1.313-1.676 2.027-3.572 1.437-1.134-.353-2.099-1.085-2.513-1.891l.59-.517c.341.684 1.131 1.348 2.153 1.666 1.301.406 2.209.024 2.512-.953.293-.942-.176-1.766-1.634-2.22l-.561-.175.184-.594 3.026-2.05-4.017-1.25.224-.718 5.049 1.571-.178.573-3.092 2.102c1.655.615 2.221 1.763 1.829 3.02ZM247.909 84.58c.321-1.031-.237-1.931-1.448-2.308-1.202-.374-2.25.112-2.553 1.088-.27.864.193 1.907 1.55 2.33 1.135.353 2.126-.065 2.451-1.11Zm.803.227c-.457 1.47-1.907 2.053-3.433 1.578-2.088-.65-2.77-2.45-1.998-4.93.832-2.671 2.724-3.608 4.855-2.945.708.22 1.331.55 1.73 1.006l-.527.55c-.321-.395-.827-.663-1.411-.845-1.694-.527-3.121.222-3.785 2.354-.056.18-.116.407-.165.65.661-.742 1.732-.938 2.819-.599 1.56.486 2.362 1.745 1.915 3.18ZM257.653 81.543l-.178.572-5.555 6.26-.876-.273 5.454-6.13-4.04-1.259-.458 1.47-.796-.247.682-2.189 5.767 1.796Z" fill="#fff"/><path d="M337 328.291c0 .107-75.446.193-168.492.193C75.43 328.484 0 328.398 0 328.291c0-.107 75.43-.193 168.508-.193 93.046 0 168.492.086 168.492.193Z" fill="#17282F"/><path d="M120.188 328.266H16.354a6.506 6.506 0 0 1-6.505-6.507v-89.4a6.506 6.506 0 0 1 6.506-6.507h103.833a6.506 6.506 0 0 1 6.506 6.507v89.4a6.506 6.506 0 0 1-6.506 6.507Z" fill="url(#b)"/><path d="M52.41 293.016H9.85l.105-2.625c.153.02.31.029.469.029H53.42c.577 0 1.123-.131 1.61-.366h.342a2.963 2.963 0 0 1-2.962 2.962Z" fill="#20353D"/><path d="M53.42 290.414H10.424a3.704 3.704 0 0 1-3.705-3.704v-19.169a3.705 3.705 0 0 1 3.705-3.705H53.42a3.705 3.705 0 0 1 3.705 3.705v19.169a3.704 3.704 0 0 1-3.705 3.704Z" fill="#33535F"/><path d="M53.42 290.417c-.009-.037.538.043 1.443-.336.442-.198.96-.537 1.402-1.092a3.675 3.675 0 0 0 .783-2.26l-.06-15.816-.007-2.563c-.006-.437.016-.884-.042-1.303a3.552 3.552 0 0 0-2.427-2.881c-.437-.144-.883-.179-1.367-.17l-1.46.003-12.535.017-28.724.015c-1.212-.003-2.391.657-3 1.69a3.431 3.431 0 0 0-.508 1.687c-.015.61-.004 1.244-.008 1.86 0 2.482-.002 4.927-.003 7.329l-.004 7.074c.007 1.147-.022 2.319.016 3.41.114 1.069.73 2.064 1.63 2.614.444.28.948.458 1.463.519.505.05 1.073.017 1.603.028l3.182.004 6.085.01c3.925.008 7.582.017 10.923.023l15.815.062 4.3.036 1.118.019c.252.007.381.021.381.021s-.129.012-.38.019l-1.12.019-4.299.037-15.815.061-10.923.023a10194.499 10194.499 0 0 1-9.267.014c-.546-.01-1.063.027-1.644-.025a3.914 3.914 0 0 1-1.612-.568c-.991-.603-1.674-1.698-1.802-2.878-.044-1.167-.013-2.284-.024-3.448l-.005-7.074-.003-7.329c.003-.623-.007-1.235.007-1.874a3.82 3.82 0 0 1 .563-1.874c.675-1.145 1.986-1.881 3.331-1.875l28.724.015 12.535.018c.491 0 .977.002 1.46.003.478-.009.998.031 1.462.19a3.86 3.86 0 0 1 2.184 1.807c.229.416.376.869.438 1.329.06.467.034.907.038 1.343l-.006 2.563-.063 15.817a3.781 3.781 0 0 1-.843 2.331 3.812 3.812 0 0 1-1.461 1.092c-.461.192-.842.233-1.092.264-.254.006-.383 0-.383 0Z" fill="#17282F"/><path d="M44.7 287.469a7.462 7.462 0 1 1 0-14.924 7.462 7.462 0 0 1 0 14.924Z" fill="#20353D"/><path d="M52.163 277.412a7.462 7.462 0 1 1-14.925.001 7.462 7.462 0 0 1 14.925-.001Z" fill="#E7E8E5"/><path d="M52.163 277.41c-.05.004-.01-.665-.307-1.803a7.437 7.437 0 0 0-2.724-4.019c-.832-.618-1.878-1.141-3.084-1.35-1.197-.2-2.546-.16-3.828.332a6.857 6.857 0 0 0-1.84.994 6.838 6.838 0 0 0-1.536 1.548c-.894 1.192-1.397 2.721-1.412 4.297.014 1.578.517 3.108 1.412 4.299a6.836 6.836 0 0 0 1.535 1.548c.572.429 1.195.77 1.84.996 1.283.491 2.633.532 3.83.331 1.205-.209 2.252-.733 3.084-1.35a7.437 7.437 0 0 0 2.723-4.019c.296-1.138.256-1.807.307-1.804 0 0 .096.667-.16 1.841-.254 1.149-.983 2.859-2.704 4.199-.852.655-1.935 1.216-3.191 1.448-1.248.224-2.66.194-4.01-.312a7.14 7.14 0 0 1-1.938-1.033 7.183 7.183 0 0 1-1.622-1.62c-.944-1.25-1.48-2.864-1.493-4.524.014-1.659.55-3.272 1.494-4.522a7.17 7.17 0 0 1 1.621-1.619 7.169 7.169 0 0 1 1.938-1.034c1.35-.504 2.762-.535 4.01-.311 1.255.232 2.338.792 3.19 1.447 1.721 1.341 2.45 3.051 2.704 4.2.256 1.174.16 1.84.16 1.84Z" fill="#17282F"/><path d="M307.101 230.469c5.138 13.36-1.528 28.356-14.889 33.493-13.361 5.137-28.355-1.53-33.493-14.89-5.137-13.361 1.529-28.356 14.89-33.493 13.361-5.137 28.356 1.529 33.492 14.89Z" fill="url(#c)"/><path d="M300.77 232.462c3.905 10.158-1.162 21.557-11.319 25.462-10.158 3.906-21.556-1.162-25.462-11.319-3.905-10.158 1.161-21.556 11.319-25.462 10.158-3.905 21.556 1.162 25.462 11.319Z" fill="url(#d)"/><path d="M279.267 258.992c-6.612-1.063-12.505-5.472-15.17-12.113a19.661 19.661 0 0 1-1.426-7.328c-.006-7.922 4.801-15.395 12.637-18.408a19.644 19.644 0 0 1 7.067-1.318 19.77 19.77 0 0 1 12.365 4.36 19.499 19.499 0 0 0-11.303-3.624c-2.32 0-4.679.418-6.973 1.3-7.73 2.973-12.473 10.346-12.467 18.162a19.368 19.368 0 0 0 1.3 6.958c2.433 6.328 7.812 10.652 13.97 12.011Z" fill="url(#e)"/><path d="M301.584 233.033c3.853 10.02-1.146 21.266-11.167 25.12-10.021 3.853-21.267-1.147-25.12-11.167-3.852-10.021 1.147-21.268 11.168-25.12 10.02-3.853 21.266 1.146 25.119 11.167Z" fill="url(#f)"/><path d="M266.673 259.039c-.004.005-.067-.045-.185-.144l-.504-.441c-.221-.19-.485-.43-.771-.73-.288-.296-.632-.62-.966-1.021l-.538-.616c-.186-.216-.359-.457-.549-.697-.388-.475-.749-1.023-1.141-1.591a28.177 28.177 0 0 1-2.124-3.947 28.01 28.01 0 0 1-1.408-4.256c-.144-.675-.293-1.313-.372-1.922-.044-.303-.099-.594-.129-.877l-.078-.815c-.062-.517-.06-.99-.078-1.403-.022-.414-.014-.77-.001-1.061l.027-.671a1.12 1.12 0 0 1 .022-.232c.007.001.012.081.017.234l.009.669c-.002.29.002.645.034 1.056.028.411.036.881.106 1.395l.09.809c.033.281.092.569.139.87.085.605.24 1.238.387 1.906a29.139 29.139 0 0 0 1.413 4.222 28.967 28.967 0 0 0 2.096 3.926c.384.567.738 1.114 1.118 1.591.187.241.356.482.537.699l.526.621c.326.404.661.733.94 1.035.277.307.532.553.745.751l.479.467c.109.108.164.167.159.173ZM276.788 220.033c.003.012-.211.084-.599.203a9.7 9.7 0 0 0-.704.231c-.271.099-.586.196-.919.341-.338.135-.706.284-1.089.471-.392.171-.792.391-1.217.613a22.185 22.185 0 0 0-2.609 1.704 22.337 22.337 0 0 0-2.319 2.084c-.324.354-.639.684-.905 1.017a15.91 15.91 0 0 0-.735.933c-.225.284-.4.563-.565.8-.167.236-.299.447-.404.62-.215.346-.34.534-.352.528-.012-.007.091-.207.287-.566.096-.181.218-.399.378-.641.158-.243.326-.53.545-.822.212-.298.446-.624.723-.953.262-.342.576-.678.9-1.038a20.92 20.92 0 0 1 2.329-2.115 20.943 20.943 0 0 1 2.642-1.707c.431-.22.837-.436 1.235-.603.39-.182.764-.325 1.107-.452.339-.137.658-.227.935-.316a7.71 7.71 0 0 1 .716-.201c.397-.097.617-.144.62-.131ZM294.677 261.58c.008.011-.13.111-.386.282-.254.175-.636.405-1.121.669a18.802 18.802 0 0 1-3.995 1.593c-1.628.439-3.153.61-4.254.64a13.51 13.51 0 0 1-1.305-.012c-.307-.018-.476-.035-.475-.049 0-.013.171-.022.477-.026.307-.001.75-.015 1.296-.049a21.43 21.43 0 0 0 4.211-.69 21.548 21.548 0 0 0 3.983-1.528c.488-.247.879-.458 1.144-.611.267-.152.418-.23.425-.219Z" fill="#fff"/><path d="M257.711 275.07h54.871v-11.065h-54.871v11.065Z" fill="url(#g)"/><path d="M309.053 264.194c-.132 0-.239 2.401-.239 5.364 0 2.962.107 5.364.239 5.364.131 0 .238-2.402.238-5.364 0-2.963-.107-5.364-.238-5.364ZM303.966 264.194c-.131 0-.237 2.401-.237 5.364 0 2.962.106 5.364.237 5.364.132 0 .239-2.402.239-5.364 0-2.963-.107-5.364-.239-5.364ZM298.938 264.194c-.132 0-.238 2.401-.238 5.364 0 2.962.106 5.364.238 5.364.131 0 .238-2.402.238-5.364 0-2.963-.107-5.364-.238-5.364ZM293.936 264.194c-.132 0-.239 2.401-.239 5.364 0 2.962.107 5.364.239 5.364.131 0 .238-2.402.238-5.364 0-2.963-.107-5.364-.238-5.364ZM288.937 264.194c-.133 0-.239 2.401-.239 5.364 0 2.962.106 5.364.239 5.364.131 0 .238-2.402.238-5.364 0-2.963-.107-5.364-.238-5.364ZM283.934 264.194c-.131 0-.238 2.401-.238 5.364 0 2.962.107 5.364.238 5.364.132 0 .239-2.402.239-5.364 0-2.963-.107-5.364-.239-5.364ZM278.933 264.194c-.132 0-.239 2.401-.239 5.364 0 2.962.107 5.364.239 5.364.131 0 .238-2.402.238-5.364 0-2.963-.107-5.364-.238-5.364ZM273.932 264.194c-.131 0-.238 2.401-.238 5.364 0 2.962.107 5.364.238 5.364.132 0 .239-2.402.239-5.364 0-2.963-.107-5.364-.239-5.364ZM268.931 264.194c-.132 0-.239 2.401-.239 5.364 0 2.962.107 5.364.239 5.364.131 0 .238-2.402.238-5.364 0-2.963-.107-5.364-.238-5.364ZM263.931 264.194c-.132 0-.239 2.401-.239 5.364 0 2.962.107 5.364.239 5.364.131 0 .238-2.402.238-5.364 0-2.963-.107-5.364-.238-5.364ZM258.928 264.194c-.131 0-.238 2.401-.238 5.364 0 2.962.107 5.364.238 5.364.132 0 .239-2.402.239-5.364 0-2.963-.107-5.364-.239-5.364Z" fill="#17282F"/><path d="m284.865 265.797-.761-.002c-.044-.989-.104-1.602-.171-1.602-.066 0-.126.612-.169 1.601a207.043 207.043 0 0 1-4.666-.079c-.042-.942-.101-1.522-.165-1.522-.065 0-.124.576-.166 1.512a195.776 195.776 0 0 1-4.679-.194c-.042-.821-.097-1.318-.157-1.318-.059 0-.114.49-.155 1.301a191.018 191.018 0 0 1-4.708-.318c-.039-.619-.086-.983-.138-.983-.05 0-.097.355-.136.961a182.55 182.55 0 0 1-4.763-.449c-.031-.329-.065-.512-.101-.512-.036 0-.07.175-.1.49a170.167 170.167 0 0 1-5.243-.652l53.111-.012c-.858.117-1.721.228-2.587.333-.019-.104-.038-.159-.058-.159-.021 0-.042.06-.061.173a191.43 191.43 0 0 1-4.909.53c-.035-.448-.075-.703-.118-.703s-.084.263-.12.725c-1.578.148-3.167.277-4.763.388-.04-.699-.09-1.113-.145-1.113-.055 0-.106.422-.147 1.133-1.558.105-3.124.194-4.694.264-.042-.868-.098-1.397-.16-1.397-.063 0-.119.535-.161 1.411-1.554.067-3.112.117-4.673.149-.042-.964-.102-1.56-.167-1.56-.066 0-.126.599-.169 1.567-1.299.024-2.6.037-3.901.037Z" fill="url(#h)"/><path d="M308.994 264.367c.019-.114.04-.174.061-.174.02 0 .039.055.058.16l-.119.014ZM303.846 264.922c.035-.462.076-.725.119-.725s.084.255.118.703l-.237.022ZM298.791 265.328c.041-.71.091-1.133.146-1.133.055 0 .106.415.146 1.113l-.292.02ZM293.775 265.602c.043-.877.099-1.412.162-1.412.061 0 .118.53.16 1.397l-.322.015ZM288.767 265.758c.043-.968.102-1.567.168-1.567.066 0 .125.596.167 1.56l-.335.007ZM284.105 265.797a38.31 38.31 0 0 0-.339-.002c.043-.989.103-1.601.169-1.601.067 0 .126.613.17 1.603ZM279.1 265.719a35.498 35.498 0 0 1-.331-.01c.042-.936.101-1.513.165-1.513.065 0 .124.581.166 1.523ZM274.088 265.508l-.312-.017c.042-.811.096-1.301.156-1.301s.115.497.156 1.318ZM269.068 265.18l-.273-.023c.039-.606.085-.961.136-.961.051 0 .099.364.137.984ZM264.032 264.703l-.201-.021c.03-.315.064-.491.1-.491.036 0 .07.184.101.512Z" fill="#0F191D"/><path d="M257.696 264.043c0 .131 12.262.238 27.385.238 15.129 0 27.389-.107 27.389-.238 0-.132-12.26-.239-27.389-.239-15.123 0-27.385.107-27.385.239Z" fill="#17282F"/><path d="M256.478 285.953h54.87v-11.065h-54.87v11.065Z" fill="url(#i)"/><path d="M307.821 275.076c-.132 0-.238 2.402-.238 5.365s.106 5.364.238 5.364c.131 0 .238-2.401.238-5.364s-.107-5.365-.238-5.365ZM302.734 275.076c-.132 0-.239 2.402-.239 5.365s.107 5.364.239 5.364c.131 0 .237-2.401.237-5.364s-.106-5.365-.237-5.365ZM297.704 275.076c-.131 0-.238 2.402-.238 5.365s.107 5.364.238 5.364c.132 0 .238-2.401.238-5.364s-.106-5.365-.238-5.365ZM292.705 275.076c-.132 0-.238 2.402-.238 5.365s.106 5.364.238 5.364c.131 0 .238-2.401.238-5.364s-.107-5.365-.238-5.365ZM287.703 275.076c-.132 0-.238 2.402-.238 5.365s.106 5.364.238 5.364c.131 0 .238-2.401.238-5.364s-.107-5.365-.238-5.365ZM282.702 275.076c-.132 0-.238 2.402-.238 5.365s.106 5.364.238 5.364.238-2.401.238-5.364-.106-5.365-.238-5.365ZM277.701 275.076c-.132 0-.238 2.402-.238 5.365s.106 5.364.238 5.364c.131 0 .238-2.401.238-5.364s-.107-5.365-.238-5.365ZM272.699 275.076c-.131 0-.238 2.402-.238 5.365s.107 5.364.238 5.364c.132 0 .238-2.401.238-5.364s-.106-5.365-.238-5.365ZM267.698 275.076c-.132 0-.238 2.402-.238 5.365s.106 5.364.238 5.364c.131 0 .238-2.401.238-5.364s-.107-5.365-.238-5.365ZM262.698 275.076c-.132 0-.238 2.402-.238 5.365s.106 5.364.238 5.364c.131 0 .238-2.401.238-5.364s-.107-5.365-.238-5.365ZM257.697 275.076c-.132 0-.239 2.402-.239 5.365s.107 5.364.239 5.364c.131 0 .237-2.401.237-5.364s-.106-5.365-.237-5.365Z" fill="#17282F"/><path d="m283.633 276.68-.761-.002c-.043-.99-.103-1.603-.169-1.603-.067 0-.127.613-.17 1.602a206.855 206.855 0 0 1-4.665-.079c-.043-.942-.102-1.523-.167-1.523-.063 0-.122.577-.165 1.513a195.776 195.776 0 0 1-4.679-.194c-.042-.821-.097-1.319-.156-1.319-.06 0-.114.49-.156 1.302a191.018 191.018 0 0 1-4.708-.318c-.039-.619-.087-.984-.137-.984-.051 0-.098.356-.137.962a174.617 174.617 0 0 1-4.763-.45c-.031-.328-.065-.512-.102-.512-.035 0-.069.176-.099.491-1.764-.192-3.512-.41-5.243-.652l53.111-.012c-.858.117-1.72.228-2.588.333-.017-.104-.037-.16-.058-.16-.02 0-.04.061-.06.174-1.623.197-3.261.373-4.908.529-.035-.447-.075-.703-.119-.703-.043 0-.084.264-.119.726-1.58.148-3.167.277-4.764.388-.04-.699-.091-1.114-.145-1.114-.056 0-.106.423-.146 1.134-1.56.105-3.124.194-4.695.263-.042-.867-.098-1.397-.16-1.397s-.119.535-.161 1.412c-1.554.067-3.113.117-4.672.149-.043-.965-.103-1.561-.168-1.561-.066 0-.125.599-.168 1.568-1.3.024-2.602.037-3.903.037Z" fill="url(#j)"/><path d="M307.761 275.25c.019-.114.039-.174.06-.174.02 0 .04.055.058.16l-.118.014ZM302.614 275.797c.035-.462.076-.726.12-.726.043 0 .083.256.118.704l-.238.022ZM297.559 276.203c.04-.71.09-1.133.146-1.133.054 0 .105.415.145 1.113l-.291.02ZM292.543 276.484c.042-.876.099-1.411.161-1.411s.118.529.16 1.397l-.321.014ZM287.535 276.641c.043-.969.103-1.567.168-1.567.065 0 .125.595.168 1.56l-.336.007ZM282.872 276.672a38.536 38.536 0 0 0-.34-.002c.043-.989.104-1.601.17-1.601.067 0 .127.613.17 1.603ZM277.867 276.594l-.332-.01c.043-.936.102-1.513.166-1.513.065 0 .123.581.166 1.523ZM272.855 276.391a32.385 32.385 0 0 0-.311-.017c.042-.812.096-1.302.155-1.302.06 0 .115.498.156 1.319ZM267.837 276.055l-.274-.023c.039-.606.086-.961.137-.961.051 0 .098.364.137.984ZM262.8 275.586l-.201-.022c.03-.315.064-.49.099-.49.037 0 .071.184.102.512Z" fill="#0F191D"/><path d="M256.464 274.925c0 .132 12.263.239 27.385.239 15.128 0 27.388-.107 27.388-.239 0-.131-12.26-.237-27.388-.237-15.122 0-27.385.106-27.385.237Z" fill="#17282F"/><path d="M261.688 296.656h54.87v-11.064h-54.87v11.064Z" fill="url(#k)"/><path d="M313.03 285.779c-.132 0-.238 2.401-.238 5.364s.106 5.365.238 5.365c.131 0 .238-2.402.238-5.365s-.107-5.364-.238-5.364ZM307.943 285.779c-.132 0-.239 2.401-.239 5.364s.107 5.365.239 5.365c.131 0 .237-2.402.237-5.365s-.106-5.364-.237-5.364ZM302.914 285.779c-.131 0-.238 2.401-.238 5.364s.107 5.365.238 5.365c.132 0 .238-2.402.238-5.365s-.106-5.364-.238-5.364ZM297.914 285.779c-.132 0-.238 2.401-.238 5.364s.106 5.365.238 5.365c.131 0 .238-2.402.238-5.365s-.107-5.364-.238-5.364ZM292.912 285.779c-.131 0-.238 2.401-.238 5.364s.107 5.365.238 5.365c.132 0 .238-2.402.238-5.365s-.106-5.364-.238-5.364ZM287.912 285.779c-.131 0-.238 2.401-.238 5.364s.107 5.365.238 5.365.238-2.402.238-5.365-.107-5.364-.238-5.364ZM282.912 285.779c-.132 0-.238 2.401-.238 5.364s.106 5.365.238 5.365c.131 0 .238-2.402.238-5.365s-.107-5.364-.238-5.364ZM277.91 285.779c-.131 0-.238 2.401-.238 5.364s.107 5.365.238 5.365c.132 0 .238-2.402.238-5.365s-.106-5.364-.238-5.364ZM272.908 285.779c-.132 0-.238 2.401-.238 5.364s.106 5.365.238 5.365c.131 0 .238-2.402.238-5.365s-.107-5.364-.238-5.364ZM267.908 285.779c-.132 0-.238 2.401-.238 5.364s.106 5.365.238 5.365c.131 0 .237-2.402.237-5.365s-.106-5.364-.237-5.364ZM262.906 285.779c-.131 0-.238 2.401-.238 5.364s.107 5.365.238 5.365c.132 0 .238-2.402.238-5.365s-.106-5.364-.238-5.364Z" fill="#17282F"/><path d="m288.841 287.383-.761-.002c-.043-.989-.103-1.602-.169-1.602-.067 0-.127.613-.17 1.601a201.126 201.126 0 0 1-4.665-.078c-.043-.942-.102-1.523-.167-1.523-.064 0-.122.576-.165 1.513a201.153 201.153 0 0 1-4.679-.195c-.042-.821-.097-1.318-.156-1.318-.06 0-.114.49-.156 1.301a191.024 191.024 0 0 1-4.708-.317c-.039-.62-.087-.984-.138-.984-.05 0-.097.356-.136.962-1.597-.13-3.186-.28-4.763-.45-.031-.329-.065-.512-.102-.512-.035 0-.069.175-.099.49a170.167 170.167 0 0 1-5.243-.652l53.112-.011c-.859.117-1.721.228-2.589.332-.018-.104-.037-.159-.058-.159-.02 0-.04.06-.06.174-1.623.196-3.261.372-4.909.529-.034-.448-.074-.703-.118-.703-.043 0-.084.264-.119.725-1.58.148-3.167.277-4.764.388-.04-.698-.091-1.113-.145-1.113-.056 0-.106.423-.146 1.133-1.56.106-3.124.194-4.695.264-.042-.868-.099-1.397-.16-1.397-.062 0-.119.534-.161 1.411-1.554.067-3.113.117-4.672.149-.043-.965-.103-1.56-.168-1.56-.066 0-.125.599-.168 1.567-1.3.024-2.602.037-3.903.037Z" fill="url(#l)"/><path d="M312.97 285.953c.019-.114.039-.175.06-.175.02 0 .04.056.058.16-.039.006-.08.01-.118.015ZM307.823 286.508c.035-.461.076-.726.12-.726.043 0 .083.256.117.703l-.237.023ZM302.769 286.914c.04-.71.09-1.133.146-1.133.054 0 .105.415.145 1.113l-.291.02ZM297.753 287.188c.042-.877.099-1.412.16-1.412.062 0 .119.529.161 1.398l-.321.014ZM292.744 287.344c.043-.968.103-1.567.168-1.567.065 0 .125.596.168 1.56l-.336.007ZM288.082 287.383l-.34-.002c.043-.988.103-1.601.17-1.601.066 0 .127.614.17 1.603ZM283.077 287.305l-.332-.01c.043-.937.101-1.514.166-1.514.064 0 .123.581.166 1.524ZM278.066 287.094l-.312-.017c.042-.811.097-1.302.156-1.302s.114.498.156 1.319ZM273.046 286.766l-.274-.022c.039-.606.086-.962.136-.962.052 0 .099.364.138.984ZM268.009 286.289l-.201-.022c.03-.316.064-.491.099-.491.037 0 .071.184.102.513Z" fill="#0F191D"/><path d="M261.674 285.629c0 .131 12.263.238 27.385.238 15.128 0 27.388-.107 27.388-.238 0-.132-12.26-.238-27.388-.238-15.122 0-27.385.106-27.385.238Z" fill="#17282F"/><path d="M255.26 307.219h54.87v-10.642h-54.87v10.642Z" fill="url(#m)"/><path d="M306.603 296.752c-.132 0-.239 2.31-.239 5.159 0 2.85.107 5.159.239 5.159.131 0 .238-2.309.238-5.159 0-2.849-.107-5.159-.238-5.159ZM301.517 296.752c-.132 0-.239 2.31-.239 5.159 0 2.85.107 5.159.239 5.159.131 0 .238-2.309.238-5.159 0-2.849-.107-5.159-.238-5.159ZM296.487 296.752c-.132 0-.238 2.31-.238 5.159 0 2.85.106 5.159.238 5.159.131 0 .238-2.309.238-5.159 0-2.849-.107-5.159-.238-5.159ZM291.486 296.752c-.132 0-.238 2.31-.238 5.159 0 2.85.106 5.159.238 5.159.131 0 .238-2.309.238-5.159 0-2.849-.107-5.159-.238-5.159ZM286.486 296.752c-.132 0-.239 2.31-.239 5.159 0 2.85.107 5.159.239 5.159.131 0 .237-2.309.237-5.159 0-2.849-.106-5.159-.237-5.159ZM281.484 296.752c-.132 0-.238 2.31-.238 5.159 0 2.85.106 5.159.238 5.159.131 0 .238-2.309.238-5.159 0-2.849-.107-5.159-.238-5.159ZM276.483 296.752c-.132 0-.239 2.31-.239 5.159 0 2.85.107 5.159.239 5.159.131 0 .237-2.309.237-5.159 0-2.849-.106-5.159-.237-5.159ZM271.481 296.752c-.132 0-.238 2.31-.238 5.159 0 2.85.106 5.159.238 5.159.131 0 .238-2.309.238-5.159 0-2.849-.107-5.159-.238-5.159ZM266.481 296.752c-.132 0-.238 2.31-.238 5.159 0 2.85.106 5.159.238 5.159.131 0 .238-2.309.238-5.159 0-2.849-.107-5.159-.238-5.159ZM261.48 296.752c-.132 0-.239 2.31-.239 5.159 0 2.85.107 5.159.239 5.159.131 0 .238-2.309.238-5.159 0-2.849-.107-5.159-.238-5.159ZM256.477 296.752c-.131 0-.238 2.31-.238 5.159 0 2.85.107 5.159.238 5.159.132 0 .239-2.309.239-5.159 0-2.849-.107-5.159-.239-5.159Z" fill="#17282F"/><path d="m282.414 298.859-.74-.001c-.043-1.275-.113-2.102-.191-2.102-.079 0-.148.826-.192 2.1a157.99 157.99 0 0 1-4.621-.1c-.043-1.217-.112-2-.188-2-.077 0-.144.777-.188 1.987-1.549-.06-3.095-.142-4.635-.247-.043-1.068-.107-1.74-.179-1.74-.07 0-.133.662-.177 1.715a152.44 152.44 0 0 1-4.665-.401c-.042-.818-.098-1.314-.159-1.314-.06 0-.115.484-.156 1.281a147.52 147.52 0 0 1-4.724-.569c-.035-.453-.076-.712-.12-.712-.043 0-.084.247-.118.678-1.39-.193-2.77-.406-4.139-.64v-.19l52.025-.014c-.853.148-1.71.288-2.571.422-.023-.166-.048-.256-.074-.256-.028 0-.054.098-.077.28-1.611.248-3.238.472-4.873.67-.038-.599-.086-.95-.137-.95-.053 0-.101.365-.141.984-1.565.186-3.139.35-4.721.49-.043-.912-.102-1.474-.167-1.474-.066 0-.125.574-.168 1.504-1.544.133-3.096.245-4.651.334-.044-1.124-.109-1.838-.182-1.838-.074 0-.14.723-.183 1.859-1.539.085-3.083.147-4.628.188-.043-1.244-.113-2.047-.19-2.047-.078 0-.147.808-.19 2.057-1.292.031-2.587.046-3.88.046Z" fill="url(#n)"/><path d="M306.525 297.039c.024-.183.05-.281.078-.281.026 0 .051.09.074.257l-.152.024ZM301.375 297.742c.039-.619.088-.983.14-.983.052 0 .099.351.138.95l-.278.033ZM296.319 298.258c.043-.93.103-1.504.168-1.504.066 0 .124.562.167 1.474l-.335.03ZM291.303 298.617c.043-1.136.109-1.859.183-1.859.072 0 .138.714.182 1.838l-.365.021ZM286.296 298.812c.043-1.249.112-2.056.19-2.056.077 0 .147.803.19 2.047-.127.004-.253.007-.38.009ZM281.676 298.859l-.383-.002c.044-1.273.113-2.1.192-2.1.078 0 .148.827.191 2.102ZM276.67 298.758l-.376-.014c.044-1.209.111-1.987.188-1.987.076 0 .145.783.188 2.001ZM271.66 298.5l-.355-.025c.043-1.053.107-1.715.177-1.715.071 0 .135.672.178 1.74ZM266.64 298.07c-.105-.01-.212-.021-.316-.033.042-.797.097-1.28.157-1.28.061 0 .117.496.159 1.313ZM261.601 297.469l-.239-.034c.035-.432.075-.678.118-.678.044 0 .086.259.121.712Z" fill="#0F191D"/><path d="M255.247 296.613c0 .132 12.262.239 27.386.239 15.128 0 27.387-.107 27.387-.239s-12.259-.238-27.387-.238c-15.124 0-27.386.106-27.386.238Z" fill="#17282F"/><path d="M258.789 317.867h54.871v-10.641h-54.871v10.641Z" fill="url(#o)"/><path d="M310.131 307.4c-.131 0-.238 2.31-.238 5.159 0 2.85.107 5.16.238 5.16.132 0 .238-2.31.238-5.16 0-2.849-.106-5.159-.238-5.159ZM305.042 307.4c-.131 0-.237 2.31-.237 5.159 0 2.85.106 5.16.237 5.16.132 0 .239-2.31.239-5.16 0-2.849-.107-5.159-.239-5.159ZM300.014 307.4c-.131 0-.238 2.31-.238 5.159 0 2.85.107 5.16.238 5.16.132 0 .239-2.31.239-5.16 0-2.849-.107-5.159-.239-5.159ZM295.014 307.4c-.132 0-.239 2.31-.239 5.159 0 2.85.107 5.16.239 5.16.131 0 .238-2.31.238-5.16 0-2.849-.107-5.159-.238-5.159ZM290.012 307.4c-.131 0-.238 2.31-.238 5.159 0 2.85.107 5.16.238 5.16.132 0 .239-2.31.239-5.16 0-2.849-.107-5.159-.239-5.159ZM285.012 307.4c-.131 0-.238 2.31-.238 5.159 0 2.85.107 5.16.238 5.16.132 0 .239-2.31.239-5.16 0-2.849-.107-5.159-.239-5.159ZM280.011 307.4c-.132 0-.239 2.31-.239 5.159 0 2.85.107 5.16.239 5.16s.238-2.31.238-5.16c0-2.849-.106-5.159-.238-5.159ZM275.01 307.4c-.131 0-.238 2.31-.238 5.159 0 2.85.107 5.16.238 5.16.132 0 .239-2.31.239-5.16 0-2.849-.107-5.159-.239-5.159ZM270.008 307.4c-.131 0-.237 2.31-.237 5.159 0 2.85.106 5.16.237 5.16.132 0 .238-2.31.238-5.16 0-2.849-.106-5.159-.238-5.159ZM265.008 307.4c-.131 0-.238 2.31-.238 5.159 0 2.85.107 5.16.238 5.16.132 0 .238-2.31.238-5.16 0-2.849-.106-5.159-.238-5.159ZM260.006 307.4c-.131 0-.237 2.31-.237 5.159 0 2.85.106 5.16.237 5.16.132 0 .239-2.31.239-5.16 0-2.849-.107-5.159-.239-5.159Z" fill="#17282F"/><path d="M285.942 309.805c-.242 0-.486 0-.729-.002-.042-1.443-.117-2.401-.201-2.401-.085 0-.159.958-.202 2.398-1.535-.012-3.07-.049-4.602-.111-.043-1.379-.115-2.287-.197-2.287-.083 0-.155.9-.198 2.27a138.721 138.721 0 0 1-4.616-.277c-.043-1.213-.111-1.993-.188-1.993-.076 0-.143.767-.186 1.963a131.882 131.882 0 0 1-4.647-.453c-.043-.933-.102-1.51-.168-1.51-.064 0-.123.561-.166 1.471-1.578-.186-3.148-.4-4.705-.642-.037-.524-.082-.829-.129-.829s-.09.289-.127.789c-1.754-.277-3.494-.59-5.216-.938l53.111-.016c-.85.166-1.705.325-2.563.476-.026-.201-.053-.311-.082-.311-.03 0-.059.121-.086.341-1.605.28-3.225.532-4.855.755-.041-.686-.091-1.096-.147-1.096-.056 0-.108.426-.149 1.136-1.559.211-3.127.396-4.703.554-.043-1.038-.106-1.69-.176-1.69-.071 0-.134.667-.178 1.725a144.71 144.71 0 0 1-4.631.378c-.043-1.276-.113-2.103-.192-2.103-.08 0-.149.838-.192 2.127-1.534.095-3.071.166-4.61.212-.042-1.408-.116-2.339-.2-2.339-.083 0-.156.936-.199 2.351-1.29.035-2.58.052-3.871.052Z" fill="url(#p)"/><path d="M310.045 307.742c.027-.22.056-.34.085-.34.029 0 .056.11.082.31l-.167.03ZM304.895 308.539c.04-.71.092-1.136.148-1.136.056 0 .106.41.147 1.096l-.295.04ZM299.838 309.125c.044-1.058.107-1.725.177-1.725.07 0 .133.652.177 1.69l-.354.035ZM294.822 309.531c.043-1.289.113-2.126.193-2.126.078 0 .148.827.191 2.102l-.384.024ZM289.813 309.75c.043-1.415.116-2.351.2-2.351s.157.931.199 2.339l-.399.012ZM285.214 309.805l-.402-.004c.042-1.44.116-2.397.201-2.397s.159.958.201 2.401ZM280.208 309.688l-.396-.017c.044-1.37.116-2.27.198-2.27.083 0 .155.907.198 2.287ZM275.198 309.398l-.375-.03c.043-1.195.111-1.962.187-1.962s.145.78.188 1.992ZM270.176 308.914l-.334-.039c.043-.91.102-1.471.166-1.471.066 0 .125.577.168 1.51ZM265.137 308.234a22.65 22.65 0 0 1-.256-.04c.037-.499.08-.788.127-.788s.092.305.129.828Z" fill="#0F191D"/><path d="M258.774 307.262c0 .131 12.262.238 27.385.238 15.129 0 27.389-.107 27.389-.238 0-.132-12.26-.238-27.389-.238-15.123 0-27.385.106-27.385.238Z" fill="#17282F"/><path d="M255.653 328.359h54.871v-10.641h-54.871v10.641Z" fill="url(#q)"/><path d="M306.996 317.9c-.132 0-.238 2.31-.238 5.159 0 2.85.106 5.16.238 5.16.131 0 .237-2.31.237-5.16 0-2.849-.106-5.159-.237-5.159ZM301.909 317.9c-.132 0-.238 2.31-.238 5.159 0 2.85.106 5.16.238 5.16.131 0 .238-2.31.238-5.16 0-2.849-.107-5.159-.238-5.159ZM296.88 317.9c-.131 0-.237 2.31-.237 5.159 0 2.85.106 5.16.237 5.16.132 0 .239-2.31.239-5.16 0-2.849-.107-5.159-.239-5.159ZM291.879 317.9c-.131 0-.237 2.31-.237 5.159 0 2.85.106 5.16.237 5.16.132 0 .239-2.31.239-5.16 0-2.849-.107-5.159-.239-5.159ZM286.879 317.9c-.131 0-.238 2.31-.238 5.159 0 2.85.107 5.16.238 5.16.132 0 .238-2.31.238-5.16 0-2.849-.106-5.159-.238-5.159ZM281.876 317.9c-.131 0-.237 2.31-.237 5.159 0 2.85.106 5.16.237 5.16.132 0 .239-2.31.239-5.16 0-2.849-.107-5.159-.239-5.159ZM276.876 317.9c-.131 0-.238 2.31-.238 5.159 0 2.85.107 5.16.238 5.16.132 0 .238-2.31.238-5.16 0-2.849-.106-5.159-.238-5.159ZM271.875 317.9c-.132 0-.238 2.31-.238 5.159 0 2.85.106 5.16.238 5.16.131 0 .238-2.31.238-5.16 0-2.849-.107-5.159-.238-5.159ZM266.874 317.9c-.132 0-.238 2.31-.238 5.159 0 2.85.106 5.16.238 5.16.131 0 .237-2.31.237-5.16 0-2.849-.106-5.159-.237-5.159ZM261.872 317.9c-.131 0-.238 2.31-.238 5.159 0 2.85.107 5.16.238 5.16.132 0 .238-2.31.238-5.16 0-2.849-.106-5.159-.238-5.159ZM256.871 317.9c-.132 0-.238 2.31-.238 5.159 0 2.85.106 5.16.238 5.16.131 0 .238-2.31.238-5.16 0-2.849-.107-5.159-.238-5.159Z" fill="#17282F"/><path d="m282.808 320-.739-.002c-.044-1.275-.113-2.102-.192-2.102s-.149.826-.192 2.1a161.575 161.575 0 0 1-4.621-.099c-.043-1.217-.111-2.001-.188-2.001s-.144.778-.188 1.987c-1.548-.06-3.095-.142-4.635-.247-.043-1.067-.107-1.74-.179-1.74-.069 0-.133.663-.176 1.715-1.562-.11-3.118-.243-4.665-.401-.043-.817-.098-1.314-.159-1.314-.06 0-.115.484-.157 1.281a142.01 142.01 0 0 1-4.724-.569c-.035-.452-.076-.712-.12-.712-.043 0-.083.247-.118.679-1.758-.245-3.5-.522-5.225-.83l53.111-.015c-.853.148-1.709.289-2.571.423-.023-.166-.048-.257-.074-.257-.027 0-.053.099-.077.28a147.53 147.53 0 0 1-4.872.67c-.04-.598-.087-.95-.139-.95-.052 0-.1.365-.139.984-1.566.187-3.14.35-4.722.491-.043-.913-.102-1.475-.167-1.475-.065 0-.125.575-.168 1.504a158.45 158.45 0 0 1-4.651.335c-.043-1.124-.109-1.839-.182-1.839s-.139.724-.183 1.859c-1.539.084-3.083.148-4.628.189-.043-1.244-.112-2.048-.19-2.048s-.147.808-.191 2.057a161.77 161.77 0 0 1-3.879.047Z" fill="url(#r)"/><path d="M306.918 318.18c.024-.182.05-.281.077-.281.027 0 .052.091.075.258l-.152.023ZM301.768 318.883c.039-.618.087-.984.139-.984.052 0 .099.352.138.95l-.277.034ZM296.711 319.406c.043-.929.102-1.504.168-1.504.065 0 .124.563.167 1.475l-.335.029ZM291.696 319.758c.043-1.135.11-1.859.183-1.859s.139.715.182 1.839l-.365.02ZM286.688 319.953c.043-1.249.112-2.057.19-2.057s.147.804.19 2.048l-.38.009ZM282.068 320l-.383-.002c.043-1.274.113-2.1.191-2.1.079 0 .149.828.192 2.102ZM277.063 319.898a23.934 23.934 0 0 1-.375-.014c.043-1.208.111-1.987.187-1.987.077 0 .145.784.188 2.001ZM272.053 319.641l-.355-.025c.043-1.053.107-1.716.177-1.716.071 0 .135.674.178 1.741ZM267.032 319.211l-.316-.033c.041-.798.096-1.282.157-1.282s.116.498.159 1.315ZM261.992 318.609l-.238-.032c.035-.432.075-.68.118-.68.044 0 .086.26.12.712Z" fill="#0F191D"/><path d="M255.639 317.754c0 .132 12.262.238 27.385.238 15.128 0 27.388-.106 27.388-.238 0-.131-12.26-.238-27.388-.238-15.123 0-27.385.107-27.385.238Z" fill="#17282F"/><path d="M310.523 328.359a.823.823 0 0 1-.017-.182l-.016-.535-.031-2.071-.054-7.708-.001-.118h.119l3.024-.014-.132.132-.031-10.648.163.163-3.528.007h-.169v-.17l-.01-10.559v-.179h.179l3.67-.001h2.757l-.179.18.01-11.268.169.17-5.209-.01h-.16v-.16l.033-10.319v-.128l.127.001 1.344.006-.121.122-.027-8.1.01-2.177.011-.562a.752.752 0 0 1 .016-.192c.005 0 .011.065.019.191l.022.563.054 2.175.137 8.1.002.122h-.123l-1.344.005.127-.126.033 10.319-.16-.16 5.209-.009.17-.001v.17l.01 11.268v.179h-.18l-2.757.001-3.67-.001.179-.179-.01 10.559-.169-.169 3.528.007h.163v.162c-.012 3.939-.023 7.54-.031 10.648v.132h-.132l-3.024-.013.119-.119-.054 7.708-.031 2.071c-.008.22-.013.395-.017.535a.691.691 0 0 1-.017.182ZM235.156 328.07l-100.654-.466c-12.106-.055-21.875-9.912-21.824-22.017l1.066-252.343c.051-12.112 9.914-21.889 22.027-21.833l100.654.465c12.106.056 21.876 9.913 21.825 22.018l-1.067 252.343c-.052 12.112-9.914 21.889-22.027 21.833Z" fill="#17282F"/><path d="m236.281 40.586-19.515-.09-56.994-.263-6.864-.032-17.08-.079c-8.483-.038-15.39 6.808-15.426 15.29l-1.042 246.305c-.035 8.479 6.807 15.382 15.285 15.421l100.453.463c8.482.04 15.39-6.807 15.426-15.29l1.042-246.304c.036-8.479-6.806-15.382-15.285-15.421Z" fill="#FAFAF9"/><path d="M240.807 202.922H140.192c-1.763 0-3.192-2.19-3.192-4.892v-94.216c0-2.702 1.429-4.892 3.192-4.892h100.615c1.764 0 3.193 2.19 3.193 4.892v94.216c0 2.702-1.429 4.892-3.193 4.892Z" fill="#C1CCD1"/><path d="M237.807 199.922H137.193c-1.764 0-3.193-2.211-3.193-4.939V99.861c0-2.728 1.429-4.94 3.193-4.94h100.614c1.764 0 3.193 2.212 3.193 4.94v95.122c0 2.728-1.429 4.939-3.193 4.939Z" fill="#9AABB5"/><path d="M234.807 196.922H134.193c-1.764 0-3.193-2.232-3.193-4.986v-96.03c0-2.752 1.429-4.984 3.193-4.984h100.614c1.764 0 3.193 2.232 3.193 4.984v96.03c0 2.754-1.429 4.986-3.193 4.986Z" fill="url(#s)"/><path d="M131 93.922a3 3 0 0 1 3-3h101a3 3 0 0 1 3 3v17H131v-17Z" fill="#9AABB5"/><path d="M238 110.641H131v10.009h107v-10.009Z" fill="#17282F"/><path d="m145.167 117.209.216-.47c.322.241.713.372 1.115.371.527 0 .753-.188.753-.437 0-.729-2.013-.254-2.013-1.51 0-.545.437-1.006 1.364-1.006.395-.009.785.096 1.124.301l-.198.47a1.877 1.877 0 0 0-.941-.263c-.522 0-.733.202-.733.47 0 .72 2.003.254 2.003 1.496 0 .541-.437 1.002-1.368 1.002a2.182 2.182 0 0 1-1.322-.424ZM161.153 117.568v-2.239l-1.115 1.839h-.277l-1.115-1.825v2.211h-.597v-3.382h.531l1.341 2.243 1.322-2.243h.517v3.382l-.607.014ZM171.855 114.719h-1.12v-.531h2.869v.531h-1.119v2.85h-.63v-2.85ZM197.866 114.719h-1.12v-.531h2.869v.531h-1.124v2.85h-.625v-2.85ZM210.522 114.716v1.044h1.632v.531h-1.632v1.294h-.63v-3.382h2.469v.527l-1.839-.014ZM223.193 117.209l.217-.47c.321.241.712.372 1.114.371.527 0 .748-.188.748-.437 0-.729-2.008-.254-2.008-1.51 0-.545.437-1.006 1.364-1.006a2.08 2.08 0 0 1 1.124.301l-.197.47a1.88 1.88 0 0 0-.941-.263c-.522 0-.734.202-.734.47 0 .72 2.004.254 2.004 1.496 0 .541-.442 1.002-1.369 1.002a2.182 2.182 0 0 1-1.322-.424ZM189.117 114.188l-1.12 3.381h-.668l-.837-2.502-.851 2.502h-.668l-1.119-3.381h.649l.842 2.568.874-2.568h.584l.856 2.586.865-2.586h.593Z" fill="#fff"/><path d="M186.553 163.765a5.851 5.851 0 1 0 0-11.704 5.851 5.851 0 0 0 0 11.704Z" fill="#17282F"/><path d="M211.702 129.391v3.377h-.631v-2.851h-.715v-.526h1.346ZM226.231 132.221v.527h-2.493v-.419l1.341-1.274c.329-.315.385-.513.385-.701 0-.31-.211-.47-.625-.47a.939.939 0 0 0-.795.352l-.438-.338a1.57 1.57 0 0 1 1.285-.56c.733 0 1.208.372 1.208.974a1.36 1.36 0 0 1-.559 1.067l-.903.842h1.594ZM148.271 144.403c0 .569-.428 1.063-1.336 1.063a2.094 2.094 0 0 1-1.27-.395l.268-.47c.284.22.634.336.993.329.446 0 .715-.197.715-.508 0-.31-.226-.503-.739-.503h-.306v-.433l.767-.912h-1.538v-.527h2.305v.423l-.838.96a.962.962 0 0 1 .905.599.982.982 0 0 1 .074.374ZM161.578 144.639h-.598v.766h-.611v-.766h-1.853v-.433l1.665-2.183h.672l-1.571 2.084h1.106v-.682h.592v.682h.598v.532ZM173.666 144.375c0 .597-.433 1.091-1.34 1.091a2.094 2.094 0 0 1-1.27-.395l.263-.47c.287.217.637.333.997.329.447 0 .715-.197.715-.513 0-.315-.207-.526-.908-.526h-.818l.174-1.844h1.985v.522h-1.454l-.07.785h.324c.998-.009 1.402.424 1.402 1.021ZM187.273 144.357a1.125 1.125 0 0 1-.775 1.049 1.142 1.142 0 0 1-.457.052c-.941 0-1.468-.598-1.468-1.684 0-1.157.678-1.797 1.661-1.797.31-.008.617.066.889.217l-.236.47a1.131 1.131 0 0 0-.639-.165c-.64 0-1.04.395-1.04 1.167a1.14 1.14 0 0 1 .903-.353 1.067 1.067 0 0 1 .813.264 1.067 1.067 0 0 1 .349.78Zm-.607.033c0-.353-.263-.578-.677-.578a.624.624 0 0 0-.687.583c0 .315.254.569.701.569a.58.58 0 0 0 .588-.34.587.587 0 0 0 .052-.234h.023ZM199.639 142.023v.424l-1.317 2.958h-.668l1.27-2.85h-1.331v.578h-.583v-1.11h2.629ZM212.672 144.452c0 .626-.546 1.021-1.387 1.021-.842 0-1.379-.395-1.379-1.021a.85.85 0 0 1 .541-.809.775.775 0 0 1-.418-.71c0-.579.508-.941 1.256-.941.747 0 1.265.362 1.265.941a.772.772 0 0 1-.428.71.856.856 0 0 1 .55.809Zm-.635 0c0-.334-.292-.541-.752-.541-.461 0-.744.207-.744.541 0 .334.278.546.744.546.465 0 .733-.226.733-.546h.019Zm-1.411-1.467c0 .287.245.47.64.47s.649-.183.649-.47-.264-.471-.649-.471c-.386 0-.64.141-.64.447v.024ZM225.711 143.661c0 1.157-.673 1.797-1.656 1.797a1.686 1.686 0 0 1-.889-.221l.235-.471c.193.116.415.173.64.165.639 0 1.039-.4 1.039-1.167a1.154 1.154 0 0 1-.903.353 1.047 1.047 0 0 1-.812-.262 1.058 1.058 0 0 1-.354-.777 1.126 1.126 0 0 1 1.237-1.096c.922-.005 1.463.578 1.463 1.679Zm-.729-.63c0-.32-.25-.569-.701-.569a.575.575 0 0 0-.459.138.591.591 0 0 0-.2.435c0 .353.264.574.677.574a.617.617 0 0 0 .467-.141.609.609 0 0 0 .216-.437ZM146.823 156.367v3.382h-.631v-2.855h-.714v-.527h1.345ZM147.48 158.053c0-1.11.612-1.741 1.412-1.741.799 0 1.411.631 1.411 1.741s-.607 1.735-1.411 1.735c-.805 0-1.412-.625-1.412-1.735Zm2.197 0c0-.819-.32-1.195-.785-1.195-.466 0-.777.376-.777 1.195 0 .818.32 1.19.777 1.19.456 0 .785-.377.785-1.19ZM160.369 156.367v3.382h-.626v-2.855h-.691v-.527h1.317ZM162.212 156.367v3.382h-.63v-2.855h-.715v-.527h1.345ZM172.739 156.367v3.382h-.626v-2.855h-.715v-.527h1.341ZM175.857 159.209v.532h-2.488v-.419l1.341-1.275c.329-.315.385-.512.385-.701 0-.31-.211-.47-.625-.47a.941.941 0 0 0-.795.353l-.438-.339a1.561 1.561 0 0 1 1.284-.559c.734 0 1.209.371 1.209.973a1.353 1.353 0 0 1-.56 1.063l-.903.861 1.59-.019Z" fill="#000"/><path d="M185.593 156.367v3.382h-.625v-2.855h-.715v-.527h1.34ZM188.683 158.731c0 .57-.428 1.059-1.336 1.059-.454.011-.9-.126-1.27-.391l.268-.47c.284.22.634.336.993.329.447 0 .715-.197.715-.508 0-.31-.226-.503-.739-.503h-.306v-.433l.767-.912h-1.538v-.527h2.305v.423l-.819.974a.968.968 0 0 1 .96.959Z" fill="#fff"/><path d="M198.213 156.367v3.382h-.626v-2.855h-.715v-.527h1.341ZM201.901 158.976h-.602v.767h-.607v-.767h-1.853v-.419l1.665-2.182h.673l-1.571 2.084h1.105v-.682h.588v.682h.602v.517ZM211.298 156.367v3.382h-.625v-2.855h-.715v-.527h1.34ZM214.427 158.703c0 .598-.428 1.087-1.336 1.087-.454.011-.9-.126-1.27-.391l.264-.47c.286.218.637.333.997.329.447 0 .715-.197.715-.512 0-.316-.207-.527-.908-.527h-.818l.174-1.844h1.984v.527h-1.453l-.07.785h.324c.997-.014 1.397.4 1.397 1.016ZM224.049 156.367v3.382h-.63v-2.855h-.715v-.527h1.345ZM227.422 158.693a1.118 1.118 0 0 1-.38.817 1.13 1.13 0 0 1-.857.279c-.94 0-1.467-.593-1.467-1.679 0-1.157.677-1.797 1.66-1.797.31-.008.617.066.889.217l-.235.47a1.134 1.134 0 0 0-.64-.165c-.639 0-1.039.395-1.039 1.162a1.144 1.144 0 0 1 .903-.353 1.057 1.057 0 0 1 1.166 1.049Zm-.611.028c0-.348-.264-.573-.677-.573a.615.615 0 0 0-.682.583c0 .315.249.569.696.569a.57.57 0 0 0 .246-.021.576.576 0 0 0 .363-.317.585.585 0 0 0 .054-.241ZM146.823 169.016v3.381h-.631v-2.855h-.714v-.526h1.345ZM150.03 169.016v.418l-1.312 2.963h-.673l1.27-2.85h-1.326v.574h-.584v-1.105h2.625ZM159.65 169.016v3.381h-.63v-2.855h-.715v-.526h1.345ZM163.064 171.424c0 .63-.546 1.021-1.388 1.021-.842 0-1.378-.391-1.378-1.021a.854.854 0 0 1 .541-.804.784.784 0 0 1-.419-.711c0-.578.508-.94 1.256-.94s1.265.367 1.265.94a.776.776 0 0 1-.428.711.847.847 0 0 1 .551.804Zm-.635 0c0-.334-.287-.541-.753-.541s-.743.207-.743.541c0 .334.282.546.743.546s.753-.221.753-.565v.019Zm-1.388-1.468c0 .287.24.471.635.471s.649-.188.649-.471c0-.282-.263-.47-.649-.47s-.635.146-.635.452v.018ZM172.655 169.016v3.381h-.631v-2.855h-.714v-.526h1.345ZM175.927 170.648c0 1.157-.677 1.797-1.655 1.797a1.723 1.723 0 0 1-.889-.216l.23-.471c.192.118.415.175.64.165.64 0 1.039-.395 1.039-1.166a1.143 1.143 0 0 1-.903.352 1.056 1.056 0 0 1-1.067-.61 1.056 1.056 0 0 1-.094-.424 1.126 1.126 0 0 1 1.237-1.101c.921-.009 1.462.588 1.462 1.674Zm-.729-.62c0-.316-.254-.57-.701-.57a.592.592 0 0 0-.663.574c0 .353.268.579.678.579a.62.62 0 0 0 .686-.583ZM186.285 171.874v.532h-2.493v-.423l1.345-1.275c.329-.315.386-.513.386-.701 0-.31-.212-.47-.626-.47a.934.934 0 0 0-.795.353l-.437-.339a1.557 1.557 0 0 1 1.284-.565c.734 0 1.209.377 1.209.974a1.361 1.361 0 0 1-.56 1.068l-.908.861 1.595-.015ZM186.633 170.709c0-1.11.607-1.74 1.411-1.74s1.411.63 1.411 1.74c0 1.11-.612 1.74-1.411 1.74-.8 0-1.411-.63-1.411-1.74Zm2.192 0c0-.814-.315-1.19-.781-1.19s-.776.376-.776 1.19.315 1.195.776 1.195.781-.377.781-1.195ZM199.926 171.874v.532h-2.489v-.423l1.341-1.275c.329-.315.386-.513.386-.701 0-.31-.212-.47-.626-.47a.93.93 0 0 0-.795.353l-.437-.339a1.557 1.557 0 0 1 1.284-.565c.733 0 1.209.377 1.209.974a1.375 1.375 0 0 1-.56 1.068l-.903.861 1.59-.015ZM201.458 169.016v3.381h-.63v-2.855h-.715v-.526h1.345ZM212.385 171.874v.532h-2.493v-.423l1.345-1.275c.329-.315.386-.513.386-.701 0-.31-.212-.47-.631-.47a.931.931 0 0 0-.79.353l-.437-.339a1.557 1.557 0 0 1 1.284-.565c.733 0 1.204.377 1.204.974a1.35 1.35 0 0 1-.56 1.068l-.903.846h1.595ZM215.198 171.874v.532h-2.493v-.423l1.34-1.275c.33-.315.386-.513.386-.701 0-.31-.212-.47-.625-.47a.931.931 0 0 0-.795.353l-.438-.339a1.557 1.557 0 0 1 1.284-.565c.734 0 1.209.377 1.209.974a1.36 1.36 0 0 1-.56 1.068l-.893.846h1.585ZM225.329 171.874v.532h-2.493v-.423l1.345-1.275c.325-.315.386-.513.386-.701 0-.31-.212-.47-.631-.47a.931.931 0 0 0-.79.353l-.442-.339a1.568 1.568 0 0 1 1.289-.565c.734 0 1.204.377 1.204.974a1.35 1.35 0 0 1-.56 1.068l-.903.861 1.595-.015ZM228.089 171.394c0 .569-.428 1.063-1.336 1.063a2.129 2.129 0 0 1-1.27-.39l.269-.471c.283.221.633.338.992.334.447 0 .715-.197.715-.513 0-.315-.226-.503-.734-.503h-.31v-.428l.766-.912h-1.533v-.527h2.3v.418l-.818.979a.928.928 0 0 1 .68.272.927.927 0 0 1 .279.678ZM148.092 185.729v.532h-2.493v-.424l1.341-1.279c.329-.31.39-.508.39-.696 0-.31-.216-.47-.63-.47a.931.931 0 0 0-.79.352l-.442-.338a1.553 1.553 0 0 1 1.284-.56c.734 0 1.209.372 1.209.969a1.35 1.35 0 0 1-.56 1.068l-.903.86 1.594-.014ZM151.394 185.49h-.597v.767h-.612v-.767h-1.853v-.437l1.665-2.178h.673l-1.571 2.084h1.105v-.682h.593v.682h.597v.531ZM161.159 185.729v.532h-2.488v-.423l1.34-1.28c.33-.31.386-.508.386-.696 0-.31-.212-.47-.626-.47a.934.934 0 0 0-.795.353l-.437-.339a1.566 1.566 0 0 1 1.284-.56c.734 0 1.209.372 1.209.969a1.36 1.36 0 0 1-.56 1.068l-.903.86 1.59-.014ZM163.981 185.214c0 .593-.428 1.087-1.336 1.087a2.138 2.138 0 0 1-1.275-.391l.268-.47a1.6 1.6 0 0 0 .993.334c.47 0 .715-.198.715-.518 0-.319-.207-.526-.908-.526h-.814l.174-1.839h1.985v.526h-1.439l-.076.781h.325c.988-.019 1.388.419 1.388 1.016ZM173.942 185.729v.532h-2.493v-.423l1.341-1.28c.329-.31.385-.508.385-.696 0-.31-.211-.47-.625-.47a.931.931 0 0 0-.795.353l-.438-.339a1.566 1.566 0 0 1 1.284-.56c.734 0 1.209.372 1.209.969a1.36 1.36 0 0 1-.559 1.068l-.904.86 1.595-.014ZM176.987 185.209a1.11 1.11 0 0 1-.104.449 1.112 1.112 0 0 1-.675.598 1.112 1.112 0 0 1-.458.049c-.941 0-1.463-.593-1.463-1.679 0-1.162.677-1.797 1.66-1.797.31-.011.616.064.885.217l-.231.47a1.133 1.133 0 0 0-.639-.165c-.64 0-1.04.395-1.04 1.162a1.156 1.156 0 0 1 .903-.353 1.068 1.068 0 0 1 .813.268 1.06 1.06 0 0 1 .349.781Zm-.607.028c0-.352-.268-.573-.677-.573a.616.616 0 0 0-.687.578c0 .32.254.569.701.569a.581.581 0 0 0 .46-.138.581.581 0 0 0 .203-.436ZM186.864 185.729v.532h-2.493v-.423l1.345-1.28c.325-.31.386-.508.386-.696 0-.31-.212-.47-.63-.47a.935.935 0 0 0-.791.353l-.442-.339a1.59 1.59 0 0 1 .578-.433c.224-.097.467-.14.711-.127.734 0 1.204.372 1.204.969a1.349 1.349 0 0 1-.56 1.068l-.903.86 1.595-.014ZM189.761 182.875v.419l-1.312 2.963h-.673l1.27-2.851h-1.331v.574h-.583v-1.105h2.629ZM199.624 185.729v.532h-2.474v-.423l1.341-1.28c.329-.31.385-.508.385-.696 0-.31-.211-.47-.625-.47a.93.93 0 0 0-.795.353l-.437-.339a1.563 1.563 0 0 1 1.284-.56c.733 0 1.208.372 1.208.969a1.353 1.353 0 0 1-.559 1.068l-.903.86 1.575-.014ZM202.734 185.283c0 .631-.546 1.021-1.388 1.021-.842 0-1.378-.39-1.378-1.021a.845.845 0 0 1 .541-.804.77.77 0 0 1-.419-.71c0-.579.508-.941 1.256-.941s1.265.362 1.265.941a.777.777 0 0 1-.432.71.854.854 0 0 1 .555.804Zm-.635 0c0-.329-.292-.541-.753-.541s-.743.212-.743.541c0 .33.277.546.743.546.466 0 .753-.221.753-.564v.018Zm-1.411-1.467c0 .291.244.47.639.47s.645-.183.645-.47-.259-.47-.645-.47c-.385 0-.621.136-.621.451l-.018.019ZM212.564 185.729v.532h-2.493v-.423l1.345-1.28c.325-.31.386-.508.386-.696 0-.31-.212-.47-.63-.47a.927.927 0 0 0-.438.08.924.924 0 0 0-.352.273l-.443-.339a1.572 1.572 0 0 1 1.289-.56c.734 0 1.204.372 1.204.969a1.349 1.349 0 0 1-.559 1.068l-.903.86 1.594-.014ZM215.526 184.511c0 1.162-.673 1.797-1.656 1.797a1.687 1.687 0 0 1-.889-.216l.231-.471c.194.118.418.175.644.165.64 0 1.04-.395 1.04-1.162a1.154 1.154 0 0 1-.903.353 1.062 1.062 0 0 1-1.072-.614 1.054 1.054 0 0 1-.095-.425 1.127 1.127 0 0 1 1.237-1.096c.922-.01 1.463.583 1.463 1.669Zm-.729-.616c0-.32-.249-.574-.701-.574a.593.593 0 0 0-.605.339.587.587 0 0 0-.053.24c0 .353.263.574.677.574a.612.612 0 0 0 .682-.579ZM225.282 185.238c0 .569-.432 1.063-1.34 1.063a2.144 2.144 0 0 1-1.27-.391l.273-.47c.281.22.63.338.987.334.471 0 .715-.198.715-.513s-.221-.503-.733-.503h-.311v-.428l.772-.913h-1.539v-.526h2.305v.418l-.823.979a.939.939 0 0 1 .964.95ZM225.691 184.568c0-1.114.607-1.74 1.411-1.74.805 0 1.412.626 1.412 1.74 0 1.115-.612 1.736-1.412 1.736-.799 0-1.411-.626-1.411-1.736Zm2.192 0c0-.818-.32-1.194-.781-1.194-.46 0-.78.376-.78 1.194 0 .819.32 1.19.78 1.19.461 0 .781-.395.781-1.19Z" fill="#000"/><path d="M147.791 104.462a.23.23 0 0 1-.164-.066l-2.583-2.582a.235.235 0 0 1 0-.324l2.583-2.907a.235.235 0 0 1 .38.076.234.234 0 0 1 0 .181.236.236 0 0 1-.051.077l-2.422 2.723 2.422 2.427a.24.24 0 0 1 .063.12.228.228 0 0 1-.014.134.238.238 0 0 1-.214.146v-.005ZM226.256 104.466a.212.212 0 0 1-.155-.061.228.228 0 0 1-.072-.165.234.234 0 0 1 .072-.165l2.436-2.737-2.427-2.427a.237.237 0 0 1 0-.334.235.235 0 0 1 .334 0l2.582 2.582a.245.245 0 0 1 0 .325l-2.587 2.902a.236.236 0 0 1-.183.08ZM210.107 100.95c0 .071-9.661.123-21.579.123-11.919 0-21.585-.052-21.585-.123 0-.07 9.661-.122 21.585-.122 11.923 0 21.579.057 21.579.122Z" fill="#fff"/><path d="M237.027 62.974a1.257 1.257 0 1 1-2.513-.008 1.257 1.257 0 0 1 2.513.008ZM237.009 67.498a1.257 1.257 0 1 1-2.515-.01 1.257 1.257 0 0 1 2.515.01ZM236.993 72.013a1.256 1.256 0 1 1-2.513-.008 1.256 1.256 0 0 1 2.513.008Z" fill="#17282F"/><path d="M216.438 251.922h-61.395c-6.651 0-12.043-5.392-12.043-12.043v-4.739c0-6.651 5.392-12.043 12.043-12.043h61.395c6.651 0 12.043 5.392 12.043 12.043v4.739c0 6.651-5.392 12.043-12.043 12.043Z" fill="url(#t)"/><path d="M161.695 241.922v-8h1.664v3.008h.051c.073-.162.179-.326.317-.493a1.66 1.66 0 0 1 .546-.421c.227-.115.508-.172.844-.172.438 0 .841.114 1.211.344.37.226.665.569.887 1.027.221.456.332 1.027.332 1.715 0 .669-.108 1.234-.324 1.695-.214.458-.506.806-.875 1.043a2.253 2.253 0 0 1-1.235.352c-.323 0-.597-.054-.824-.161a1.708 1.708 0 0 1-.551-.402 2.055 2.055 0 0 1-.328-.496h-.074v.961h-1.641Zm1.629-3c0 .357.05.668.149.933.099.266.242.473.429.622.188.145.416.218.684.218.271 0 .5-.074.687-.222.188-.151.33-.36.426-.625.099-.269.149-.577.149-.926a2.66 2.66 0 0 0-.145-.914 1.353 1.353 0 0 0-.426-.617 1.075 1.075 0 0 0-.691-.223c-.271 0-.5.072-.688.215a1.351 1.351 0 0 0-.425.609 2.637 2.637 0 0 0-.149.93Zm8.044 3.117c-.607 0-1.131-.129-1.574-.387-.44-.26-.78-.622-1.02-1.086-.239-.466-.359-1.006-.359-1.621 0-.619.12-1.161.359-1.625.24-.466.58-.828 1.02-1.086.443-.26.967-.39 1.574-.39.607 0 1.13.13 1.57.39.443.258.784.62 1.024 1.086.239.464.359 1.006.359 1.625 0 .615-.12 1.155-.359 1.621-.24.464-.581.826-1.024 1.086-.44.258-.963.387-1.57.387Zm.008-1.289c.276 0 .506-.078.691-.234.185-.159.325-.375.418-.649.097-.273.145-.584.145-.933 0-.349-.048-.661-.145-.934a1.443 1.443 0 0 0-.418-.648 1.023 1.023 0 0 0-.691-.239c-.279 0-.513.08-.703.239-.188.158-.33.375-.426.648a2.865 2.865 0 0 0-.141.934c0 .349.047.66.141.933.096.274.238.49.426.649.19.156.424.234.703.234Zm6.738 1.289c-.607 0-1.131-.129-1.574-.387-.44-.26-.78-.622-1.019-1.086-.24-.466-.36-1.006-.36-1.621 0-.619.12-1.161.36-1.625a2.613 2.613 0 0 1 1.019-1.086c.443-.26.967-.39 1.574-.39.607 0 1.13.13 1.571.39.442.258.783.62 1.023 1.086.24.464.359 1.006.359 1.625 0 .615-.119 1.155-.359 1.621a2.64 2.64 0 0 1-1.023 1.086c-.441.258-.964.387-1.571.387Zm.008-1.289c.276 0 .507-.078.691-.234.185-.159.325-.375.418-.649.097-.273.145-.584.145-.933 0-.349-.048-.661-.145-.934a1.443 1.443 0 0 0-.418-.648 1.02 1.02 0 0 0-.691-.239c-.279 0-.513.08-.703.239a1.463 1.463 0 0 0-.426.648c-.094.273-.14.585-.14.934 0 .349.046.66.14.933.097.274.238.49.426.649.19.156.424.234.703.234Zm5.535-.555.004-1.996h.242l1.922-2.277h1.91l-2.582 3.016h-.394l-1.102 1.257Zm-1.508 1.727v-8h1.664v8h-1.664Zm3.75 0-1.765-2.613 1.109-1.176 2.606 3.789h-1.95Zm7.91.117c-.615 0-1.144-.13-1.586-.391a2.641 2.641 0 0 1-1.016-1.093c-.234-.466-.352-1.003-.352-1.61 0-.614.119-1.153.356-1.617.24-.466.579-.829 1.019-1.09.441-.263.964-.394 1.571-.394.523 0 .982.095 1.375.285.393.19.704.457.933.801.23.343.356.747.379 1.211h-1.57a1.205 1.205 0 0 0-.352-.723c-.187-.185-.433-.277-.738-.277-.258 0-.483.07-.676.211a1.34 1.34 0 0 0-.445.605c-.107.266-.16.587-.16.965 0 .383.052.708.156.976.107.269.257.473.449.614.193.14.418.211.676.211.19 0 .361-.039.512-.118a.994.994 0 0 0 .379-.339c.101-.151.168-.332.199-.543h1.57a2.46 2.46 0 0 1-.375 1.211 2.26 2.26 0 0 1-.918.812c-.39.195-.853.293-1.386.293Zm5.456-.004c-.383 0-.724-.066-1.024-.199a1.652 1.652 0 0 1-.711-.598c-.172-.265-.258-.596-.258-.992 0-.333.062-.613.184-.84.122-.226.289-.409.5-.547.211-.138.451-.242.719-.312.271-.07.554-.12.851-.149.349-.036.631-.07.844-.101.214-.034.369-.083.465-.149a.326.326 0 0 0 .144-.289v-.023c0-.247-.078-.439-.234-.574-.154-.136-.372-.203-.656-.203-.3 0-.538.066-.715.199a.92.92 0 0 0-.352.492l-1.539-.125c.079-.365.232-.68.461-.945a2.22 2.22 0 0 1 .887-.618 3.412 3.412 0 0 1 1.266-.218c.333 0 .652.039.957.117.307.078.579.199.816.363.24.164.429.375.567.633.138.255.207.561.207.918v4.047h-1.579v-.832h-.046a1.716 1.716 0 0 1-.387.496 1.8 1.8 0 0 1-.582.332 2.41 2.41 0 0 1-.785.117Zm.476-1.148c.245 0 .461-.048.649-.145.187-.099.334-.232.441-.398.107-.167.16-.356.16-.567v-.636a.886.886 0 0 1-.215.093 4.096 4.096 0 0 1-.636.133l-.305.043a2.06 2.06 0 0 0-.512.137.814.814 0 0 0-.34.254.621.621 0 0 0-.121.39c0 .227.082.4.246.52.167.117.378.176.633.176Zm5.858-6.965v8h-1.664v-8h1.664Zm2.997 0v8h-1.664v-8h1.664Z" fill="#fff"/><path d="M140.716 69.515a5.547 5.547 0 1 1-11.095 0 5.547 5.547 0 0 1 11.095 0Z" fill="url(#u)"/><path d="M203.515 71.523h-37.498a2.033 2.033 0 0 1-2.033-2.032v-.8c0-1.122.911-2.032 2.033-2.032h37.498c1.123 0 2.033.91 2.033 2.033v.8c0 1.122-.91 2.031-2.033 2.031Z" fill="#C1CCD1"/><path d="M232.091 273.961h-84.847v-5.667h84.847v5.667Z" fill="#17282F"/><path d="M151.261 271.123c.745.248 10.682.248 10.682 19.875 0 19.626-.496 43.972 9.938 44.718 10.434.745 65.337 0 65.337 0V286.46c0-8.21-6.629-14.878-14.84-14.926l-71.117-.411Z" fill="#FAFAF9"/><path d="m151.261 271.124 41.268.123 20.941.078 5.74.026c1.936.042 3.933-.103 5.932.293a15.087 15.087 0 0 1 5.65 2.334 15.25 15.25 0 0 1 4.333 4.543 15.108 15.108 0 0 1 2.147 6.064c.132 1.087.135 2.191.13 3.278l.002 3.297.005 13.525.003 28.442v2.781l-.191.002c-19.201.23-37.462.402-54.056.271a436.246 436.246 0 0 1-6.143-.096c-2.027-.075-4.004-.052-5.994-.323a6.781 6.781 0 0 1-2.693-1.263c-.764-.632-1.398-1.385-1.931-2.191-1.043-1.629-1.699-3.421-2.217-5.195-1.007-3.566-1.451-7.121-1.764-10.526-.304-3.41-.436-6.692-.513-9.823-.162-6.261-.036-11.926-.11-16.888-.097-4.945-.865-9.237-2.397-12.373a13.478 13.478 0 0 0-2.656-3.749 10.178 10.178 0 0 0-2.801-1.869c-1.696-.692-2.709-.704-2.685-.761l.705.107a9.734 9.734 0 0 1 2.01.582 10.13 10.13 0 0 1 2.848 1.858 13.484 13.484 0 0 1 2.713 3.767c1.567 3.154 2.36 7.468 2.477 12.433.094 4.972-.012 10.631.166 16.886.087 3.127.226 6.403.538 9.803.319 3.394.771 6.936 1.776 10.465.515 1.754 1.168 3.52 2.185 5.103.519.783 1.133 1.507 1.864 2.11a6.415 6.415 0 0 0 2.553 1.192c1.9.256 3.926.238 5.934.309 2.018.041 4.065.073 6.138.088 16.588.111 34.849-.072 54.048-.304l-.191.193v-2.589l.004-28.442.005-13.525.002-3.297c.006-1.097.003-2.175-.124-3.233a14.755 14.755 0 0 0-2.09-5.921 14.9 14.9 0 0 0-4.227-4.443 14.733 14.733 0 0 0-5.517-2.288c-1.94-.39-3.921-.251-5.855-.296l-5.712-.04-20.836-.164-41.414-.354Z" fill="#17282F"/><path d="M172.134 335.719s8.589 0 10.429-12.67c2.194-15.095 0-28.321 11.677-28.819 11.676-.497 42.979 0 42.979 0v41.489h-65.085Z" fill="#C1CCD1"/><path d="M192.771 294.376s9.417-1.142 9.417 14.509.248 26.003 10.683 27.162c10.434 1.16 74.529 0 74.529 0s-10.185-4.803-10.93-18.963c-.745-14.161-3.727-22.801-13.912-23.077-10.186-.276-69.787.369-69.787.369Z" fill="#FAFAF9"/><path d="m192.772 294.373.633-.026 1.853-.039 7.137-.107 26.271-.288 18.162-.126 10.124-.014c1.74.009 3.506.016 5.299.052 1.795.071 3.647.3 5.377 1.033 1.717.748 3.234 1.982 4.37 3.512 1.145 1.529 1.962 3.296 2.578 5.132 1.163 3.701 1.682 7.641 1.958 11.636.067.999.119 2.009.229 3.003l.149 1.5.279 1.486.141.746.203.732.419 1.465c.37.948.695 1.92 1.18 2.827 1.79 3.665 4.676 6.961 8.349 8.972l.651.355-.729.013-1.776.031c-17.201.282-33.59.469-48.496.466-7.453-.016-14.536-.035-21.166-.317-1.653-.113-3.296-.149-4.877-.526-1.569-.383-3.056-1.082-4.225-2.129-1.176-1.037-2.029-2.352-2.619-3.715-.602-1.365-.983-2.775-1.254-4.163-.539-2.781-.704-5.475-.805-8.012-.096-2.54-.101-4.935-.104-7.174.008-1.121.003-2.2-.049-3.235-.027-.517-.019-1.029-.073-1.524l-.179-1.452-.087-.704-.151-.675-.294-1.306-.411-1.204-.204-.578-.264-.533a9.16 9.16 0 0 0-2.465-3.304 7.245 7.245 0 0 0-2.65-1.462 7.098 7.098 0 0 0-1.843-.338c-.212-.015-.371-.012-.479-.011l-.162.001c-.007.005.051-.016.161-.021.108-.007.268-.018.482-.009a6.855 6.855 0 0 1 1.864.304c.8.223 1.765.66 2.7 1.448a9.249 9.249 0 0 1 2.528 3.326c1.475 2.849 1.812 6.822 1.792 11.276.013 2.238.029 4.632.134 7.165.11 2.531.285 5.214.827 7.969.274 1.373.655 2.765 1.248 4.1.582 1.335 1.415 2.609 2.554 3.606 1.132 1.009 2.569 1.682 4.101 2.052 1.536.363 3.174.399 4.82.507 6.615.268 13.7.276 21.15.282 14.903-.017 31.289-.215 48.489-.497l1.776-.03-.08.368c-3.798-2.08-6.698-5.418-8.53-9.153-.491-.923-.822-1.91-1.198-2.874l-.425-1.488-.206-.744-.142-.757-.282-1.509-.15-1.519c-.111-1.015-.163-2.013-.228-3.01-.272-3.981-.788-7.896-1.931-11.548-.605-1.81-1.406-3.542-2.517-5.029-1.104-1.488-2.562-2.678-4.222-3.404-1.674-.711-3.474-.939-5.245-1.012-1.787-.039-3.552-.049-5.292-.061l-10.122-.005-18.16.079-26.272.165-7.137.036h-1.856l-.631-.013Z" fill="#17282F"/><path d="M195.255 294.352c0 .046-.752-.031-2.081.154-1.306.186-3.269.758-4.994 2.433-1.752 1.629-3.056 4.292-3.71 7.381-.675 3.104-.711 6.622-.872 10.3-.154 3.679-.397 7.216-1.199 10.336-.386 1.562-.956 2.99-1.538 4.288-.592 1.297-1.258 2.467-2.03 3.417a8.44 8.44 0 0 1-2.51 2.118c-.862.458-1.677.673-2.342.811-.672.106-1.198.153-1.555.143-.357.003-.543-.002-.543-.015 0-.014.186-.035.539-.063.354-.014.872-.086 1.529-.213.648-.158 1.44-.389 2.268-.853a8.305 8.305 0 0 0 2.4-2.099c.739-.937 1.378-2.09 1.951-3.378.565-1.295 1.115-2.701 1.485-4.243.772-3.082 1.004-6.591 1.158-10.265.161-3.669.207-7.211.91-10.36.684-3.133 2.042-5.851 3.872-7.504a8.923 8.923 0 0 1 5.161-2.383c.338-.041.638-.064.9-.062.261-.01.482-.011.66.006.356.02.543.038.541.051Z" fill="#17282F"/><path d="M226.518 282.494c0 .106-12.037.194-26.884.194-14.851 0-26.886-.088-26.886-.194 0-.107 12.035-.194 26.886-.194 14.847 0 26.884.087 26.884.194ZM227.63 290.494c0 .107-11.64.194-25.995.194-14.36 0-25.997-.087-25.997-.194 0-.107 11.637-.194 25.997-.194 14.355 0 25.995.087 25.995.194ZM264.29 306.048c0 .107-12.038.194-26.883.194-14.851 0-26.886-.087-26.886-.194 0-.106 12.035-.193 26.886-.193 14.845 0 26.883.087 26.883.193ZM264.957 315.384c0 .107-11.043.194-24.662.194-13.624 0-24.664-.087-24.664-.194 0-.107 11.04-.193 24.664-.193 13.619 0 24.662.086 24.662.193Z" fill="#DADBD8"/><path d="m36.868 96.35-4.915-.593a18.798 18.798 0 0 1-10.96 3.159c-9.618-.242-17.62-7.908-18.296-17.504-.78-11.09 8.127-20.471 19.323-20.183 9.504.245 17.442 7.731 18.257 17.204.404 4.7-.94 9.105-3.463 12.62l.008-.007.046 5.304Z" fill="#fff"/><path d="M36.868 96.355s-.009-.126-.015-.358l-.025-1.026-.075-3.92.113.053-.008.007-.097-.01-.003-.084c1.338-1.9 2.823-4.72 3.307-8.399.248-1.83.218-3.85-.158-5.95a18.755 18.755 0 0 0-2.435-6.297 19.11 19.11 0 0 0-5.089-5.444c-2.114-1.516-4.628-2.699-7.386-3.191a19.124 19.124 0 0 0-8.545.368c-2.855.764-5.554 2.316-7.783 4.431-1.158 1.044-2.09 2.287-2.946 3.547-.38.66-.77 1.314-1.095 1.993l-.446 1.038-.22.517-.166.535c-.947 2.832-1.158 5.81-.774 8.604.37 2.806 1.467 5.39 2.908 7.582a19.145 19.145 0 0 0 5.294 5.33 18.824 18.824 0 0 0 6.245 2.68l1.557.273c.512.078 1.024.088 1.521.135.998.077 1.965.031 2.885-.054a18.806 18.806 0 0 0 8.484-3.01l.046-.01 3.621.476.952.131c.216.03.333.053.333.053s-.1-.005-.31-.025l-.94-.098-3.673-.404.046-.01a18.76 18.76 0 0 1-8.537 3.114c-.93.093-1.908.145-2.919.073-.504-.044-1.022-.052-1.541-.128l-1.58-.27a19.033 19.033 0 0 1-6.347-2.69 19.399 19.399 0 0 1-5.393-5.396c-1.471-2.223-2.592-4.85-2.974-7.705-.396-2.843-.185-5.873.776-8.758l.17-.545.223-.527.453-1.056c.33-.692.727-1.359 1.114-2.03.87-1.284 1.82-2.549 2.998-3.612 2.27-2.154 5.02-3.733 7.927-4.508a19.41 19.41 0 0 1 8.697-.365c2.806.507 5.362 1.715 7.506 3.262a19.354 19.354 0 0 1 5.151 5.545 18.957 18.957 0 0 1 2.443 6.4c.37 2.132.388 4.176.125 6.026a18.774 18.774 0 0 1-3.413 8.45l-.1-.094.009-.007.097.01.016.043-.007 3.964-.007 1.009c-.002.224-.01.332-.01.332Z" fill="#17282F"/><path d="m13.175 81.233 2.361-2.528 4.857 4.03 8.95-9.22 2.354 2.367-11.493 11.579-7.03-6.228Z" fill="url(#v)"/><path d="M54.746 72.31c1.134-7.346 7.719-12.588 15.131-12.047l.737.053c7.908 1.042 11.44 8.34 10.18 16.217L78.04 104.49l-.133 5.778-18.836 1.709.405-12.2s-7.548-1.745-7.086-9.385c.223-3.69 1.3-11.251 2.355-18.082Z" fill="#F9A78D"/><path d="M59.415 99.764s4.853.648 10.215-2.199c0 0-2.654 5.511-10.22 4.268l.005-2.069Z" fill="url(#w)"/><path d="M57.703 79.924c-.062.574.373 1.1.971 1.176.598.076 1.133-.327 1.195-.9.063-.575-.372-1.102-.97-1.177-.598-.077-1.133.327-1.196.9ZM56.115 76.166c.124.151.994-.4 2.168-.31 1.172.07 1.99.737 2.127.603.067-.06-.052-.327-.407-.627-.349-.298-.959-.608-1.69-.659-.731-.049-1.365.176-1.739.425-.38.25-.521.499-.46.568ZM68.696 80.97c-.062.575.373 1.1.972 1.177.597.076 1.132-.327 1.195-.901.062-.574-.373-1.1-.97-1.177-.598-.076-1.134.327-1.197.902ZM67.63 77.22c.124.152.996-.398 2.168-.31 1.172.071 1.99.738 2.127.603.067-.06-.05-.325-.407-.626-.35-.298-.96-.609-1.69-.658-.731-.05-1.366.174-1.739.424-.38.25-.521.498-.46.567ZM62.738 85.614c.01-.066-.71-.246-1.88-.483-.297-.052-.576-.132-.612-.341-.055-.222.094-.535.265-.873l1.051-2.217c1.467-3.158 2.552-5.763 2.425-5.821-.128-.058-1.42 2.454-2.887 5.612l-1.016 2.233c-.138.332-.361.705-.241 1.165.064.23.272.408.46.474.188.073.357.087.504.107 1.185.15 1.922.21 1.931.144ZM66.13 86.675c-.189-.025-.284 1.248-1.44 2.072-1.154.828-2.5.586-2.524.763-.023.08.284.27.856.327.56.06 1.395-.06 2.102-.564.705-.506 1.045-1.225 1.126-1.744.088-.53-.031-.855-.12-.854ZM67.66 72.606c.093.327 1.276.262 2.64.528 1.37.238 2.45.722 2.653.45.091-.132-.08-.446-.506-.788-.422-.34-1.11-.685-1.93-.837-.82-.15-1.586-.075-2.102.093-.52.167-.793.399-.754.554ZM56.793 72.8c.187.282 1.015.064 1.987.121.975.024 1.782.31 1.992.046.093-.13-.017-.406-.359-.685-.335-.277-.913-.525-1.582-.554-.67-.027-1.266.172-1.624.42-.363.25-.496.516-.414.652Z" fill="#17282F"/><path d="M79.025 83.876c.134-1.174 1.217-2.03 2.383-1.834 1.413.24 2.939 1.163 2.63 4.099-.546 5.206-5.66 3.583-5.654 3.432.004-.101.393-3.52.641-5.697Z" fill="#F9A78D"/><path d="M79.724 87.732c.024-.014.083.073.23.16a.911.911 0 0 0 .676.084c.571-.144 1.126-.968 1.25-1.904a3.009 3.009 0 0 0-.118-1.325c-.118-.398-.337-.69-.609-.768a.463.463 0 0 0-.56.192c-.086.138-.064.246-.093.252-.016.012-.103-.099-.038-.31a.584.584 0 0 1 .24-.305.687.687 0 0 1 .515-.08c.398.07.72.478.863.907a3.1 3.1 0 0 1 .162 1.485c-.144 1.045-.784 1.97-1.56 2.11-.376.056-.67-.087-.815-.226-.147-.145-.163-.265-.144-.272Z" fill="url(#x)"/><path d="M83.197 78.568c-.43 1.493-.273 3.972-1.61 3.635-2.647-.667-2.012 4.761-3.283 4.229-1.254-.524-2.362-2.07-2.44-5.408-.1-4.24 1.607-7.301-.065-12.157-1.119-1.949-3.112-3.275-5.359-3.327-2.245-.052-4.416 1.085-5.624 2.98-.239-1.48-.959-3.711-2.277-4.424-1.318-.712-3.077-.628-4.212.35-1.136.978-1.446 2.846-.552 4.049a1.487 1.487 0 0 1-1.665-.599c-.055.69.19 1.399.662 1.906a2.343 2.343 0 0 1-1.344-.937l.395 1.837c-2.233.06-4.418-2.103-5.038-4.026-.94-2.916-.215-5.857 1.415-8.451 1.63-2.595 4.547-4.423 7.61-4.396 3.064.029 5.63 1.48 6.812 4.306 1.988-1.407 6.015-1.894 8.233-.887 2.217 1.009 3.826 3.247 4.073 5.67 1.387-.587 3.052-.13 4.22.819.098.08.193.16.284.246 1.602 1.479 2.258 3.73 1.85 5.872-.163.85-.456 1.73-.63 2.41-.514 2.026-1.455 6.303-1.455 6.303Z" fill="#17282F"/><path d="M55.764 67.758c-.005.005-.066-.043-.178-.142a3.156 3.156 0 0 1-.439-.481c-.346-.443-.755-1.198-.874-2.217-.126-1 .107-2.323 1.04-3.341.891-1.011 2.4-1.73 3.982-1.505.78.11 1.5.424 2.112.828.615.407 1.134.9 1.556 1.424a8.262 8.262 0 0 1 1.599 3.16c.256.982.282 1.811.26 2.374-.02.281-.038.5-.065.646-.022.147-.038.223-.046.222-.064.007.224-1.265-.307-3.2A8.305 8.305 0 0 0 62.8 62.46c-.825-.997-2.043-1.94-3.538-2.159-1.49-.214-2.933.462-3.792 1.419-.895.961-1.135 2.212-1.035 3.181a4.56 4.56 0 0 0 .785 2.182c.32.456.561.658.544.676Z" fill="#33535F"/><path d="M54.74 70.094c-.007.003-.06-.084-.157-.254-.096-.17-.236-.423-.409-.753-.337-.662-.844-1.622-1.226-2.909a8.32 8.32 0 0 1-.343-2.163c-.011-.79.099-1.65.453-2.478a4.82 4.82 0 0 1 1.788-2.129 5.855 5.855 0 0 1 2.834-.938c1.034-.07 2.043.134 2.95.472a9.295 9.295 0 0 1 2.415 1.375c1.403 1.095 2.324 2.51 2.639 3.825.326 1.317.118 2.443-.154 3.134-.132.352-.288.6-.39.767-.114.161-.177.243-.184.238-.023-.013.244-.34.49-1.036.24-.687.416-1.788.08-3.062-.326-1.27-1.234-2.637-2.612-3.699-1.36-1.051-3.21-1.905-5.22-1.784-.991.06-1.94.387-2.723.897a4.625 4.625 0 0 0-1.718 2.024c-.345.79-.46 1.623-.456 2.391.005.773.136 1.487.308 2.123.356 1.272.837 2.24 1.15 2.912l.369.771c.083.178.124.272.117.276ZM81.358 75.194c-.027-.034.48-.39 1.115-1.144a7.848 7.848 0 0 0 1.664-3.403 7.845 7.845 0 0 0-.174-3.785c-.281-.944-.605-1.474-.567-1.494.012-.007.104.117.243.36.14.243.316.61.48 1.085.331.94.558 2.364.244 3.88a7.463 7.463 0 0 1-1.768 3.464 6.37 6.37 0 0 1-.87.803c-.225.168-.359.245-.367.234ZM76.607 75.043c-.01-.022.26-.116.673-.397.405-.281.961-.782 1.315-1.584l.22-.499-.049.543-.224 2.497-.17-.102a6.834 6.834 0 0 0 1.704-1.669 6.754 6.754 0 0 0 1.165-2.747c.16-.912.114-1.76-.015-2.45-.265-1.39-.785-2.136-.737-2.156.007-.005.041.04.099.128.06.086.138.22.232.397.185.355.412.895.566 1.6a6.81 6.81 0 0 1 .065 2.517 6.809 6.809 0 0 1-1.188 2.846 6.875 6.875 0 0 1-1.77 1.716l-.194.13.024-.232.265-2.492.17.046a3.707 3.707 0 0 1-1.423 1.595c-.22.133-.403.212-.53.26-.126.044-.195.062-.198.053Z" fill="#33535F"/><path d="M75.159 64.061c-.046.032-.269-.743-1.208-1.505a4.43 4.43 0 0 0-1.876-.873c-.768-.158-1.66-.086-2.51.227a5.41 5.41 0 0 0-2.103 1.421 6.445 6.445 0 0 0-1.133 1.762c-.472 1.11-.52 1.877-.568 1.868-.013-.002-.013-.192.037-.53.05-.339.158-.827.38-1.4a6.26 6.26 0 0 1 1.126-1.842 5.463 5.463 0 0 1 2.18-1.495c.89-.328 1.828-.397 2.634-.22a4.451 4.451 0 0 1 1.937.956c.47.408.757.828.913 1.134.077.154.13.276.157.363.03.085.041.131.034.134Z" fill="#33535F"/><path d="M73.94 60.075c-.024.043-.508-.341-1.439-.555-.912-.22-2.304-.187-3.58.506-1.277.698-2.093 1.803-2.537 2.636-.452.843-.597 1.429-.638 1.416-.014-.004.009-.152.08-.415.071-.262.2-.636.413-1.076.416-.87 1.238-2.033 2.571-2.764 1.338-.726 2.795-.732 3.73-.461.474.131.835.306 1.064.454.23.147.343.249.335.26Z" fill="#33535F"/><path d="m57.169 306.141.525 14.29s-14.349 5.332-14.509 7.983l27.745-.023.095-22.3-13.856.05Z" fill="#17282F"/><path d="M66.271 319.219c.537.146.908.749.784 1.293-.124.542-.734.926-1.274.788-.54-.137-1.007-.847-.823-1.372.184-.526.925-.937 1.416-.674" fill="#DADBD8"/><path d="m70.93 328.391-.078-2.248-26.572.863s-1.234.538-1.094 1.408l27.744-.023Z" fill="#17282F"/><path d="M57.243 320.29c.005.135.682.196 1.35.631.677.418 1.021 1.005 1.146.95.125-.026-.078-.835-.895-1.348-.812-.52-1.63-.358-1.601-.233ZM54.335 321.495c-.03.131.556.361 1.017.933.477.56.594 1.179.729 1.173.127.022.22-.772-.366-1.473-.58-.706-1.377-.762-1.38-.633ZM52.686 324.976c.123.028.311-.649-.038-1.391-.343-.744-.982-1.036-1.039-.923-.077.111.335.509.612 1.123.291.606.33 1.177.465 1.191ZM57.486 317.018c.057.123.678-.064 1.444-.013.767.036 1.363.292 1.434.176.078-.098-.504-.599-1.407-.647-.902-.054-1.538.377-1.47.484Z" fill="#fff"/><path d="m89.006 307.446 1.104 17.266-3.064 13.907a1.774 1.774 0 0 0 3.005 1.614c2.534-2.638 11.809-12.389 11.657-13.649-.176-1.458.045-18.289.045-18.289l-12.747-.849Z" fill="#17282F"/><path d="m88.514 340.754 13.146-15.336.03.733a2.667 2.667 0 0 1-.561 1.754c-1.045 1.336-4.01 4.958-11.026 12.327a1.769 1.769 0 0 1-1.59.522Z" fill="#17282F"/><path d="M98.489 321.82c-.325 0-.655-.149-.842-.418-.28-.406-.197-1.01.159-1.346.149-.176.386-.256.635-.256.316 0 .652.129.846.352.346.397.184 1.186-.243 1.496a.942.942 0 0 1-.555.172Z" fill="#9BA6A6"/><path d="M92.155 333.037c-.096.052-.522-.838-1.57-1.282-1.035-.476-1.98-.193-2.006-.299-.016-.042.197-.185.599-.259.398-.076.985-.043 1.56.21.575.255.994.668 1.206 1.013.217.347.254.601.211.617ZM91.019 335.406c-.08.079-.657-.46-1.562-.68-.9-.24-1.665-.042-1.697-.148-.053-.086.763-.487 1.791-.22 1.03.256 1.556.999 1.468 1.048ZM94.325 329.978c-.078.086-.962-.748-2.34-1.212-1.369-.486-2.579-.378-2.588-.493-.031-.091 1.243-.384 2.713.134 1.475.501 2.296 1.519 2.215 1.571ZM94.427 324.699c-.041.106-1.012-.254-2.257-.248-1.245-.011-2.217.346-2.259.239-.05-.082.922-.627 2.26-.619 1.337-.003 2.308.546 2.256.628ZM94.232 319.626c-.05.103-1.034-.434-2.344-.321-1.312.086-2.204.764-2.267.671-.031-.035.15-.261.538-.507.386-.247.995-.488 1.701-.542.706-.052 1.344.094 1.763.28.422.185.633.381.609.419ZM91.88 318.336c-.021.001-.07-.23-.05-.653.021-.42.117-1.041.45-1.734.173-.328.35-.75.823-.997a.712.712 0 0 1 .81.126c.212.214.288.495.305.769.027 1.098-.871 2.198-2.1 2.406-1.233.187-2.384-.475-2.913-1.402-.118-.241-.205-.539-.082-.836.12-.3.466-.431.715-.399.517.055.853.338 1.163.545a5.062 5.062 0 0 1 1.235 1.294c.23.355.31.576.29.586-.059.048-.472-.83-1.68-1.66-.302-.19-.654-.432-1.025-.45-.18-.011-.332.066-.39.214-.061.143-.016.358.086.547.446.758 1.5 1.361 2.54 1.186 1.037-.165 1.825-1.133 1.812-2.017-.007-.212-.072-.424-.191-.546a.386.386 0 0 0-.445-.075c-.332.149-.542.521-.714.831-.677 1.3-.56 2.279-.639 2.265Z" fill="#fff"/><path d="M45.013 185.353s-2.291 8.094-1.758 18.032c.207 3.845 12.558 114.951 12.558 114.951l15.714-1.413-2.717-103.879.66.588s9.36 43.704 9.98 50.614c.557 6.21 8.03 56.098 8.03 56.098l15.248-.725-3.455-63.066-4.625-57.255-1.852-16.678-47.784 2.733Z" fill="#17282F"/><path d="M71.831 204.088c.01.022-.25.167-.739.395-.49.217-1.21.549-2.183.708a4.572 4.572 0 0 1-1.612-.026c-.571-.115-1.18-.373-1.666-.848s-.791-1.131-.98-1.809c-.19-.685-.292-1.394-.42-2.115a101.313 101.313 0 0 1-.984-7.446 58.054 58.054 0 0 1-.172-2.27c-.026-.537-.027-.835-.002-.836.026-.003.075.291.146.823l.288 2.254c.242 1.903.6 4.529 1.09 7.413.249 1.426.407 2.877 1.275 3.744.867.852 2.098.968 3.002.856.933-.118 1.66-.406 2.163-.581.503-.186.784-.286.794-.262ZM66.88 190.428c-.006-.016.115-.088.362-.098.243-.012.612.07.97.338.345.265.706.736.706 1.367.014.64-.499 1.256-1.155 1.476-.649.237-1.435.073-1.822-.437-.393-.495-.403-1.088-.299-1.51.115-.432.352-.726.55-.868.2-.146.34-.164.345-.148.047.049-.499.282-.639 1.071-.062.373-.012.87.304 1.235.303.375.9.497 1.44.307.539-.187.93-.654.935-1.136.02-.482-.25-.903-.53-1.155-.601-.531-1.173-.374-1.167-.442ZM94.427 198.274c.002.025-.21.053-.597.079-.386.033-.949.03-1.64-.019-1.383-.094-3.295-.473-5.239-1.341-1.941-.875-3.496-2.05-4.485-3.021-.497-.484-.873-.902-1.105-1.213-.237-.307-.358-.483-.338-.499.05-.042.596.614 1.62 1.519 1.019.907 2.56 2.02 4.46 2.876 1.9.848 3.757 1.26 5.112 1.418 1.356.163 2.21.135 2.212.201ZM52.073 190.411c.037.02-.276.721-.95 1.762a20.028 20.028 0 0 1-3.12 3.692 19.99 19.99 0 0 1-3.914 2.839c-1.088.594-1.81.854-1.828.816-.025-.055.655-.399 1.696-1.042a25.075 25.075 0 0 0 3.794-2.884 25.052 25.052 0 0 0 3.157-3.57c.72-.99 1.112-1.642 1.165-1.613Z" fill="#33535F"/><path d="M36.482 127.649c-2.338 6.813-2.077 6.233-6.444 26.59-.806 3.756.615 9.627 4.002 11.441 3.386 1.813 9.407-.178 11.422-3.448l3.245-30.728-12.225-3.855Z" fill="#F9A78D"/><path d="m92.807 164.569-.09-16.189.064-1.586 16.431-3.836s-3.226-10.628-6.184-22.049c-1.71-6.594-7.396-9.909-8.77-10.625v-.009l-.299-.141-.003-.001-15.813-6.693c-3.192 3.407-7.849 6.139-12.33 4.83-2.45-.716-4.966-2.525-6.503-4.439l-10.66 3.656v.005c-2.735.999-5.633 2.907-7.368 5.973-2.23 3.944-9.354 22.035-9.478 22.439l13.199 1.185s-2.343 42.812-1.513 50.461c0 0 3.205 2.217 11.295 2.598 16.4.775 40.81-.39 40.81-.39-.382-2.471-.784-6.597-1.009-8.686l-1.78-16.503Z" fill="url(#y)"/><path d="M45.45 121.146c.067.003-.283 10.213-.783 22.802-.499 12.593-.958 22.796-1.024 22.794-.067-.003.284-10.21.783-22.804.5-12.589.958-22.795 1.025-22.792ZM91 124.003c-.116.006.216 9.066.743 20.234.526 11.172 1.047 20.221 1.164 20.216.117-.006-.215-9.064-.741-20.236-.526-11.168-1.048-20.219-1.165-20.214Z" fill="#17282F"/><path d="M109.285 150.663c-.535-4.018-.979-7.572-.979-7.572l-13.139 3.051.561 2.116-10.156-10.316-1.609.138-5.111 5.317s4.456 9.414 7.047 13.079c3.373 4.768 8.676 12.036 15.935 11.425 6.711-.564 8.411-10.028 7.451-17.238Z" fill="#F9A78D"/><path d="M102.169 153.073c.079-.078-1.119-1.383-2.888-2.652-1.764-1.275-3.383-1.996-3.432-1.897-.057.109 1.448.987 3.184 2.241 1.74 1.248 3.051 2.397 3.136 2.308Z" fill="url(#z)"/><path d="m67.84 124.478 4.513-2.306 5.855 1.862 2.903 2.674 4.461 11.234 3.574 4.522-6.306 8.216-3.988-7.282s-3.386-1.48-4.74-3.615c-1.354-2.137-1.965-3.299-1.965-3.299s-1.956-.938-2.318-1.84c-.362-.901-.345-1.602-.345-1.602l.99-1.444s-.097-1.342.297-1.843c.395-.501.78-.62.78-.62s-.29-1.219.166-1.655c.457-.436 2.703-1.238 2.703-1.238l-1.97-1.118s-4.367 1.353-4.61-.646Z" fill="#F9A78D"/><path d="M74.543 128.562c0 .057-.692.074-1.518.252-.828.171-1.468.434-1.491.382-.024-.043.597-.394 1.451-.572.853-.182 1.563-.111 1.558-.062Z" fill="url(#A)"/><path d="M73.188 131.081c-.003.056-.593.055-1.305.165-.714.105-1.277.281-1.296.229-.02-.046.53-.31 1.267-.42.736-.114 1.34-.024 1.334.026Z" fill="url(#B)"/><path d="M71.278 135.031c-.054-.001-.091-.258-.085-.575.007-.316.055-.573.108-.571.054 0 .091.258.085.575-.006.316-.055.572-.108.571Z" fill="url(#C)"/><path d="M72.142 136.25c-.055.001-.02-.548-.417-1.04-.383-.506-.923-.603-.91-.656.003-.023.144-.038.358.031.213.066.49.233.704.506.212.272.308.582.321.805.014.224-.034.357-.056.354Z" fill="url(#D)"/><path d="M75.672 132.648c-.05.023-.242-.477-.788-.772-.536-.31-1.062-.21-1.07-.265-.005-.022.118-.085.338-.1.218-.017.531.032.827.197.296.165.501.405.602.6.102.195.113.334.091.34Z" fill="url(#E)"/><path d="M77.728 130.148c-.052.021-.228-.445-.721-.751-.485-.319-.983-.283-.986-.339-.002-.023.119-.069.326-.066.206.002.495.071.764.242.268.172.452.405.54.591.09.187.1.316.077.323Z" fill="url(#F)"/><path d="M79.106 128.922c-.029-.005-.016-.156-.047-.387a1.811 1.811 0 0 0-.33-.827 1.813 1.813 0 0 0-.697-.555c-.212-.097-.36-.128-.357-.157.001-.023.16-.043.405.029.241.07.567.249.804.567.236.319.314.682.31.934-.001.255-.066.401-.088.396Z" fill="url(#G)"/><path d="M77.195 125.984c.004.067-.946.083-2.084.256-1.14.177-2 .576-2.025.52-.026-.038.82-.527 1.994-.71a9.187 9.187 0 0 1 1.496-.112c.382.001.619.019.62.046Z" fill="url(#H)"/><path d="m43.839 164.258 6.4-19.01c.95.344 1.941.449 2.95.449 1.272 0 2.57-.167 3.841-.229.229-.012.46-.018.694-.018 2.094 0 4.313.491 5.5 2.165.762 1.073.95 2.438 1.116 3.743.122.968.219 2.044-.36 2.829-.453.613-1.218.899-1.95 1.111a19.9 19.9 0 0 1-5.318.783c-.13.002-.263.002-.395.002h-.52c-1.45 0-2.935.046-4.06.91-.99.762-1.464 1.994-2.119 3.056a9.525 9.525 0 0 1-5.78 4.209Z" fill="url(#I)"/><path d="m47.85 129.105 1.99 21.155c.11 1.172.565 1.989 1.308 2.435l12.83-.272c.523-.473 1.094-1.982.981-3.596l-1.421-20.249c-.086-1.217-.54-2.096-1.09-2.109l-13.515-.312c-.688-.016-1.224 1.443-1.082 2.948Z" fill="#17282F"/><path d="M45.987 133.364c-.543-.626-.47-1.642.041-2.294.512-.652 1.37-.966 2.198-.978.83-.012 1.64.244 2.407.558.947.387 1.857.868 2.711 1.432.603.398 1.226.913 1.33 1.629.103.716-.69 1.511-1.31 1.139.808.363 1.611 1.245 1.721 2.15.11.906-.383 1.379-1.263 1.619.659.273 1.065 1.118.745 1.756-.335.671-1.274.836-1.968.551-.695-.284-1.198-.887-1.672-1.468.479.866.439 2.255.228 3.222-1.913-.703-3.8-2.831-3.229-4.854-.93-.733-1.35-2.246-.769-3.276-.772-.261-1.626-1.468-1.546-2.279" fill="#F9A78D"/><path d="m45.772 131.519-.153 9.043-2.345 3.526-10.756 9.615s1.595 13.068 6.449 11.641c4.854-1.426 6.03-2.355 8.9-7.628 1.538-2.824 2.485-7.416 3.371-10.052.52-1.546.063-6.523.063-6.523l-5.53-9.622Z" fill="#F9A78D"/><path d="M53.805 138.624c-.023.023-.32-.249-.82-.657-.5-.399-1.227-.95-2.172-1.176a3.01 3.01 0 0 0-1.338-.03c-.404.091-.741.272-.988.466-.499.396-.618.807-.654.787-.01-.004.004-.107.08-.277.077-.169.228-.4.478-.625a2.48 2.48 0 0 1 1.039-.54c.433-.11.935-.104 1.431.013 1.002.241 1.74.837 2.221 1.268.481.444.74.752.723.771Z" fill="url(#J)"/><path d="M53.676 134.942c-.012.028-.403-.134-1.003-.445-.301-.152-.657-.337-1.068-.496a9.052 9.052 0 0 0-1.378-.392c-.497-.097-.982-.119-1.409-.046-.426.072-.789.24-1.054.43-.543.384-.665.818-.7.797-.011-.003.004-.111.087-.287.084-.173.249-.412.523-.63a2.568 2.568 0 0 1 1.109-.502c.455-.089.968-.07 1.483.031.517.105.987.247 1.412.418.42.175.773.376 1.066.546.583.345.944.551.932.576Z" fill="url(#K)"/><path d="M33.678 158.898c.086-.008-.48-1.283-.133-3.369.172-1.029.574-2.226 1.27-3.42.694-1.196 1.69-2.367 2.842-3.484 1.157-1.116 2.347-2.092 3.409-3.01 1.063-.915 1.994-1.779 2.718-2.562.723-.784 1.245-1.475 1.568-1.976.324-.5.463-.801.447-.81-.026-.016-.205.259-.56.729a19.225 19.225 0 0 1-1.637 1.883c-.739.752-1.677 1.588-2.75 2.487-1.069.901-2.27 1.873-3.443 3.003-1.167 1.132-2.18 2.336-2.878 3.576-.701 1.238-1.09 2.482-1.235 3.546-.142 1.068-.054 1.948.082 2.53.071.291.136.514.198.66.056.146.09.221.102.217Z" fill="url(#L)"/><path d="m305.012 129.637-31.759 11.605a3.069 3.069 0 0 0-1.744 1.598 3.069 3.069 0 0 0-.098 2.364l11.627 31.755a3.095 3.095 0 0 0 1.599 1.743 3.086 3.086 0 0 0 2.363.099l21.97-8.034 8.834-3.229.957-.356a3.1 3.1 0 0 0 1.741-1.602 3.09 3.09 0 0 0 .098-2.364l-11.621-31.729a3.062 3.062 0 0 0-1.598-1.752 3.066 3.066 0 0 0-2.369-.098Z" fill="#FAFAFA"/><path d="m292.324 154.599 4.943 13.235-2.448.914-4.173-11.173-2.798 1.045-.77-2.061 5.246-1.96ZM307.877 159.3c.831 2.227-.129 4.767-3.681 6.094a8.748 8.748 0 0 1-5.541.329l.362-2.233a6.562 6.562 0 0 0 4.365-.162c1.749-.653 2.509-1.818 2.055-3.033-.453-1.215-1.619-1.64-3.625-.89l-1.197.447-.632-1.694 1.666-4.692-6.019 2.249-.77-2.062 9.02-3.369.619 1.657-1.78 5.006a4.048 4.048 0 0 1 5.158 2.353Z" fill="#E0E0E0"/><path d="m270.759 143.418 34.411-12.397a1.937 1.937 0 0 1 2.479 1.166l3.611 10.022-37.533 13.523-3.805-10.559a1.368 1.368 0 0 1 .823-1.75l.014-.005Z" fill="#F5F5F5"/><path d="M296.839 140.242c.04.056-2.535 1.065-5.719 2.23-3.185 1.164-5.798 2.06-5.807 1.988-.009-.072 2.535-1.064 5.72-2.229 3.184-1.165 5.776-2.064 5.806-1.989Z" fill="#E0E0E0"/><path d="m292.542 131.343 2.239 6.121c.239.652.96.987 1.612.749l.084-.031c.652-.238.987-.96.749-1.612l-2.239-6.121a1.258 1.258 0 0 0-1.613-.749l-.083.031c-.652.238-.987.96-.749 1.612Z" fill="#EBEBEB"/><path d="M296.495 138.196c.239-.127.442-.313.589-.541a1.2 1.2 0 0 0 .138-.892c-.105-.343-.284-.755-.443-1.198-.34-.909-.739-1.968-1.183-3.142l-.683-1.856a1.183 1.183 0 0 0-.607-.699 1.162 1.162 0 0 0-.95-.006 1.127 1.127 0 0 0-.668.658 1.184 1.184 0 0 0-.065.468c.009.159.049.314.119.457.235.644.463 1.268.675 1.862.421 1.184.801 2.251 1.13 3.161.075.225.149.438.224.645.056.189.128.373.216.549.161.268.42.463.722.544.264.058.537.052.798-.018a.632.632 0 0 1-.195.091 1.224 1.224 0 0 1-.63.025 1.337 1.337 0 0 1-.817-.567 3.37 3.37 0 0 1-.248-.568c-.079-.204-.157-.415-.243-.638-.34-.909-.739-1.968-1.176-3.14a50.376 50.376 0 0 0-.71-1.844 1.477 1.477 0 0 1-.048-1.11 1.402 1.402 0 0 1 .821-.81 1.433 1.433 0 0 1 1.145.018 1.415 1.415 0 0 1 .733.839c.23.644.455 1.265.675 1.863.418 1.179.799 2.246 1.126 3.163.154.454.312.844.417 1.229.033.167.033.34 0 .507-.034.167-.1.326-.195.468-.117.176-.277.32-.465.417a.577.577 0 0 1-.202.065Z" fill="#E0E0E0"/><path d="m281.082 135.546 2.239 6.121c.239.652.961.987 1.613.749l.083-.031c.652-.238.987-.96.749-1.612l-2.239-6.121a1.257 1.257 0 0 0-1.613-.748l-.083.03c-.652.238-.987.96-.749 1.612Z" fill="#EBEBEB"/><path d="M285.016 142.384c.239-.128.442-.314.588-.542.161-.268.21-.588.139-.892-.106-.343-.284-.754-.443-1.198-.344-.905-.739-1.968-1.183-3.141-.219-.595-.448-1.213-.683-1.857a1.142 1.142 0 0 0-1.558-.705 1.128 1.128 0 0 0-.668.659 1.218 1.218 0 0 0 .054.924c.236.644.463 1.269.675 1.862l1.126 3.164.229.643c.055.189.128.372.216.548.161.267.417.463.717.548.266.056.541.048.803-.022a.649.649 0 0 1-.196.091 1.235 1.235 0 0 1-.63.026 1.337 1.337 0 0 1-.817-.568 3.335 3.335 0 0 1-.248-.568c-.079-.204-.156-.415-.243-.638-.34-.908-.739-1.968-1.176-3.14a46.35 46.35 0 0 0-.71-1.843 1.484 1.484 0 0 1-.048-1.111 1.4 1.4 0 0 1 .821-.81 1.453 1.453 0 0 1 1.146.018 1.417 1.417 0 0 1 .733.84l.671 1.865c.422 1.177.802 2.244 1.13 3.161.154.453.311.843.414 1.225.068.338-.001.69-.192.978-.118.178-.28.323-.47.42a.568.568 0 0 1-.197.063Z" fill="#E0E0E0"/><defs><linearGradient id="t" x1="143" y1="237.509" x2="228.481" y2="237.509" gradientUnits="userSpaceOnUse"><stop stop-color="#FF512F"/><stop offset="1" stop-color="#F09819"/></linearGradient><linearGradient id="a" x1="263.496" y1="38.801" x2="314.513" y2="65.305" gradientUnits="userSpaceOnUse"><stop stop-color="#FF512F"/><stop offset="1" stop-color="#F09819"/></linearGradient><linearGradient id="c" x1="256.985" y1="239.77" x2="308.835" y2="239.77" gradientUnits="userSpaceOnUse"><stop stop-color="#FF512F"/><stop offset="1" stop-color="#F09819"/></linearGradient><linearGradient id="d" x1="262.671" y1="239.534" x2="302.088" y2="239.534" gradientUnits="userSpaceOnUse"><stop stop-color="#FF512F"/><stop offset="1" stop-color="#F09819"/></linearGradient><linearGradient id="e" x1="262.671" y1="239.408" x2="294.74" y2="239.408" gradientUnits="userSpaceOnUse"><stop stop-color="#FF512F"/><stop offset="1" stop-color="#F09819"/></linearGradient><linearGradient id="f" x1="263.997" y1="240.009" x2="302.885" y2="240.009" gradientUnits="userSpaceOnUse"><stop stop-color="#FF512F"/><stop offset="1" stop-color="#F09819"/></linearGradient><linearGradient id="g" x1="257.711" y1="269.538" x2="312.582" y2="269.538" gradientUnits="userSpaceOnUse"><stop stop-color="#FF512F"/><stop offset="1" stop-color="#F09819"/></linearGradient><linearGradient id="h" x1="258.587" y1="264.908" x2="311.698" y2="264.908" gradientUnits="userSpaceOnUse"><stop stop-color="#FF512F"/><stop offset="1" stop-color="#F09819"/></linearGradient><linearGradient id="i" x1="256.478" y1="280.421" x2="311.348" y2="280.421" gradientUnits="userSpaceOnUse"><stop stop-color="#FF512F"/><stop offset="1" stop-color="#F09819"/></linearGradient><linearGradient id="j" x1="257.356" y1="275.791" x2="310.467" y2="275.791" gradientUnits="userSpaceOnUse"><stop stop-color="#FF512F"/><stop offset="1" stop-color="#F09819"/></linearGradient><linearGradient id="k" x1="261.688" y1="291.124" x2="316.558" y2="291.124" gradientUnits="userSpaceOnUse"><stop stop-color="#FF512F"/><stop offset="1" stop-color="#F09819"/></linearGradient><linearGradient id="l" x1="262.564" y1="286.494" x2="315.676" y2="286.494" gradientUnits="userSpaceOnUse"><stop stop-color="#FF512F"/><stop offset="1" stop-color="#F09819"/></linearGradient><linearGradient id="m" x1="255.26" y1="301.898" x2="310.13" y2="301.898" gradientUnits="userSpaceOnUse"><stop stop-color="#FF512F"/><stop offset="1" stop-color="#F09819"/></linearGradient><linearGradient id="n" x1="257.222" y1="297.724" x2="309.247" y2="297.724" gradientUnits="userSpaceOnUse"><stop stop-color="#FF512F"/><stop offset="1" stop-color="#F09819"/></linearGradient><linearGradient id="o" x1="258.789" y1="312.546" x2="313.66" y2="312.546" gradientUnits="userSpaceOnUse"><stop stop-color="#FF512F"/><stop offset="1" stop-color="#F09819"/></linearGradient><linearGradient id="p" x1="259.665" y1="308.521" x2="312.776" y2="308.521" gradientUnits="userSpaceOnUse"><stop stop-color="#FF512F"/><stop offset="1" stop-color="#F09819"/></linearGradient><linearGradient id="q" x1="255.653" y1="323.039" x2="310.524" y2="323.039" gradientUnits="userSpaceOnUse"><stop stop-color="#FF512F"/><stop offset="1" stop-color="#F09819"/></linearGradient><linearGradient id="r" x1="256.53" y1="318.865" x2="309.641" y2="318.865" gradientUnits="userSpaceOnUse"><stop stop-color="#FF512F"/><stop offset="1" stop-color="#F09819"/></linearGradient><linearGradient id="s" x1="131" y1="143.922" x2="238" y2="143.922" gradientUnits="userSpaceOnUse"><stop stop-color="#FF512F"/><stop offset="1" stop-color="#F09819"/></linearGradient><linearGradient id="b" x1="9.849" y1="225.852" x2="148.093" y2="235.477" gradientUnits="userSpaceOnUse"><stop stop-color="#16222A"/><stop offset="1" stop-color="#3A6073"/><stop offset="1" stop-color="#3A6073"/></linearGradient><linearGradient id="u" x1="129.621" y1="69.515" x2="140.716" y2="69.515" gradientUnits="userSpaceOnUse"><stop stop-color="#FF512F"/><stop offset="1" stop-color="#F09819"/></linearGradient><linearGradient id="v" x1="13.175" y1="80.488" x2="31.697" y2="80.488" gradientUnits="userSpaceOnUse"><stop stop-color="#FF512F"/><stop offset="1" stop-color="#F09819"/></linearGradient><linearGradient id="w" x1="59.409" y1="99.79" x2="69.63" y2="99.79" gradientUnits="userSpaceOnUse"><stop stop-color="#FF512F"/><stop offset="1" stop-color="#F09819"/></linearGradient><linearGradient id="x" x1="79.717" y1="85.977" x2="82.269" y2="85.977" gradientUnits="userSpaceOnUse"><stop stop-color="#FF512F"/><stop offset="1" stop-color="#F09819"/></linearGradient><linearGradient id="y" x1="31.804" y1="146.927" x2="109.212" y2="146.927" gradientUnits="userSpaceOnUse"><stop stop-color="#FF512F"/><stop offset="1" stop-color="#F09819"/></linearGradient><linearGradient id="z" x1="95.848" y1="150.797" x2="102.173" y2="150.797" gradientUnits="userSpaceOnUse"><stop stop-color="#FF512F"/><stop offset="1" stop-color="#F09819"/></linearGradient><linearGradient id="A" x1="71.533" y1="128.855" x2="74.544" y2="128.855" gradientUnits="userSpaceOnUse"><stop stop-color="#FF512F"/><stop offset="1" stop-color="#F09819"/></linearGradient><linearGradient id="B" x1="70.586" y1="131.242" x2="73.188" y2="131.242" gradientUnits="userSpaceOnUse"><stop stop-color="#FF512F"/><stop offset="1" stop-color="#F09819"/></linearGradient><linearGradient id="C" x1="71.192" y1="134.458" x2="71.387" y2="134.458" gradientUnits="userSpaceOnUse"><stop stop-color="#FF512F"/><stop offset="1" stop-color="#F09819"/></linearGradient><linearGradient id="D" x1="70.815" y1="135.392" x2="72.201" y2="135.392" gradientUnits="userSpaceOnUse"><stop stop-color="#FF512F"/><stop offset="1" stop-color="#F09819"/></linearGradient><linearGradient id="E" x1="73.814" y1="132.078" x2="75.681" y2="132.078" gradientUnits="userSpaceOnUse"><stop stop-color="#FF512F"/><stop offset="1" stop-color="#F09819"/></linearGradient><linearGradient id="F" x1="76.022" y1="129.57" x2="77.739" y2="129.57" gradientUnits="userSpaceOnUse"><stop stop-color="#FF512F"/><stop offset="1" stop-color="#F09819"/></linearGradient><linearGradient id="G" x1="77.675" y1="127.948" x2="79.195" y2="127.948" gradientUnits="userSpaceOnUse"><stop stop-color="#FF512F"/><stop offset="1" stop-color="#F09819"/></linearGradient><linearGradient id="H" x1="73.086" y1="126.352" x2="77.195" y2="126.352" gradientUnits="userSpaceOnUse"><stop stop-color="#FF512F"/><stop offset="1" stop-color="#F09819"/></linearGradient><linearGradient id="I" x1="43.839" y1="154.753" x2="64.433" y2="154.753" gradientUnits="userSpaceOnUse"><stop stop-color="#FF512F"/><stop offset="1" stop-color="#F09819"/></linearGradient><linearGradient id="J" x1="47.83" y1="137.559" x2="53.806" y2="137.559" gradientUnits="userSpaceOnUse"><stop stop-color="#FF512F"/><stop offset="1" stop-color="#F09819"/></linearGradient><linearGradient id="K" x1="47.06" y1="134.13" x2="53.677" y2="134.13" gradientUnits="userSpaceOnUse"><stop stop-color="#FF512F"/><stop offset="1" stop-color="#F09819"/></linearGradient><linearGradient id="L" x1="33.224" y1="149.582" x2="45.8" y2="149.582" gradientUnits="userSpaceOnUse"><stop stop-color="#FF512F"/><stop offset="1" stop-color="#F09819"/></linearGradient></defs></svg>