<svg width="465" height="280" fill="none" xmlns="http://www.w3.org/2000/svg"><path d="M61.11 196.504c5.32-3.357 7.259-7.708 8.136-13.937.877-6.227-1.115-12.802-5.3-17.497-3.489-3.915-8.416-6.607-10.936-11.206-2.686-4.901-2.285-11.391-6.143-15.434-2.651-2.778-6.674-3.674-9.959-5.663-2.68-1.623-4.84-3.96-7.27-5.938-2.43-1.979-5.345-3.663-8.476-3.573-4.725.134-8.604 4.588-9.046 9.293-.443 4.706 1.98 9.339 5.437 12.562 2.508 2.336 5.643 4.182 7.216 7.229 2.954 5.721-.762 13.307 2.435 18.896 2.335 4.081 7.956 6.244 8.535 10.911.212 1.716-.35 3.429-.417 5.157-.21 5.404 4.637 9.991 9.91 11.196 5.272 1.204 10.774-.209 15.878-1.996Z" fill="url(#a)"/><path d="M30.48 142.714c-.015.015.17.241.538.658l1.629 1.797a49.159 49.159 0 0 1 2.528 2.879c.949 1.155 2.089 2.419 3.19 3.945.57.75 1.164 1.534 1.782 2.351.616.82 1.188 1.723 1.819 2.63 1.287 1.797 2.482 3.835 3.781 5.951 2.478 4.304 4.94 9.188 7.07 14.512 2.081 5.345 3.619 10.596 4.748 15.433.497 2.433 1.016 4.738 1.304 6.93.158 1.093.357 2.144.467 3.163l.305 2.934c.236 1.867.267 3.569.363 5.06.109 1.491.124 2.778.12 3.83l.037 2.425c.016.555.035.847.057.848.022.001.047-.29.073-.845l.085-2.427a42.23 42.23 0 0 0-.01-3.844c-.063-1.497-.062-3.209-.27-5.087l-.265-2.953c-.098-1.026-.284-2.083-.432-3.184-.266-2.207-.768-4.528-1.252-6.98-1.104-4.872-2.634-10.162-4.728-15.541-2.143-5.357-4.638-10.264-7.159-14.577-1.32-2.12-2.54-4.158-3.852-5.953-.644-.904-1.23-1.804-1.859-2.621l-1.823-2.336c-1.13-1.515-2.3-2.764-3.278-3.901a42.196 42.196 0 0 0-2.618-2.815l-1.72-1.715c-.397-.387-.614-.583-.63-.567Z" fill="#DADBD8"/><path d="M461.317 75.285s-6.772-4.477-15.028 11.723c-8.256 16.199-11.384 25.542-11.384 25.542s-2.183 3.393-4.514 1.175c-2.332-2.219-5.525-8.512-9.487-7.379-4.111 1.175-5.464 5.762-4.681 12.503.784 6.739 1.959 21.57 2.061 22.911.099 1.317-.655 3.257-2.485 2.001-1.831-1.257-12.362-12.985-17.627-7.654-5.265 5.329.003 23.748.541 25.772.537 2.025.141 2.89-.821 3.39-.962.502-4.129-3.774-7.261-6.987-3.132-3.212-7.326-6.389-10.106-3.059-2.78 3.33-3.67 17.15 9.482 39.597l6.775 10.003 12.116-.672c25.842-3.02 36.338-12.052 37.322-16.277.984-4.225-4.077-5.66-8.528-6.226-4.451-.565-9.772-.519-9.951-1.588-.179-1.07.273-1.907 2.212-2.697 1.94-.79 19.817-7.677 20.901-15.09 1.084-7.413-14.62-8.757-16.725-9.462-2.106-.704-1.011-2.475.1-3.189 1.131-.726 13.678-8.719 19.531-12.154 5.853-3.432 8.7-7.275 7.163-11.264-1.482-3.846-8.429-2.606-11.605-3.131-3.175-.525-1.779-4.311-1.779-4.311s5.574-8.124 13.535-24.47c7.96-16.348.1-19.087.1-19.087" fill="url(#b)"/><path d="M453.899 89.781s-.046.122-.15.351l-.474 1.013-1.853 3.88a1537.88 1537.88 0 0 1-6.929 14.215c-5.893 11.983-14.174 28.467-23.377 46.642-9.205 18.182-17.523 34.647-23.478 46.598l-7.035 14.16-1.915 3.849-.507.997a5.64 5.64 0 0 1-.184.334s.045-.121.15-.351l.473-1.013 1.852-3.88c1.612-3.367 3.98-8.224 6.929-14.213 5.894-11.983 14.175-28.468 23.381-46.65 9.202-18.176 17.519-34.639 23.473-46.59l7.036-14.16 1.917-3.85.506-.997c.116-.224.185-.335.185-.335Z" fill="#DADBD8"/><path d="M425.016 115.331c.024-.007.132.285.304.819.176.534.405 1.313.681 2.278.547 1.932 1.235 4.619 1.94 7.598l1.778 7.631.552 2.308c.134.545.196.85.171.858-.024.007-.134-.284-.311-.817a56.603 56.603 0 0 1-.67-2.283c-.528-1.938-1.18-4.632-1.885-7.611l-1.832-7.616-.565-2.306c-.129-.547-.189-.852-.163-.859ZM431.552 137.037c-.029-.1 5.448-1.762 12.232-3.712 6.786-1.951 12.308-3.451 12.336-3.351.029.1-5.447 1.761-12.233 3.712-6.783 1.949-12.306 3.45-12.335 3.351ZM416.157 164.315c.002-.026.319-.039.892-.041l2.424.009c2.046.004 4.873-.002 7.991-.123 3.12-.114 5.939-.316 7.979-.479.96-.075 1.769-.138 2.417-.19.572-.041.889-.053.892-.027.002.026-.31.086-.876.173-.567.086-1.389.196-2.408.309-2.037.23-4.861.475-7.989.589a110.75 110.75 0 0 1-8.011.013 67.322 67.322 0 0 1-2.425-.127c-.572-.044-.886-.08-.886-.106ZM405.924 145.984c.023-.013.191.228.474.675l1.169 1.913a443.169 443.169 0 0 1 3.733 6.382c1.44 2.503 2.725 4.78 3.639 6.437l1.066 1.973c.245.469.368.735.345.749-.021.012-.188-.229-.472-.677l-1.169-1.912a427.633 427.633 0 0 1-3.734-6.382 438.026 438.026 0 0 1-3.638-6.437l-1.066-1.972c-.244-.471-.369-.736-.347-.749ZM389.274 168.339c.023-.014.234.297.597.87l1.507 2.446a720.646 720.646 0 0 1 4.85 8.141 711.932 711.932 0 0 1 4.756 8.198l1.404 2.507c.324.596.494.931.471.944-.023.013-.234-.297-.597-.871l-1.506-2.445a712.493 712.493 0 0 1-4.851-8.143 714.783 714.783 0 0 1-4.755-8.197l-1.405-2.506c-.324-.596-.493-.931-.471-.944ZM402.69 190.802c0-.026.402-.053 1.129-.081l3.074-.1c2.595-.087 6.179-.222 10.131-.482 3.954-.255 7.526-.579 10.11-.832l3.062-.297c.723-.067 1.125-.093 1.128-.067.004.026-.392.1-1.11.212-.718.112-1.76.257-3.05.416-2.58.321-6.155.687-10.116.942-3.958.261-7.551.354-10.15.374-1.3.006-2.352 0-3.078-.019-.727-.019-1.13-.04-1.13-.066Z" fill="#DADBD8"/><path d="M460.924 279.813c0 .103-103.19.187-230.451.187C103.167 280 0 279.916 0 279.813c0-.104 103.167-.188 230.473-.188 127.261 0 230.451.084 230.451.188Z" fill="#17282F"/><path d="M21.208 229.556c2.674.118 5.172 1.591 6.919 3.619 1.747 2.028 2.807 4.568 3.477 7.159 1.296 5.014.422 10.911-1.048 15.876-5.399-1.982-8.689-7.786-10.173-10.835-2.346-4.819-3.658-14.955.825-15.819Z" fill="url(#c)"/><path d="M38.297 262.341c-1.687-2.469-1.698-5.88-.325-8.536 1.374-2.656 3.986-4.558 6.851-5.411 1.325-.394 2.86-.552 4.003.226 1.069.727 1.521 2.14 1.372 3.424-.15 1.283-.812 2.453-1.588 3.486-2.664 3.543-5.892 6.483-10.313 6.811Z" fill="url(#d)"/><path d="M38.75 279.062c-.027.004-.105-.368-.234-1.041l-.532-2.856c-.407-2.401-1.056-5.816-.51-9.58.524-3.748 2.046-6.943 3.628-8.845.779-.962 1.522-1.642 2.072-2.059.266-.219.5-.353.649-.457.152-.098.235-.145.242-.133.06.066-1.273.872-2.754 2.813-1.5 1.908-2.949 5.05-3.466 8.734-.536 3.688.06 7.071.4 9.484.184 1.212.332 2.194.416 2.876.084.682.114 1.061.088 1.064Z" fill="#17282F"/><path d="M22.89 237.185c.011-.005.085.137.214.413l.548 1.21a240.76 240.76 0 0 1 1.928 4.489 454.74 454.74 0 0 1 5.961 14.975 454.438 454.438 0 0 1 5.436 15.178 247.437 247.437 0 0 1 1.523 4.641c.16.521.288.943.39 1.271.084.291.123.446.11.45-.012.005-.074-.142-.182-.427l-.457-1.247-1.635-4.601a807.84 807.84 0 0 0-5.536-15.132 809.29 809.29 0 0 0-5.856-15.007l-1.817-4.533-.483-1.238c-.106-.285-.157-.437-.144-.442Z" fill="#17282F"/><path d="M32.417 267.947c-3.148-5.462-9.079-9.218-15.362-9.729-1.6-.129-3.528.124-4.255 1.555-.727 1.434.215 3.147 1.295 4.338 4.496 4.954 12.158 6.734 18.377 4.268" fill="url(#e)"/><path d="M19.456 262.526c.002-.025.358-.009 1.002.045.323.025.718.057 1.168.146.45.088.975.142 1.532.302.561.143 1.18.286 1.82.523.654.199 1.324.485 2.028.79a22.145 22.145 0 0 1 4.264 2.578 21.728 21.728 0 0 1 3.513 3.535c.457.617.893 1.202 1.232 1.795.376.571.653 1.143.914 1.66.28.508.444 1.01.625 1.431.184.422.298.801.389 1.112.186.62.277.963.253.971-.081.027-.454-1.359-1.504-3.394-.273-.502-.56-1.06-.94-1.614-.346-.578-.785-1.146-1.241-1.747a22.6 22.6 0 0 0-3.473-3.454 23.046 23.046 0 0 0-4.177-2.559c-.689-.309-1.344-.602-1.984-.811-.626-.246-1.234-.401-1.784-.559-2.215-.58-3.646-.669-3.637-.75Z" fill="#17282F"/><path d="M384.337 0H67.56c-5.461 0-9.888 4.427-9.888 9.888v223.747c0 5.461 4.427 9.889 9.888 9.889h121.579s7.734 23.914-16.241 36.288h113.683s-27.069-9.28-20.108-36.288h117.866c5.461 0 9.888-4.428 9.888-9.888V9.888c0-5.461-4.427-9.888-9.89-9.888Z" fill="url(#f)"/><path d="M230.179 219.993c4.31 6.158-2.435 12.903-8.594 8.594a2.187 2.187 0 0 1-.53-.53c-4.297-6.158 2.439-12.894 8.595-8.594.203.141.388.326.529.53Z" fill="url(#g)"/><path d="M384.06 204.172H67.178a2.358 2.358 0 0 1-2.358-2.358V15.77a2.358 2.358 0 0 1 2.358-2.357H384.06a2.357 2.357 0 0 1 2.357 2.357v186.044a2.357 2.357 0 0 1-2.357 2.358Z" fill="#C1CCD1"/><path d="M64.82 204.172h321.597V27.389H64.82v176.783Z" fill="#fff"/><path d="M91.196 20.78a2.568 2.568 0 1 1-5.137 0 2.568 2.568 0 0 1 5.137 0ZM75.63 20.78a2.568 2.568 0 1 1-5.136 0 2.568 2.568 0 0 1 5.136 0ZM83.102 20.78a2.568 2.568 0 1 1-5.137 0 2.568 2.568 0 0 1 5.136 0Z" fill="#33535F"/><path opacity=".5" d="M291.509 179.813H376.2V38.318h-84.691v141.495Z" fill="#C1CCD1"/><path d="m314.2 121.367.907 1.839 2.029.294-1.468 1.432.347 2.021-1.815-.954-1.816.954.347-2.021-1.468-1.432 2.029-.294.908-1.839Z" fill="url(#h)"/><path d="m324.284 121.367.907 1.839 2.029.294-1.468 1.432.347 2.021-1.815-.954-1.816.954.347-2.021-1.468-1.432 2.029-.294.908-1.839Z" fill="url(#i)"/><path d="m334.368 121.367.907 1.839 2.029.294-1.468 1.432.347 2.021-1.815-.954-1.815.954.346-2.021-1.468-1.432 2.029-.294.908-1.839Z" fill="url(#j)"/><path d="m344.452 121.367.907 1.839 2.029.294-1.468 1.432.347 2.021-1.815-.954-1.815.954.346-2.021-1.468-1.432 2.029-.294.908-1.839Z" fill="url(#k)"/><path d="m354.535 121.367.908 1.839 2.029.294-1.468 1.432.346 2.021-1.815-.954-1.815.954.346-2.021-1.467-1.432 2.029-.294.907-1.839Z" fill="url(#l)"/><path d="M330.62 137.953c0 .104-6.43.187-14.36.187-7.932 0-14.361-.083-14.361-.187s6.429-.188 14.361-.188c7.93 0 14.36.084 14.36.188Z" fill="#F03D5F"/><path d="M366.71 144.187c0 .104-14.341.188-32.026.188-17.691 0-32.028-.084-32.028-.188 0-.103 14.337-.187 32.028-.187 17.685 0 32.026.084 32.026.187ZM366.71 149.546c0 .104-14.341.188-32.026.188-17.691 0-32.028-.084-32.028-.188s14.337-.188 32.028-.188c17.685 0 32.026.084 32.026.188ZM366.71 154.903c0 .104-14.341.188-32.026.188-17.691 0-32.028-.084-32.028-.188 0-.103 14.337-.188 32.028-.188 17.685 0 32.026.085 32.026.188ZM366.71 160.26c0 .104-14.341.188-32.026.188-17.691 0-32.028-.084-32.028-.188 0-.103 14.337-.188 32.028-.188 17.685 0 32.026.085 32.026.188ZM366.71 165.619c0 .103-14.341.186-32.026.186-17.691 0-32.028-.083-32.028-.186 0-.104 14.337-.188 32.028-.188 17.685 0 32.026.084 32.026.188Z" fill="#17282F"/><path d="M297.305 115.267h72.952V45.23h-72.952v70.037Z" fill="#fff"/><path d="m359.416 103.056 4.745 12.211h-11.487l-2.59-6.65 9.332-5.561Z" fill="#F8A58D"/><path d="M315.689 115.267h31.103c.488-4.592.784-8.937.784-8.937l1.601 4.34 13.062-6.531s-4.748-12.664-8.723-16.952c-5.024-5.42-14.059-4.88-14.059-4.88l-11.727.19s-4.466.406-8.684 2.526l-.289.084.003.06c-2.54 2.175-10.161 12.374-10.161 12.374l2.811 2.738 5.76 5.363s-.024.038-.012.105c.098.568-1.469 9.52-1.469 9.52Z" fill="url(#m)"/><path d="M339.791 81.864c.014-.002.035.07.064.21.035.139.061.348.081.62.036.54-.013 1.343-.319 2.276a6.477 6.477 0 0 1-1.906 2.832c-.987.861-2.399 1.416-3.906 1.462-1.508.039-2.949-.437-3.983-1.24a6.495 6.495 0 0 1-2.061-2.722c-.357-.915-.451-1.714-.445-2.256.005-.272.018-.482.046-.623.021-.141.039-.214.052-.212.09-.012-.162 1.235.592 2.988.382.854 1.027 1.813 2.023 2.547.984.742 2.34 1.178 3.766 1.143 1.424-.045 2.754-.556 3.695-1.352.953-.788 1.544-1.781 1.877-2.656.656-1.791.334-3.023.424-3.017ZM350.901 84.648c.003.038-.313.03-.829.214-.513.176-1.217.6-1.812 1.37-.606.764-1.006 1.889-1.178 3.176-.169 1.29-.209 2.747-.263 4.262a82.767 82.767 0 0 0 .173 7.776l.18 2.354c.047.556.061.865.036.869-.026.004-.09-.3-.181-.851a44.705 44.705 0 0 1-.299-2.35 61.736 61.736 0 0 1-.284-7.809c.055-1.526.103-2.976.297-4.301.194-1.32.64-2.504 1.312-3.29.656-.795 1.424-1.205 1.974-1.345a2.64 2.64 0 0 1 .647-.098c.15.003.227.01.227.023ZM323.023 83.332c.025.01-.055.323-.219.884l-.707 2.368c-.6 1.999-1.403 4.766-2.204 7.845-.8 3.082-1.446 5.891-1.895 7.928l-.535 2.413c-.129.57-.213.882-.238.878-.026-.005.01-.326.095-.905.084-.579.226-1.412.418-2.44.383-2.054.99-4.88 1.791-7.968.803-3.087 1.649-5.85 2.314-7.83.332-.992.615-1.79.823-2.335.207-.547.333-.846.357-.838Z" fill="#17282F"/><path d="m349.176 110.67-1.6-4.339 1.6 4.339 1.43-.714-1.43.714Z" fill="#A7AAA9"/><path d="m350.606 109.955.295-.148v.001l-.295.147Z" fill="#D8866F"/><path d="m349.177 110.67-1.601-4.339s-.193-1.128-.418-2.709l-.166-2.176a83.508 83.508 0 0 1-.198-6.288l4.107 14.651-.295.147-1.429.714Z" fill="url(#n)"/><path d="M347.158 103.622c-.412-2.906-.931-7.344-.552-9.131l.188.667c-.017 2.443.083 4.63.198 6.288l.166 2.176Z" fill="#111D23"/><path d="M323.67 83.287c.751-.293 2.649-.606 3.675-.763l-.002.018a28.02 28.02 0 0 0-3.673.745Zm3.768-.757v-.02c.361-.054.593-.086.593-.086l.025.068-.326.006s-.103.009-.292.032Z" fill="#A7AAA9"/><path d="M329.623 87.865c-2.923-.21-8.504-3.295-6.102-4.513.043-.022.093-.044.149-.066a27.993 27.993 0 0 1 3.674-.744 4.93 4.93 0 0 0-.028.504c-.006.542.087 1.34.445 2.256a6.515 6.515 0 0 0 1.862 2.563Zm.249-.239a6.467 6.467 0 0 1-1.866-2.427 6.684 6.684 0 0 1-.567-2.669c.189-.023.292-.032.292-.032l.325-.006 1.816 5.134Z" fill="url(#o)"/><path d="M329.922 87.876c-.096 0-.196-.004-.299-.011a6.516 6.516 0 0 1-1.862-2.563c-.357-.915-.451-1.714-.445-2.256.003-.204.012-.373.028-.504l.002-.018.093-.014v.02c.004.477.042 1.451.567 2.669.362.809.959 1.71 1.866 2.427l.089.25h-.039Z" fill="#111D23"/><path d="M334.079 88.922a6.211 6.211 0 0 1-6.625-6.427c.075-2.001.142-3.632.142-3.632s-4.95-.43-5.342-5.325c-.391-4.893-.301-16.196-.301-16.196a17.062 17.062 0 0 1 17.249.995l.764.51-.095 23.903a6.21 6.21 0 0 1-5.792 6.172Z" fill="#F8A58D"/><path d="M324.612 65.987a.714.714 0 1 0-1.029-.989.714.714 0 0 0 1.029.99ZM322.437 64.532c.083.079.538-.323 1.213-.371.673-.06 1.187.266 1.256.174.034-.04-.053-.189-.278-.336a1.637 1.637 0 0 0-1.011-.245c-.42.033-.764.22-.959.402-.199.181-.26.34-.221.376ZM330.762 64.912a.712.712 0 1 0 .824 1.162.712.712 0 0 0-.824-1.162ZM329.576 64.548c.082.08.538-.323 1.212-.371.674-.059 1.188.266 1.256.175.034-.041-.053-.19-.277-.338a1.648 1.648 0 0 0-1.011-.244 1.64 1.64 0 0 0-.959.401c-.199.183-.261.342-.221.377ZM327.423 70.492c0-.053-.423-.11-1.106-.158-.178-.007-.32-.038-.339-.132-.038-.104.017-.297.092-.514l.442-1.407c.604-2.001 1.012-3.65.911-3.68-.102-.031-.675 1.567-1.279 3.57l-.412 1.415c-.052.208-.158.455-.048.74a.466.466 0 0 0 .323.26c.119.028.219.022.304.02.686-.021 1.11-.06 1.112-.114Z" fill="#17282F"/><path d="M327.582 78.792s3.113.043 6.262-2.245c0 0-1.27 3.626-6.188 3.515l-.074-1.27Z" fill="#F68260"/><path d="M339.746 64.06c.097-.036 4.006-.462 3.39 3.32-.532 3.268-4.048 2.27-4.046 2.16.001-.11.656-5.48.656-5.48Z" fill="#F8A58D"/><path d="M340.46 68.102c.016-.01.054.044.146.095.09.05.248.091.421.04.353-.1.681-.623.74-1.207.031-.295-.01-.58-.097-.822-.082-.244-.223-.421-.393-.465a.287.287 0 0 0-.345.13c-.051.088-.035.154-.052.158-.01.008-.067-.059-.03-.191a.36.36 0 0 1 .143-.194.43.43 0 0 1 .319-.06c.248.037.456.283.553.548.11.266.163.588.129.919-.069.652-.45 1.24-.929 1.34a.602.602 0 0 1-.51-.124c-.095-.088-.107-.162-.095-.167Z" fill="#F68260"/><path d="M338.928 67.46c-.758.456-1.787-.11-2.179-.903-.391-.794-.348-1.72-.381-2.605a13.495 13.495 0 0 0-.619-3.547c-.232-.736-.575-1.506-1.247-1.885-.769-.434-1.733-.23-2.562.076-.829.304-1.668.705-2.547.628-1.162-.101-2.121-1.015-3.276-1.174-1.07-.147-2.101.371-3.141.666-1.042.297-2.192.363-3.185-.07-.992-.435-1.772-1.453-1.696-2.534.076-1.081 1.196-2.037 2.24-1.748-.813-.42-.885-1.688-.262-2.36.622-.672 1.679-.788 2.552-.51.873.28 1.599.883 2.28 1.496.085-.822.918-1.418 1.743-1.47.825-.053 1.619.321 2.305.783.685.463 1.306 1.023 2.03 1.422 1.446.796 3.159.88 4.782 1.18 1.624.301 3.353.952 4.141 2.402.696 1.278.229 2.812.169 4.266-.062 1.513-.06 1.851-.134 3.272 0 0 .096 1.975-1.013 2.614Z" fill="#17282F"/><path d="M326.812 72.469c-.007.044.185.125.515.12a2.12 2.12 0 0 0 1.205-.426c.412-.31.649-.727.742-1.04.096-.315.072-.522.029-.527-.098-.027-.266.752-.983 1.286-.712.54-1.507.487-1.508.587Z" fill="#fff"/><path d="M321.183 55.367c.024-.01-.324.147-.293.679.021.248.137.555.402.8.269.253.71.34 1.149.276.444-.067.895-.274 1.339-.54.443-.259.903-.573 1.451-.714.547-.135 1.161-.029 1.708.26.558.277 1.08.669 1.653 1.02.563.35 1.203.652 1.863.601.669-.032 1.198-.436 1.65-.779.456-.352.898-.686 1.385-.817a2.384 2.384 0 0 1 1.375.085c.813.306 1.292.89 1.485 1.325.2.443.191.726.212.722 0 0 .027-.283-.162-.744-.183-.452-.663-1.067-1.5-1.396a2.472 2.472 0 0 0-1.439-.105c-.52.134-.977.48-1.434.827-.455.342-.962.719-1.58.745-.614.046-1.225-.237-1.782-.584-.564-.347-1.09-.74-1.665-1.022-.562-.298-1.221-.413-1.801-.264-.579.155-1.041.48-1.479.74-.435.267-.87.472-1.294.541-.418.067-.83-.009-1.081-.236a1.205 1.205 0 0 1-.401-.747c-.047-.498.271-.667.239-.673Z" fill="#33535F"/><path d="M323.356 52.788s-.031-.063-.143-.125c-.108-.063-.312-.098-.539-.005-.228.076-.461.363-.414.72.033.345.297.719.716.86.412.15.907.097 1.377-.06.473-.148.949-.388 1.487-.448.544-.083 1.082.184 1.512.59.443.39.841.907 1.452 1.187.625.29 1.312.103 1.861-.11.566-.217 1.094-.453 1.638-.515a4.053 4.053 0 0 1 2.767.623 4.16 4.16 0 0 1 1.323 1.424c.229.407.298.659.312.654 0 0-.047-.26-.263-.68a4.085 4.085 0 0 0-1.317-1.48c-.692-.482-1.717-.814-2.839-.67-.564.061-1.113.303-1.668.515-.549.21-1.187.376-1.757.11-.566-.256-.964-.76-1.417-1.16-.435-.416-1.039-.713-1.618-.617-.569.069-1.048.318-1.509.467-.457.157-.923.21-1.308.077a.973.973 0 0 1-.67-.776.61.61 0 0 1 .358-.661.615.615 0 0 1 .504-.02c.109.05.149.106.155.1Z" fill="#33535F"/><path d="M337.825 56.617c.095.036.355-.55.993-.939.627-.407 1.267-.387 1.277-.489.006-.043-.155-.115-.433-.119a1.97 1.97 0 0 0-1.031.31c-.363.23-.61.544-.726.795-.117.253-.122.428-.08.442Z" fill="#17282F"/><path d="M338.399 52.995c-.1.026.043.766-.076 1.661-.107.898-.43 1.578-.34 1.628.073.055.57-.603.689-1.584.128-.979-.188-1.74-.273-1.705Z" fill="#17282F"/><path d="M339.549 66.127c.012.03.378-.492.203-1.395-.066-.459-.426-.895-.779-1.34-.176-.225-.336-.483-.378-.78-.042-.298.029-.617.112-.939.19-.643.254-1.319.11-1.898-.133-.585-.488-1.045-.871-1.28a1.65 1.65 0 0 0-1.01-.281c-.25.022-.374.094-.374.094.005.014.135-.035.376-.04a1.67 1.67 0 0 1 .952.309c.359.236.68.669.8 1.227.131.556.069 1.194-.119 1.834-.083.324-.161.66-.112.993.048.335.23.613.411.84.368.452.709.85.785 1.283.098.42.065.78.012 1.014-.05.238-.129.351-.118.359Z" fill="#33535F"/><path d="M335.97 100.998c.011.011.023.172.034.463.012.342.026.754.041 1.244.029 1.065.065 2.566.08 4.37l-.048-.113 2.225 2.071-.187-.035 3.819-1.544-.115.14.066-.36 1.154-6.266.163.196a294.719 294.719 0 0 1-5.182-.085l-1.493-.043c-.35-.014-.545-.026-.557-.038-.013-.013.157-.025.488-.039l1.456-.043c1.263-.031 3.093-.069 5.288-.084l.198-.001-.035.196-1.112 6.274-.065.36-.019.103-.096.038-3.826 1.524-.107.042-.081-.078-2.197-2.101-.049-.047.001-.067c.016-1.874.052-3.413.081-4.468l.04-1.209c.012-.273.023-.412.035-.4Z" fill="#17282F"/><path d="M342.77 102.874c.007.101-1.515.28-3.404.286-1.888.008-3.411-.161-3.405-.262.006-.106 1.529-.106 3.404-.114 1.875-.005 3.398-.015 3.405.09Z" fill="#17282F"/><path d="M310.239 99.117c.154.15-11.539 16.15-11.539 16.15h11.451l7.019-9.625-6.931-6.525Z" fill="#F8A58D"/><path opacity=".5" d="M166.104 213.682h120.717V12H166.104v201.682Z" fill="#C1CCD1"/><path d="m198.354 130.491 1.294 2.621 2.893.42-2.094 2.04.495 2.882-2.588-1.36-2.586 1.36.493-2.882-2.093-2.04 2.893-.42 1.293-2.621Z" fill="url(#p)"/><path d="m212.728 130.491 1.294 2.621 2.893.42-2.094 2.04.494 2.882-2.587-1.36-2.587 1.36.493-2.882-2.092-2.04 2.892-.42 1.294-2.621Z" fill="url(#q)"/><path d="m227.101 130.491 1.294 2.621 2.893.42-2.094 2.04.495 2.882-2.588-1.36-2.587 1.36.494-2.882-2.093-2.04 2.892-.42 1.294-2.621Z" fill="url(#r)"/><path d="m241.474 130.491 1.294 2.621 2.893.42-2.094 2.04.494 2.882-2.587-1.36-2.588 1.36.495-2.882-2.093-2.04 2.892-.42 1.294-2.621Z" fill="url(#s)"/><path d="m255.848 130.491 1.294 2.621 2.893.42-2.093 2.04.493 2.882-2.587-1.36-2.587 1.36.494-2.882-2.093-2.04 2.892-.42 1.294-2.621Z" fill="url(#t)"/><path d="M221.759 154.131c0 .105-9.164.188-20.467.188-11.307 0-20.47-.083-20.47-.188 0-.103 9.163-.187 20.47-.187 11.303 0 20.467.084 20.467.187Z" fill="#F03D5F"/><path d="M273.198 163.019c0 .104-20.44.189-45.648.189-25.216 0-45.652-.085-45.652-.189 0-.103 20.436-.188 45.652-.188 25.208 0 45.648.085 45.648.188ZM273.198 170.656c0 .103-20.44.188-45.648.188-25.216 0-45.652-.085-45.652-.188 0-.104 20.436-.188 45.652-.188 25.208 0 45.648.084 45.648.188ZM273.198 178.292c0 .104-20.44.188-45.648.188-25.216 0-45.652-.084-45.652-.188 0-.103 20.436-.187 45.652-.187 25.208 0 45.648.084 45.648.187ZM273.198 185.929c0 .103-20.44.188-45.648.188-25.216 0-45.652-.085-45.652-.188s20.436-.188 45.652-.188c25.208 0 45.648.085 45.648.188ZM273.198 193.566c0 .103-20.44.186-45.648.186-25.216 0-45.652-.083-45.652-.186 0-.105 20.436-.188 45.652-.188 25.208 0 45.648.083 45.648.188Z" fill="#17282F"/><path d="M174.271 121.796h103.986v-99.83H174.271v99.83Z" fill="#fff"/><path d="M220.308 38.51c1.086-3.65 4.43-6.384 8.134-7.27 3.704-.886 8.301-2.097 11.693-.365 2.119 1.082 4.151 2.647 4.984 4.877.987 2.643-.532 7.574-1.289 10.291-.758 2.718-1.328 5.818.17 8.208 1.456 2.328 4.424 3.23 6.266 5.267 2.555 2.823 2.184 7.773-.763 10.184 3.275-.19 6.041 3.15 5.927 6.429-.114 3.278-2.515 6.156-5.44 7.642-2.925 1.486-6.302 1.795-9.582 1.801a58.14 58.14 0 0 1-12.112-1.255c-3.28-.693-6.701-1.799-8.835-4.384-1.962-2.377-2.505-5.623-2.511-8.704-.02-10.903 5.703-21.71 3.222-32.327" fill="#17282F"/><path d="M222.964 36.005c-3.399-2.345-8.182-2.486-11.714-.346s-5.62 6.446-5.115 10.544c.264 2.14 1.167 4.299.617 6.383-1.029 3.908-6.54 5.434-7.266 9.407-.287 1.568.271 3.148.691 4.685.42 1.537.686 3.27-.107 4.651-.588 1.024-1.652 1.663-2.487 2.498-2.686 2.68-2.637 7.386-.388 10.443 2.249 3.057 6.227 4.524 10.02 4.402 3.793-.124 7.418-1.654 10.653-3.638l5.096-49.029Z" fill="#17282F"/><path d="m215 40.382.051 2.593.521 38.815c.061 4.506 3.983 8.042 8.807 7.941h.001c4.871-.103 8.829-3.874 8.844-8.426.013-4.78.117-9.81.117-9.81s6.156-1.023 7.432-9.054c.634-3.995.433-10.545.095-15.898-.303-4.818-4.553-8.415-9.354-7.907L215 40.382Z" fill="#C0776A"/><path d="M237.778 51.103c.02.544-.426 1.009-.993 1.039-.567.03-1.043-.385-1.062-.929-.019-.543.426-1.01.992-1.04.568-.03 1.044.386 1.063.93ZM239.448 49.95c-.128.134-.908-.444-2.017-.44-1.106-.014-1.921.556-2.04.42-.059-.059.07-.301.425-.56.348-.256.943-.506 1.633-.503.691.004 1.272.258 1.606.518.34.262.456.505.393.565ZM227.1 51.103c.02.544-.425 1.009-.993 1.039-.566.03-1.042-.385-1.061-.929-.02-.543.425-1.01.992-1.04.567-.03 1.044.386 1.062.93Z" fill="#17282F"/><path d="M228.551 50.157c-.128.134-.909-.444-2.016-.44-1.108-.014-1.921.557-2.042.42-.059-.059.07-.301.426-.56.348-.256.943-.505 1.634-.503.69.004 1.271.258 1.605.518.339.262.455.505.393.565ZM232.575 58.377c-.005-.063.684-.182 1.8-.324.283-.03.551-.086.599-.28.067-.204-.052-.51-.189-.839l-.837-2.155c-1.162-3.068-2.004-5.592-1.88-5.637.124-.046 1.167 2.404 2.329 5.473.28.757.548 1.478.802 2.168.107.322.291.686.147 1.111a.711.711 0 0 1-.465.414c-.182.055-.341.058-.481.067-1.124.06-1.822.065-1.825.002Z" fill="#17282F"/><path d="M233.341 71.494s-5.403.349-10.757-2.869c0 0 2.61 5.517 10.649 4.766l.108-1.897ZM232.106 61.049c-.398-.528-1.097-.817-1.79-.742-.481.051-.967.283-1.259.675-.293.392-.354.948-.088 1.321.299.421.924.518 1.453.368.529-.15.984-.499 1.417-.846.119-.096.241-.196.317-.327.074-.132.09-.304-.002-.413" fill="#B85549"/><path d="M229.313 59.144c.18-.01.183 1.193 1.212 2.047 1.028.857 2.311.721 2.321.89.016.075-.286.233-.828.248a2.993 2.993 0 0 1-1.936-.675c-.628-.524-.898-1.222-.94-1.716-.046-.503.088-.8.171-.794ZM221.535 36.62c.042-.094.13-.148.199-.117.068.03.09.13.048.226-.042.095-.131.147-.199.117-.068-.03-.09-.13-.048-.226Z" fill="#17282F"/><path d="M214.58 78.382c2.371-.825 4.238-2.84 5.129-5.188.89-2.347.858-4.987.171-7.401-.318-1.119-.767-2.342-.274-3.395.357-.764 1.126-1.232 1.751-1.798 1.408-1.273 2.155-3.17 2.28-5.064.125-1.894-.326-3.788-1.019-5.556-.382-.972-.843-2.037-.491-3.02.249-.697.856-1.189 1.396-1.692a13.177 13.177 0 0 0 2.789-3.736c.495-.99.86-2.184.381-3.182-.578-1.206-2.097-1.584-3.43-1.686-3.179-.242-6.697.46-8.719 2.925-1.814 2.21-2.023 5.286-2.152 8.142-.404 8.998-.803 18.082.753 26.953" fill="#17282F"/><path d="M243.914 39.488c-.395.339-.949.463-1.373.745-.43.276-.738.622-1.16 1.01-.206.198-.432.42-.632.651l-.148.177-.225.227-.559.53c-.426.386-.964.857-1.72 1.356-.738.49-1.766 1.028-2.987 1.305-2.416.537-4.536.005-6.092-.744a9.45 9.45 0 0 1-3.343-2.683c-1.369-1.822-1.579-3.297-.95-4.098.646-.826 2.214-.688 3.988-.253.877.199 1.817.44 2.627.52.837.103 1.607.064 2.09-.057.222-.047.512-.136.973-.346.447-.2 1.012-.5 1.659-.807.323-.152.666-.306 1.034-.449.179-.071.372-.139.558-.202.204-.067.428-.141.637-.193a7.047 7.047 0 0 1 2.406-.197c1.504.127 2.792.883 3.288 1.714.511.835.308 1.476-.071 1.794Z" fill="#17282F"/><path d="M203.323 83.916a.564.564 0 0 1-.116-.114c-.067-.084-.188-.194-.304-.371-.253-.335-.577-.881-.81-1.654a6.27 6.27 0 0 1-.144-2.912c.201-1.129.845-2.366 1.944-3.314 1.07-.978 2.478-1.71 3.77-2.733.639-.518 1.249-1.127 1.695-1.869.451-.735.682-1.626.54-2.522-.243-1.811-1.74-3.404-1.868-5.581-.131-2.11 1.061-4.368 3.097-5.36.967-.522 1.985-.896 2.747-1.569.783-.652 1.127-1.662 1.095-2.643-.021-.989-.332-1.948-.737-2.822-.418-.875-.925-1.7-1.354-2.545-.43-.845-.789-1.726-.91-2.64a5.263 5.263 0 0 1 .325-2.624c.627-1.612 1.835-2.772 3.051-3.53 1.242-.757 2.528-1.085 3.647-1.269 1.127-.178 2.108-.193 2.905-.187.798.013 1.416.056 1.834.092l.474.047a.586.586 0 0 1 .161.029c-.001.014-.222.01-.64-.002-.418-.01-1.036-.029-1.829-.02-.792.016-1.765.053-2.87.248-1.097.199-2.355.542-3.542 1.288-1.168.746-2.32 1.882-2.9 3.414a4.954 4.954 0 0 0-.289 2.469c.119.858.465 1.701.891 2.527.425.83.935 1.648 1.37 2.55.422.905.754 1.901.782 2.967.043 1.052-.349 2.211-1.216 2.93-.839.737-1.883 1.111-2.817 1.62-1.918.933-3.02 3.038-2.908 5.01.091 2.006 1.566 3.597 1.844 5.552.15.976-.114 1.965-.601 2.741-.48.787-1.121 1.413-1.782 1.942-1.341 1.041-2.739 1.749-3.787 2.688-1.078.908-1.699 2.067-1.916 3.158a6.222 6.222 0 0 0 .078 2.83c.43 1.53 1.151 2.147 1.09 2.179ZM248.137 82.374c-.04-.036.477-.148.694-.88.096-.349.11-.826-.091-1.302-.203-.474-.642-.913-1.195-1.283-.553-.38-1.239-.683-1.918-1.152-.664-.446-1.376-1.178-1.455-2.175-.086-.978.341-1.935.91-2.754.581-.83 1.327-1.53 1.904-2.37.596-.824.88-1.8.732-2.735-.13-.934-.596-1.767-1.102-2.49-1.033-1.447-2.321-2.491-3.14-3.614-.853-1.089-1.292-2.17-1.376-2.945-.04-.388-.027-.69.006-.891.034-.201.059-.304.072-.302.04.003-.055.428.066 1.171.127.741.58 1.758 1.441 2.803.821 1.075 2.121 2.087 3.212 3.577.531.742 1.035 1.612 1.185 2.638a3.92 3.92 0 0 1-.088 1.563c-.138.517-.396.998-.7 1.438-.606.88-1.361 1.586-1.911 2.367-.549.777-.935 1.666-.866 2.512.057.858.658 1.509 1.29 1.954.636.456 1.323.778 1.889 1.187.567.401 1.029.883 1.239 1.421.203.54.161 1.053.034 1.427-.133.38-.363.612-.541.718-.175.114-.291.117-.291.117ZM244.456 36.207c.012 0 .022.086.027.25a3.85 3.85 0 0 1-.073.718 4.646 4.646 0 0 1-1.247 2.331c-.778.821-2.135 1.467-3.659 1.321a4.658 4.658 0 0 1-2.229-.774c-.688-.469-1.242-1.117-1.787-1.756-.542-.646-1.097-1.227-1.74-1.668a7.352 7.352 0 0 0-2.001-.983 7.092 7.092 0 0 0-3.755-.136 7.707 7.707 0 0 0-2.37.997c-.516.331-.775.557-.795.533-.015-.014.212-.278.713-.654a7.1 7.1 0 0 1 2.388-1.134 7.184 7.184 0 0 1 3.92.062 7.555 7.555 0 0 1 2.111 1.013c.679.457 1.272 1.08 1.813 1.726.548.641 1.078 1.261 1.71 1.695a4.364 4.364 0 0 0 2.053.735c1.419.151 2.682-.415 3.441-1.165a4.744 4.744 0 0 0 1.292-2.176c.156-.59.153-.936.188-.935Z" fill="#33535F"/><path d="M228.839 45.813c-.11.301-1.216.158-2.517.315-1.303.13-2.352.512-2.525.24-.076-.128.106-.412.53-.703.421-.292 1.091-.569 1.872-.656.78-.085 1.496.04 1.969.231.477.193.718.43.671.573ZM239.04 46.742c-.195.252-.958-.01-1.876-.022-.919-.045-1.696.17-1.876-.094-.078-.128.045-.38.384-.618.335-.238.895-.432 1.526-.413.631.02 1.178.249 1.498.506.324.258.43.518.344.641Z" fill="#17282F"/><path d="M207.844 122.005c.387.668-2.46-8.916-2.46-8.916L203 121.85l-17.689.131s9.996-32.673 14.744-37.234c6.196-5.953 17.81-6.278 17.81-6.278l6.951 5.933L235.8 78.76s.139.013.398.044c7.318.885 13.688 5.425 16.988 12.017l11.909 30.861H249.37l-3.353-9.107 1.119 9.107-39.292.323Z" fill="url(#u)"/><path d="m212.027 79.296 15.935 36.252 8.055-36.63s-2.233-.129-5.422-.249c-.885-.033-1.843 1.703-2.849 3.438-1 1.729-2.046 3.457-3.111 3.439-1.365-.024-2.761-7.078-4.132-7.074-1.737.006-3.433.039-4.975.112-1.302.062-2.488.615-3.501.712Z" fill="#FAFAF9"/><path d="M215.051 79.631v-3.328s9.5.126 9.661 7.729c0 0 1.349-7.491 9.015-7.73l.492 2.55-2.163 8.742-5.532 3.684h-7.458l-3.087-4.058-.928-7.589Z" fill="#FAFAF9"/><path d="M227.857 116.515c-.012-.004.021-.143.094-.406.087-.259.211-.646.459-1.108a7.311 7.311 0 0 1 1.127-1.533c.502-.544 1.106-1.122 1.722-1.808 1.221-1.384 2.812-2.96 3.96-5.104.569-1.065.962-2.297 1.02-3.607.068-1.3-.253-2.692-1.103-3.776l-.254-.326.417.023c.153.007.319.005.484-.021.663-.11 1.247-.531 1.661-1.056.423-.529.664-1.161.758-1.819.191-1.319-.094-2.627-.294-3.865-.41-2.473-.783-4.707-1.098-6.602l-.708-4.456-.174-1.215c-.036-.278-.049-.425-.036-.427.013-.002.051.14.111.414l.242 1.204.827 4.435 1.177 6.588c.206 1.233.513 2.564.316 3.98-.095.698-.363 1.414-.828 1.994-.456.58-1.11 1.065-1.894 1.195a2.68 2.68 0 0 1-.574.025l.161-.304c.92 1.174 1.251 2.664 1.174 4.025-.065 1.372-.486 2.658-1.081 3.752-1.204 2.198-2.828 3.76-4.071 5.12-.636.683-1.256 1.251-1.766 1.774a7.542 7.542 0 0 0-1.15 1.46c-.506.892-.64 1.459-.679 1.444ZM227.855 116.202c-.01.008-.113-.105-.298-.328l-.808-.975a128.09 128.09 0 0 0-3.072-3.495c-1.311-1.465-2.902-3.191-4.487-5.268-.779-1.037-1.633-2.134-2.225-3.457-.584-1.307-.851-2.92-.269-4.403.08-.199.179-.388.277-.56l.1.274a8.485 8.485 0 0 1-3.551-2.47c-.927-1.059-1.59-2.261-2.045-3.458-.922-2.414-.969-4.77-.883-6.673.105-1.917.365-3.443.541-4.493l.225-1.207c.056-.274.091-.417.104-.414.012 0 .002.148-.031.426l-.156 1.216c-.132 1.055-.351 2.583-.422 4.483-.052 1.885.028 4.201.942 6.538.452 1.162 1.102 2.324 1.999 3.34a8.178 8.178 0 0 0 3.4 2.358l.212.076-.113.197c-.09.155-.178.328-.251.508-.531 1.345-.297 2.866.257 4.113.562 1.271 1.393 2.357 2.165 3.398 1.556 2.071 3.124 3.813 4.41 5.3 1.294 1.481 2.315 2.707 2.987 3.579.335.439.59.781.754 1.021.166.238.248.366.238.374Z" fill="#17282F"/><path d="M227.68 122.04c-.103-.008-.149-1.461-.103-3.245.047-1.785.168-3.233.272-3.235.103-.002.15 1.45.103 3.245-.046 1.794-.168 3.242-.272 3.235ZM204.745 115.364c-.027-.009.091-.451.308-1.249.209-.8.508-1.958.797-3.405.582-2.888 1.089-6.961.866-11.457-.116-2.246-.337-4.388-.848-6.258-.495-1.874-1.308-3.45-2.239-4.576A8.849 8.849 0 0 0 201 86.2c-.726-.383-1.17-.509-1.159-.543.004-.012.116.012.328.07.211.059.517.167.897.343.751.356 1.793 1.03 2.767 2.178.983 1.134 1.846 2.747 2.369 4.654.54 1.906.771 4.07.889 6.332a43.795 43.795 0 0 1-.981 11.53 39.897 39.897 0 0 1-.916 3.391c-.128.395-.239.698-.314.902-.077.204-.123.31-.135.306ZM245.973 109.49c-.026 0-.043-.43-.052-1.204-.006-.774-.026-1.894-.075-3.276a99.091 99.091 0 0 0-.945-10.756c-.923-6.59-2.492-12.046-3.03-14.017l-.052-.187.149.12c.488.388.723.59.71.607-.013.018-.273-.15-.785-.508l.097-.069c.677 1.928 2.355 7.381 3.283 14 .605 4.194.816 8.03.839 10.804a58.383 58.383 0 0 1-.045 3.284c-.036.775-.068 1.203-.094 1.202ZM222.948 79.728c.003.032-.181.02-.426.19-.249.163-.509.52-.757 1.022a11.635 11.635 0 0 0-1.26 4.201l-.047.473-.289-.38-.522-.69a59.539 59.539 0 0 0-3.253-3.86c-.874-.953-1.432-1.53-1.394-1.57.033-.035.657.474 1.585 1.386a37.57 37.57 0 0 1 3.358 3.815c.181.238.357.473.526.697l-.335.092c.188-1.804.825-3.311 1.413-4.286.281-.494.601-.873.907-1.017.304-.153.5-.087.494-.073ZM234.099 79.008c.039.034-.449.708-1.274 1.773a222.285 222.285 0 0 1-3.28 4.11l-.687.837-.32.392-.009-.505c-.016-.898-.042-1.736-.18-2.471-.131-.737-.381-1.359-.676-1.827-.594-.95-1.279-1.22-1.241-1.272.007-.018.18.025.458.19.276.162.65.465.988.946.341.476.635 1.132.793 1.898.166.766.207 1.629.229 2.527l-.329-.113.683-.84a219.08 219.08 0 0 1 3.365-4.04c.877-1.02 1.439-1.637 1.48-1.605ZM227.543 114.712c-.025.002-.088-.425-.179-1.2l-.349-3.288a970.568 970.568 0 0 1-1.013-10.86c-.373-4.246-.691-8.09-.902-10.874l-.23-3.297c-.046-.78-.059-1.212-.034-1.214.026-.002.089.426.179 1.201l.35 3.289c.279 2.778.637 6.617 1.012 10.861.373 4.242.691 8.085.902 10.869l.231 3.298c.046.78.059 1.212.033 1.215ZM227.56 90.568c-.034-.036.265-.214.655.044a.852.852 0 0 1 .373.683c.011.338-.265.659-.599.76-.33.116-.741.018-.932-.261a.85.85 0 0 1-.101-.772c.162-.437.509-.47.503-.421.025.05-.196.164-.247.49-.024.155 0 .356.118.491.109.136.327.185.543.117.215-.072.362-.24.369-.415.016-.177-.083-.355-.194-.466-.233-.233-.479-.194-.488-.25ZM228.946 99.523c-.028-.042.313-.158.643.187a.855.855 0 0 1 .211.766c-.072.34-.432.586-.789.594-.355.024-.736-.19-.838-.522a.853.853 0 0 1 .143-.78c.298-.375.648-.289.624-.245.006.056-.246.089-.402.39-.074.142-.115.347-.041.514.065.166.266.277.498.268.233-.012.423-.14.472-.312.059-.172 0-.373-.086-.508-.182-.286-.437-.296-.435-.352Z" fill="#17282F"/><path d="M227.632 115.964c-5.133-.783-10.536-5.611-12.055-10.57-.755-2.463-.831-5.156-2.05-7.426-.709-1.322-1.771-2.425-2.526-3.722-2.508-4.304-1.229-9.727.118-14.522l.216.101-.2 1.07c-.176 1.051-.436 2.577-.54 4.494-.087 1.902-.04 4.259.882 6.673.153.4.329.803.53 1.199.837 1.905 2.153 3.535 3.976 4.243.284.153.578.289.882.408-.06.116-.118.239-.169.364-.582 1.483-.315 3.096.269 4.403.592 1.323 1.446 2.42 2.225 3.458 1.585 2.076 3.177 3.803 4.487 5.267a128.452 128.452 0 0 1 3.073 3.495l.807.975.075.09Zm-16.441-34.369.087-.678.135-1.055.125.059a30.508 30.508 0 0 0-.347 1.674Z" fill="#000"/><path d="m227.68 115.971-.048-.008c-.024-.027-.048-.057-.075-.09l-.808-.974a127.847 127.847 0 0 0-3.072-3.496c-1.311-1.464-2.902-3.19-4.487-5.267-.779-1.037-1.633-2.134-2.225-3.458-.584-1.307-.851-2.92-.269-4.402a4.12 4.12 0 0 1 .169-.364 8.111 8.111 0 0 1-.882-.408c.363.14.747.245 1.151.309-.888 1.04-.664 2.457-.36 3.79.304 1.335.924 2.108 1.684 3.246 2.449 3.671 6.564 7.882 9.222 11.122Zm-15.673-22.71a12.559 12.559 0 0 1-.53-1.2c-.922-2.413-.969-4.77-.883-6.672.105-1.917.365-3.443.541-4.494l.199-1.07.078.036-.135 1.056c-.025.207-.055.434-.086.678-.512 2.874-.607 5.83-.084 8.695.184 1.005.482 2.021.9 2.97Z" fill="#0F191D"/><path d="M248.988 121.251c-1.675-2.208-2.623-5.148-3.015-8.191l3.015 8.191Z" fill="#8F9192"/><path d="m248.99 121.252-.001-.001-3.016-8.191a27.61 27.61 0 0 1-.074-6.234c.013.57.019 1.061.022 1.46.01.774.027 1.203.053 1.204.026 0 .058-.428.094-1.202.036-.735.056-1.785.046-3.077v-.002l.019-1.624c3.438 4.629 4.016 12.019 2.857 17.667Z" fill="#000"/><path d="M245.973 109.49c-.026 0-.043-.43-.052-1.204-.003-.399-.01-.89-.023-1.46.057-.552.129-1.092.215-1.615a56.024 56.024 0 0 1-.046 3.077c-.036.774-.068 1.202-.094 1.202Z" fill="#0F191D"/><path opacity=".5" d="M77 183.894h84.692V42.399H77v141.495Z" fill="#C1CCD1"/><path d="m99.692 125.448.908 1.839 2.029.294-1.469 1.432.347 2.021-1.815-.955-1.815.955.346-2.021-1.468-1.432 2.029-.294.908-1.839Z" fill="url(#v)"/><path d="m109.775 125.448.908 1.839 2.029.294-1.469 1.432.347 2.021-1.815-.955-1.815.955.346-2.021-1.468-1.432 2.03-.294.907-1.839Z" fill="url(#w)"/><path d="m119.86 125.448.908 1.839 2.029.294-1.468 1.432.346 2.021-1.815-.955-1.815.955.346-2.021-1.468-1.432 2.03-.294.907-1.839Z" fill="url(#x)"/><path d="m129.944 125.448.907 1.839 2.03.294-1.469 1.432.347 2.021-1.815-.955-1.815.955.346-2.021-1.468-1.432 2.029-.294.908-1.839Z" fill="url(#y)"/><path d="m140.028 125.448.908 1.839 2.029.294-1.469 1.432.347 2.021-1.815-.955-1.815.955.346-2.021-1.468-1.432 2.029-.294.908-1.839Z" fill="url(#z)"/><path d="M116.111 142.033c0 .105-6.429.188-14.359.188-7.933 0-14.36-.083-14.36-.188 0-.103 6.427-.187 14.36-.187 7.93 0 14.359.084 14.359.187Z" fill="#F03D5F"/><path d="M152.201 148.268c0 .104-14.34.189-32.025.189-17.691 0-32.028-.085-32.028-.189 0-.103 14.337-.187 32.028-.187 17.685 0 32.025.084 32.025.187ZM152.201 153.627c0 .104-14.34.188-32.025.188-17.691 0-32.028-.084-32.028-.188s14.337-.188 32.028-.188c17.685 0 32.025.084 32.025.188ZM152.201 158.984c0 .103-14.34.187-32.025.187-17.691 0-32.028-.084-32.028-.187s14.337-.188 32.028-.188c17.685 0 32.025.085 32.025.188ZM152.201 164.341c0 .104-14.34.188-32.025.188-17.691 0-32.028-.084-32.028-.188 0-.103 14.337-.188 32.028-.188 17.685 0 32.025.085 32.025.188ZM152.201 169.7c0 .103-14.34.186-32.025.186-17.691 0-32.028-.083-32.028-.186 0-.105 14.337-.188 32.028-.188 17.685 0 32.025.083 32.025.188Z" fill="#17282F"/><path d="M82.661 119.348h72.953V49.31H82.661v70.038Z" fill="#fff"/><path d="M123.619 84.02c.017 1.822.165 2.897.182 4.717.005.456.038.975.393 1.26.299.24.745.224 1.089.054s.607-.466.85-.764a15.862 15.862 0 0 0 3.497-8.734c.021-.273.026-.58-.154-.788-.286-.33-.82-.207-1.219-.03a9.901 9.901 0 0 0-4.638 4.285Z" fill="#17282F"/><path d="m111.37 62.23.036 1.819.365 27.23c.043 3.162 2.795 5.643 6.179 5.573h.001c3.418-.073 6.194-2.719 6.203-5.913.011-3.353.083-6.882.083-6.882s4.319-.717 5.214-6.352c.445-2.802.304-7.398.068-11.153a5.951 5.951 0 0 0-6.564-5.548L111.37 62.23Z" fill="#F8A58D"/><path d="M127.35 69.752c.014.382-.299.707-.697.729-.397.021-.731-.27-.744-.651-.014-.382.298-.709.696-.73.397-.022.732.27.745.652ZM128.522 68.942c-.09.095-.637-.31-1.416-.309-.776-.008-1.347.391-1.431.296-.042-.041.049-.212.298-.393.244-.18.662-.355 1.146-.353.485.003.892.18 1.127.363.239.184.32.354.276.396ZM119.859 69.752c.014.382-.298.707-.697.729-.397.021-.731-.27-.745-.651-.013-.382.299-.709.696-.73.399-.022.733.27.746.652Z" fill="#17282F"/><path d="M120.879 69.087c-.091.094-.639-.31-1.416-.309-.776-.009-1.347.392-1.432.296-.041-.042.049-.212.298-.393.245-.18.662-.355 1.147-.354.485.003.892.182 1.126.364.238.184.321.354.277.396ZM123.7 74.855c-.003-.045.48-.128 1.263-.229.199-.02.387-.06.421-.195.046-.143-.037-.357-.134-.588l-.587-1.512c-.815-2.153-1.406-3.923-1.319-3.956.088-.032.819 1.688 1.635 3.84.196.532.384 1.037.562 1.522.075.225.204.48.103.78a.497.497 0 0 1-.326.289c-.128.039-.239.04-.338.047-.788.042-1.277.046-1.28.002Z" fill="#17282F"/><path d="M124.237 84.058s-3.791.244-7.547-2.014c0 0 1.831 3.871 7.471 3.344l.076-1.33ZM123.371 76.73c-.279-.37-.769-.574-1.256-.521-.338.036-.678.199-.883.473-.205.276-.248.665-.062.928.21.294.649.363 1.02.258.371-.106.69-.35.993-.594a.851.851 0 0 0 .223-.23c.052-.092.063-.212-.002-.289" fill="#F68260"/><path d="M121.411 75.392c.127-.007.129.838.851 1.437.722.601 1.621.506 1.628.624.012.054-.201.164-.58.174a2.094 2.094 0 0 1-1.359-.473c-.441-.367-.63-.858-.659-1.204-.033-.353.062-.562.119-.558ZM119.81 61.762c.596.131 1.065.593 1.424 1.087.36.494.65 1.043 1.077 1.48.957.981 2.582 1.227 3.787.574.456.438 1.053.912 1.652.708.349-.119.594-.461.665-.824.07-.363-.012-.741-.158-1.081-.59-1.371-2.109-2.107-3.574-2.395a10.099 10.099 0 0 0-5.365.418M106.223 119.575c.271.469-1.727-6.255-1.727-6.255l-1.673 6.146-12.41.092s7.014-22.922 10.345-26.122c4.346-4.176 12.494-4.405 12.494-4.405l12.584.204.279.031c5.134.621 9.603 3.806 11.918 8.431l8.355 21.651h-11.032l-2.352-6.389.784 6.389-27.565.227Z" fill="#17282F"/><path d="M128.013 63.462c.959 1.447 1.038 3.31 1.263 5.032.379 2.91.582 5.876.099 8.77-.483 2.895-1.702 5.736-3.827 7.76s-5.228 3.122-8.083 2.447c-3.207-.76-4.238-3.57-5.144-6.74-.907-3.168 1.115-6.046 2.017-9.216.696-2.44.958-5.885 2.534-7.874 1.575-1.99 4.198-2.122 4.968-2.09 0 0 4.249-.988 6.173 1.911Zm3.689 24.916c-.384-.904-1.762-.871-2.372-1.642-.665-.843-.076-2.05.418-3.002 2.386-4.6 2.146-10.07 1.712-15.233-.186-2.21-.412-4.471-1.37-6.472-1.911-3.988-6.53-7.148-12.279-6.891-4.676.182-8.232 4.4-10.764 8.336-2.533 3.936-3.876 10.12-3.046 14.727.415 2.305 2.902 4.083 2.448 6.382-.286 1.448-1.805 3.185-1.507 4.631.406 1.975 3.273 2.663 4.95 3.78 1.726 1.151 3.162 2.678 4.678 4.095 1.515 1.417 3.172 2.762 5.137 3.428 1.966.665 4.306.541 5.909-.777 2.615-2.147 2.363-6.433 4.742-8.84.716-.725 1.743-1.584 1.344-2.522Z" fill="url(#A)"/><path d="m105.255 87.1-.177-.098.994-1.652c-.216.565-.54 1.159-.817 1.75Z" fill="#8F9192"/><path d="M116.863 94.894c-.5 0-.999-.062-1.475-.186-2.097-.542-3.821-2.008-5.37-3.523-1.499-1.467-2.944-3.047-4.763-4.085.277-.591.601-1.185.817-1.75l.635-1.053c1.808 5.054 7.077 8.578 12.407 8.578.657 0 1.316-.054 1.969-.165-.811 1.465-2.518 2.184-4.22 2.184Z" fill="#BA2C42"/><path d="M129.218 86.93a1.248 1.248 0 0 1-.069-.08c-.26-.328-.328-.713-.286-1.117l.371 1.12-.016.077Z" fill="#8F9192"/><path d="M125.576 91.063c-.307 0-.616-.137-.738-.414-.142-.321.019-.71.276-.95s.593-.374.907-.533a5.54 5.54 0 0 0 2.817-3.509l.025.077c-.042.403.026.788.286 1.117.022.027.045.054.069.08-.315 1.371-1.379 2.438-2.395 3.42-.284.275-.585.56-.964.672-.091.026-.187.04-.283.04Z" fill="#BA2C42"/><path d="M420.93 117.3c0 5.83-4.726 10.556-10.556 10.556-5.83 0-10.556-4.726-10.556-10.556 0-5.83 4.726-10.556 10.556-10.556 5.83 0 10.556 4.726 10.556 10.556Z" fill="url(#B)"/><path d="M408.772 121.796c-.032-.04.536-.561 1.482-1.372.948-.812 2.273-1.913 3.755-3.116l-.005.287-.074-.064a188.986 188.986 0 0 1-3.698-3.284c-.934-.855-1.494-1.404-1.46-1.443.034-.039.656.439 1.633 1.243.979.804 2.313 1.934 3.772 3.2l.073.065.169.146-.174.141a194.271 194.271 0 0 1-3.824 3.03c-.99.759-1.617 1.207-1.649 1.167Z" fill="#fff"/><path d="M30.736 117.3c0-5.83 4.726-10.556 10.556-10.556 5.83 0 10.556 4.726 10.556 10.556 0 5.83-4.726 10.556-10.556 10.556-5.83 0-10.556-4.726-10.556-10.556Z" fill="url(#C)"/><path d="M42.895 112.804c.032.041-.537.562-1.483 1.373-.947.811-2.272 1.913-3.755 3.116l.005-.287.074.064a198.11 198.11 0 0 1 3.699 3.283c.933.856 1.493 1.404 1.46 1.444-.034.039-.656-.439-1.634-1.243a192.338 192.338 0 0 1-3.771-3.201l-.074-.064-.169-.146.174-.141a192.166 192.166 0 0 1 3.825-3.03c.99-.759 1.616-1.207 1.648-1.168Z" fill="#fff"/><path d="M245.028 20.86c17.272 5.29 31.453 16.989 39.926 32.943 8.474 15.953 10.233 34.248 4.939 51.526-10.918 35.657-48.812 55.783-84.468 44.864-35.657-10.919-55.784-48.798-44.865-84.469 5.29-17.272 16.989-31.452 32.943-39.926 15.954-8.473 34.252-10.227 51.525-4.937Zm-57.796-6.867c-19.108 10.149-33.119 27.131-39.453 47.817-13.078 42.704 11.028 88.086 53.732 101.165 26.206 8.024 53.407 2.03 73.545-13.654l68.259 85.385 10.442-8.347-68.834-86.105c7.927-8.618 14.1-19.088 17.752-31.012a82.641 82.641 0 0 0 2.12-8.514c3.493-18.092.73-36.693-8.035-53.196-10.149-19.107-27.131-33.119-47.818-39.453-20.687-6.335-42.603-4.234-61.71 5.913Z" fill="url(#D)"/><defs><linearGradient id="p" x1="194.168" y1="134.472" x2="202.541" y2="134.472" gradientUnits="userSpaceOnUse"><stop stop-color="#FF512F"/><stop offset="1" stop-color="#F09819"/></linearGradient><linearGradient id="a" x1="12.063" y1="123.252" x2="80.142" y2="126.402" gradientUnits="userSpaceOnUse"><stop stop-color="#16222A"/><stop offset="1" stop-color="#3A6073"/></linearGradient><linearGradient id="c" x1="18.231" y1="242.883" x2="32.235" y2="242.883" gradientUnits="userSpaceOnUse"><stop stop-color="#FF512F"/><stop offset="1" stop-color="#F09819"/></linearGradient><linearGradient id="d" x1="36.983" y1="255.204" x2="50.225" y2="255.204" gradientUnits="userSpaceOnUse"><stop stop-color="#FF512F"/><stop offset="1" stop-color="#F09819"/></linearGradient><linearGradient id="e" x1="12.544" y1="263.835" x2="32.472" y2="263.835" gradientUnits="userSpaceOnUse"><stop stop-color="#FF512F"/><stop offset="1" stop-color="#F09819"/></linearGradient><linearGradient id="f" x1="57.672" y1="0" x2="455.648" y2="29.211" gradientUnits="userSpaceOnUse"><stop stop-color="#16222A"/><stop offset="1" stop-color="#3A6073"/></linearGradient><linearGradient id="g" x1="219.697" y1="224.027" x2="231.542" y2="224.027" gradientUnits="userSpaceOnUse"><stop stop-color="#FF512F"/><stop offset="1" stop-color="#F09819"/></linearGradient><linearGradient id="h" x1="311.263" y1="124.16" x2="317.136" y2="124.16" gradientUnits="userSpaceOnUse"><stop stop-color="#FF512F"/><stop offset="1" stop-color="#F09819"/></linearGradient><linearGradient id="i" x1="321.347" y1="124.16" x2="327.22" y2="124.16" gradientUnits="userSpaceOnUse"><stop stop-color="#FF512F"/><stop offset="1" stop-color="#F09819"/></linearGradient><linearGradient id="j" x1="331.431" y1="124.16" x2="337.304" y2="124.16" gradientUnits="userSpaceOnUse"><stop stop-color="#FF512F"/><stop offset="1" stop-color="#F09819"/></linearGradient><linearGradient id="k" x1="341.515" y1="124.16" x2="347.388" y2="124.16" gradientUnits="userSpaceOnUse"><stop stop-color="#FF512F"/><stop offset="1" stop-color="#F09819"/></linearGradient><linearGradient id="l" x1="351.599" y1="124.16" x2="357.472" y2="124.16" gradientUnits="userSpaceOnUse"><stop stop-color="#FF512F"/><stop offset="1" stop-color="#F09819"/></linearGradient><linearGradient id="m" x1="308.599" y1="98.78" x2="362.239" y2="98.78" gradientUnits="userSpaceOnUse"><stop stop-color="#FF512F"/><stop offset="1" stop-color="#F09819"/></linearGradient><linearGradient id="n" x1="346.792" y1="102.914" x2="350.901" y2="102.914" gradientUnits="userSpaceOnUse"><stop stop-color="#FF512F"/><stop offset="1" stop-color="#F09819"/></linearGradient><linearGradient id="o" x1="322.936" y1="85.178" x2="329.872" y2="85.178" gradientUnits="userSpaceOnUse"><stop stop-color="#FF512F"/><stop offset="1" stop-color="#F09819"/></linearGradient><linearGradient id="b" x1="378.821" y1="74.718" x2="480.681" y2="78.818" gradientUnits="userSpaceOnUse"><stop stop-color="#16222A"/><stop offset="1" stop-color="#3A6073"/></linearGradient><linearGradient id="q" x1="208.542" y1="134.472" x2="216.915" y2="134.472" gradientUnits="userSpaceOnUse"><stop stop-color="#FF512F"/><stop offset="1" stop-color="#F09819"/></linearGradient><linearGradient id="r" x1="222.915" y1="134.472" x2="231.288" y2="134.472" gradientUnits="userSpaceOnUse"><stop stop-color="#FF512F"/><stop offset="1" stop-color="#F09819"/></linearGradient><linearGradient id="s" x1="237.288" y1="134.472" x2="245.661" y2="134.472" gradientUnits="userSpaceOnUse"><stop stop-color="#FF512F"/><stop offset="1" stop-color="#F09819"/></linearGradient><linearGradient id="t" x1="251.662" y1="134.472" x2="260.035" y2="134.472" gradientUnits="userSpaceOnUse"><stop stop-color="#FF512F"/><stop offset="1" stop-color="#F09819"/></linearGradient><linearGradient id="u" x1="185.311" y1="78.469" x2="278.994" y2="88.938" gradientUnits="userSpaceOnUse"><stop stop-color="#16222A"/><stop offset="1" stop-color="#3A6073"/></linearGradient><linearGradient id="v" x1="96.755" y1="128.241" x2="102.629" y2="128.241" gradientUnits="userSpaceOnUse"><stop stop-color="#FF512F"/><stop offset="1" stop-color="#F09819"/></linearGradient><linearGradient id="w" x1="106.838" y1="128.241" x2="112.712" y2="128.241" gradientUnits="userSpaceOnUse"><stop stop-color="#FF512F"/><stop offset="1" stop-color="#F09819"/></linearGradient><linearGradient id="x" x1="116.923" y1="128.241" x2="122.797" y2="128.241" gradientUnits="userSpaceOnUse"><stop stop-color="#FF512F"/><stop offset="1" stop-color="#F09819"/></linearGradient><linearGradient id="y" x1="127.007" y1="128.241" x2="132.881" y2="128.241" gradientUnits="userSpaceOnUse"><stop stop-color="#FF512F"/><stop offset="1" stop-color="#F09819"/></linearGradient><linearGradient id="z" x1="137.091" y1="128.241" x2="142.965" y2="128.241" gradientUnits="userSpaceOnUse"><stop stop-color="#FF512F"/><stop offset="1" stop-color="#F09819"/></linearGradient><linearGradient id="A" x1="103.756" y1="78.017" x2="131.791" y2="78.017" gradientUnits="userSpaceOnUse"><stop stop-color="#FF512F"/><stop offset="1" stop-color="#F09819"/></linearGradient><linearGradient id="B" x1="399.818" y1="117.3" x2="420.93" y2="117.3" gradientUnits="userSpaceOnUse"><stop stop-color="#FF512F"/><stop offset="1" stop-color="#F09819"/></linearGradient><linearGradient id="C" x1="30.736" y1="117.3" x2="51.848" y2="117.3" gradientUnits="userSpaceOnUse"><stop stop-color="#FF512F"/><stop offset="1" stop-color="#F09819"/></linearGradient><linearGradient id="D" x1="144.221" y1="119.598" x2="353.757" y2="119.598" gradientUnits="userSpaceOnUse"><stop stop-color="#FF512F"/><stop offset="1" stop-color="#F09819"/></linearGradient></defs></svg>