<svg width="50" height="50" viewBox="0 0 50 50" fill="none" xmlns="http://www.w3.org/2000/svg">
<path d="M25.7347 3.74219C32.5763 3.74219 38.0813 9.12584 38.0813 15.7723V19.1908C41.9212 20.3894 44.719 23.8655 44.719 28.0173V39.0239C44.719 44.1639 40.4577 48.3312 35.2042 48.3312H16.3354C11.0796 48.3312 6.81836 44.1639 6.81836 39.0239V28.0173C6.81836 23.8655 9.61843 20.3894 13.4561 19.1908V15.7723C13.4787 9.12584 18.9837 3.74219 25.7347 3.74219ZM25.7574 29.1229C24.67 29.1229 23.7864 29.9869 23.7864 31.0504V35.9688C23.7864 37.0543 24.67 37.9184 25.7574 37.9184C26.8674 37.9184 27.7509 37.0543 27.7509 35.9688V31.0504C27.7509 29.9869 26.8674 29.1229 25.7574 29.1229ZM25.78 7.6193C21.1812 7.6193 17.4432 11.2527 17.4206 15.728V18.7101H34.1168V15.7723C34.1168 11.2749 30.3788 7.6193 25.78 7.6193Z" fill="url(#paint0_linear_3679_86136)"/>
<defs>
<linearGradient id="paint0_linear_3679_86136" x1="6.81836" y1="26.0367" x2="44.719" y2="26.0367" gradientUnits="userSpaceOnUse">
<stop stop-color="#FF512F"/>
<stop offset="1" stop-color="#F09819"/>
</linearGradient>
</defs>
</svg>
