<svg width="38" height="44" viewBox="0 0 38 44" fill="none" xmlns="http://www.w3.org/2000/svg">
<path d="M20.2211 0.822347L34.4188 5.58588C36.008 6.11656 37.0826 7.57646 37.0912 9.21255L37.1816 23.4172C37.2096 27.7234 35.6398 31.8997 32.7649 35.1718C31.4427 36.6737 29.7479 37.9637 27.5837 39.1173L19.9519 43.1971C19.7128 43.3229 19.4501 43.3879 19.1852 43.3901C18.9204 43.3921 18.6555 43.3292 18.4186 43.2054L10.7157 39.2201C8.52782 38.0853 6.81798 36.8142 5.48284 35.3333C2.5606 32.0947 0.936903 27.9374 0.908908 23.6248L0.818411 9.43069C0.80985 7.79251 1.86504 6.32212 3.44567 5.77047L17.5895 0.837029C18.4294 0.539177 19.3661 0.532885 20.2211 0.822347ZM27.0105 16.0504C26.3752 15.44 25.3523 15.4442 24.7256 16.0629L17.5202 23.1652L14.57 20.3294C13.9347 19.719 12.914 19.7253 12.2852 20.344C11.6585 20.9628 11.665 21.9571 12.3002 22.5674L16.3982 26.5108C16.717 26.8171 17.1304 26.9681 17.5439 26.964C17.9573 26.9618 18.3687 26.8066 18.6831 26.4961L27.0234 18.2738C27.65 17.655 27.6436 16.6607 27.0105 16.0504Z" fill="url(#paint0_linear_4168_67798)"/>
<defs>
<linearGradient id="paint0_linear_4168_67798" x1="0.818359" y1="21.9998" x2="37.182" y2="21.9998" gradientUnits="userSpaceOnUse">
<stop stop-color="#FF512F"/>
<stop offset="1" stop-color="#F09819"/>
</linearGradient>
</defs>
</svg>
