<svg width="50" height="50" viewBox="0 0 50 50" fill="none" xmlns="http://www.w3.org/2000/svg">
<path d="M27.333 4.29168L15.7913 15.8333C15.0205 16.6042 14.583 17.6667 14.583 18.7708V39.5833C14.583 41.875 16.458 43.75 18.7497 43.75H37.4997C39.1663 43.75 40.6663 42.75 41.333 41.2292L48.1247 25.375C49.8747 21.25 46.8539 16.6667 42.3747 16.6667H30.6038L32.583 7.12502C32.7913 6.08335 32.4788 5.02085 31.7288 4.27085C30.4997 3.06252 28.5413 3.06252 27.333 4.29168ZM6.24968 43.75C8.54134 43.75 10.4163 41.875 10.4163 39.5833V22.9167C10.4163 20.625 8.54134 18.75 6.24968 18.75C3.95801 18.75 2.08301 20.625 2.08301 22.9167V39.5833C2.08301 41.875 3.95801 43.75 6.24968 43.75Z" fill="url(#paint0_linear_3679_86142)"/>
<defs>
<linearGradient id="paint0_linear_3679_86142" x1="2.08301" y1="23.5586" x2="48.6288" y2="23.5586" gradientUnits="userSpaceOnUse">
<stop stop-color="#FF512F"/>
<stop offset="1" stop-color="#F09819"/>
</linearGradient>
</defs>
</svg>
